SpartanTT-Medium.ufo
<glyph name="exclam" format="2">
  <advance width="747"/>
  <unicode hex="0021"/>
  <outline>
    <component base="period" xOffset="-16"/>
    <contour>
      <point x="446" y="430" type="line"/>
      <point x="469" y="1720" type="line"/>
      <point x="277" y="1720" type="line"/>
      <point x="300" y="430" type="line"/>
    </contour>
  </outline>
</glyph>
<glyph name="numbersign" format="2">
  <advance width="1478"/>
  <unicode hex="0023"/>
  <outline>
    <contour>
      <point x="447" y="0" type="line"/>
      <point x="502" y="425" type="line"/>
      <point x="890" y="425" type="line"/>
      <point x="835" y="0" type="line"/>
      <point x="967" y="0" type="line"/>
      <point x="1022" y="425" type="line"/>
      <point x="1297" y="425" type="line"/>
      <point x="1297" y="558" type="line"/>
      <point x="1038" y="558" type="line"/>
      <point x="1090" y="940" type="line"/>
      <point x="1297" y="940" type="line"/>
      <point x="1297" y="1073" type="line"/>
      <point x="1106" y="1073" type="line"/>
      <point x="1163" y="1498" type="line"/>
      <point x="1030" y="1498" type="line"/>
      <point x="974" y="1073" type="line"/>
      <point x="587" y="1073" type="line"/>
      <point x="643" y="1498" type="line"/>
      <point x="510" y="1498" type="line"/>
      <point x="455" y="1073" type="line"/>
      <point x="182" y="1073" type="line"/>
      <point x="182" y="940" type="line"/>
      <point x="439" y="940" type="line"/>
      <point x="387" y="558" type="line"/>
      <point x="182" y="558" type="line"/>
      <point x="182" y="425" type="line"/>
      <point x="370" y="425" type="line"/>
      <point x="315" y="0" type="line"/>
    </contour>
    <contour>
      <point x="571" y="940" type="line"/>
      <point x="958" y="940" type="line"/>
      <point x="907" y="558" type="line"/>
      <point x="519" y="558" type="line"/>
    </contour>
  </outline>
</glyph>
<glyph name="dollar" format="2">
  <advance width="1471"/>
  <unicode hex="0024"/>
  <outline>
    <component base="S" xOffset="57"/>
    <contour>
      <point x="703" y="1926" type="line"/>
      <point x="703" y="1671" type="line"/>
      <point x="828" y="1671" type="line"/>
      <point x="828" y="1926" type="line"/>
    </contour>
    <contour>
      <point x="703" y="-21" type="line"/>
      <point x="703" y="-276" type="line"/>
      <point x="828" y="-276" type="line"/>
      <point x="828" y="-21" type="line"/>
    </contour>
  </outline>
</glyph>
<glyph name="percent" format="2">
  <advance width="2148"/>
  <unicode hex="0025"/>
  <outline>
    <contour>
      <point x="579" y="892" type="curve" smooth="yes"/>
      <point x="816" y="892"/>
      <point x="998" y="1054"/>
      <point x="998" y="1286" type="curve" smooth="yes"/>
      <point x="998" y="1518"/>
      <point x="816" y="1680"/>
      <point x="579" y="1680" type="curve" smooth="yes"/>
      <point x="342" y="1680"/>
      <point x="160" y="1518"/>
      <point x="160" y="1286" type="curve" smooth="yes"/>
      <point x="160" y="1054"/>
      <point x="342" y="892"/>
    </contour>
    <contour>
      <point x="579" y="1018" type="curve" smooth="yes"/>
      <point x="427" y="1018"/>
      <point x="312" y="1129"/>
      <point x="312" y="1286" type="curve" smooth="yes"/>
      <point x="312" y="1443"/>
      <point x="427" y="1554"/>
      <point x="579" y="1554" type="curve" smooth="yes"/>
      <point x="731" y="1554"/>
      <point x="846" y="1443"/>
      <point x="846" y="1286" type="curve" smooth="yes"/>
      <point x="846" y="1129"/>
      <point x="731" y="1018"/>
    </contour>
    <contour>
      <point x="1569" y="-32" type="curve" smooth="yes"/>
      <point x="1806" y="-32"/>
      <point x="1988" y="130"/>
      <point x="1988" y="362" type="curve" smooth="yes"/>
      <point x="1988" y="594"/>
      <point x="1806" y="756"/>
      <point x="1569" y="756" type="curve" smooth="yes"/>
      <point x="1332" y="756"/>
      <point x="1150" y="594"/>
      <point x="1150" y="362" type="curve" smooth="yes"/>
      <point x="1150" y="130"/>
      <point x="1332" y="-32"/>
    </contour>
    <contour>
      <point x="1569" y="94" type="curve" smooth="yes"/>
      <point x="1417" y="94"/>
      <point x="1302" y="205"/>
      <point x="1302" y="362" type="curve" smooth="yes"/>
      <point x="1302" y="519"/>
      <point x="1417" y="630"/>
      <point x="1569" y="630" type="curve" smooth="yes"/>
      <point x="1721" y="630"/>
      <point x="1836" y="519"/>
      <point x="1836" y="362" type="curve" smooth="yes"/>
      <point x="1836" y="205"/>
      <point x="1721" y="94"/>
    </contour>
    <contour>
      <point x="663" y="0" type="line"/>
      <point x="1623" y="1650" type="line"/>
      <point x="1482" y="1650" type="line"/>
      <point x="522" y="0" type="line"/>
    </contour>
  </outline>
</glyph>
<glyph name="ampersand" format="2">
  <advance width="1807"/>
  <unicode hex="0026"/>
  <outline>
    <contour>
      <point x="671" y="-32" type="curve" smooth="yes"/>
      <point x="876" y="-32"/>
      <point x="1065" y="59"/>
      <point x="1225" y="221" type="curve"/>
      <point x="1429" y="0" type="line" name=".hr01"/>
      <point x="1683" y="0" type="line"/>
      <point x="1373" y="335" type="line"/>
      <point x="1438" y="405"/>
      <point x="1522" y="513"/>
      <point x="1581" y="599" type="curve"/>
      <point x="1454" y="712" type="line"/>
      <point x="1419" y="666"/>
      <point x="1306" y="523"/>
      <point x="1246" y="466" type="curve"/>
      <point x="853" y="890" type="line"/>
      <point x="1076" y="1002"/>
      <point x="1195" y="1122"/>
      <point x="1195" y="1300" type="curve" smooth="yes"/>
      <point x="1195" y="1502"/>
      <point x="1041" y="1681"/>
      <point x="777" y="1681" type="curve" smooth="yes"/>
      <point x="541" y="1681"/>
      <point x="355" y="1534"/>
      <point x="355" y="1304" type="curve" smooth="yes"/>
      <point x="355" y="1181"/>
      <point x="409" y="1079"/>
      <point x="565" y="916" type="curve"/>
      <point x="302" y="797"/>
      <point x="168" y="633" name=".hr02"/>
      <point x="168" y="414" type="curve" smooth="yes"/>
      <point x="168" y="135"/>
      <point x="386" y="-32"/>
    </contour>
    <contour>
      <point x="695" y="159" type="curve" smooth="yes"/>
      <point x="530" y="159"/>
      <point x="391" y="260"/>
      <point x="391" y="440" type="curve" smooth="yes"/>
      <point x="391" y="593"/>
      <point x="492" y="724"/>
      <point x="673" y="804" type="curve"/>
      <point x="1094" y="360" type="line"/>
      <point x="972" y="230"/>
      <point x="833" y="159"/>
    </contour>
    <contour>
      <point x="745" y="1004" type="curve"/>
      <point x="604" y="1139"/>
      <point x="558" y="1214"/>
      <point x="558" y="1307" type="curve" smooth="yes"/>
      <point x="558" y="1438" name=".hr03"/>
      <point x="653" y="1531"/>
      <point x="785" y="1531" type="curve" smooth="yes"/>
      <point x="916" y="1531"/>
      <point x="1016" y="1440"/>
      <point x="1016" y="1302" type="curve" smooth="yes"/>
      <point x="1016" y="1167"/>
      <point x="919" y="1093"/>
    </contour>
  </outline>
</glyph>
<glyph name="quotesingle" format="2">
  <advance width="652"/>
  <unicode hex="0027"/>
  <outline>
    <contour>
      <point x="388" y="1231" type="line"/>
      <point x="424" y="1720" type="line"/>
      <point x="228" y="1720" type="line"/>
      <point x="264" y="1231" type="line"/>
    </contour>
  </outline>
</glyph>
<glyph name="parenleft" format="2">
  <advance width="747"/>
  <unicode hex="0028"/>
  <outline>
    <contour>
      <point x="643" y="-466" type="line"/>
      <point x="501" y="-255"/>
      <point x="337" y="130"/>
      <point x="337" y="614" type="curve" smooth="yes"/>
      <point x="337" y="1109"/>
      <point x="504" y="1492"/>
      <point x="643" y="1696" type="curve"/>
      <point x="517" y="1750" type="line"/>
      <point x="356" y="1545"/>
      <point x="151" y="1132"/>
      <point x="151" y="614" type="curve" smooth="yes"/>
      <point x="151" y="97"/>
      <point x="356" y="-314"/>
      <point x="517" y="-520" type="curve"/>
    </contour>
  </outline>
</glyph>
<glyph name="asterisk" format="2">
  <advance width="941"/>
  <unicode hex="002A"/>
  <outline>
    <contour>
      <point x="469" y="1377" type="line"/>
      <point x="585" y="1224" type="line"/>
      <point x="657" y="1274" type="line"/>
      <point x="547" y="1435" type="line"/>
      <point x="732" y="1498" type="line"/>
      <point x="704" y="1585" type="line"/>
      <point x="518" y="1527" type="line"/>
      <point x="518" y="1720" type="line"/>
      <point x="422" y="1720" type="line"/>
      <point x="422" y="1527" type="line"/>
      <point x="236" y="1585" type="line"/>
      <point x="207" y="1498" type="line"/>
      <point x="393" y="1435" type="line"/>
      <point x="282" y="1274" type="line"/>
      <point x="355" y="1224" type="line"/>
    </contour>
  </outline>
</glyph>
<glyph name="plus" format="2">
  <advance width="1404"/>
  <unicode hex="002B"/>
  <outline>
    <contour>
      <point x="786" y="316" type="line"/>
      <point x="786" y="745" type="line"/>
      <point x="1215" y="745" type="line"/>
      <point x="1215" y="913" type="line"/>
      <point x="786" y="913" type="line"/>
      <point x="786" y="1342" type="line"/>
      <point x="618" y="1342" type="line"/>
      <point x="618" y="913" type="line"/>
      <point x="189" y="913" type="line"/>
      <point x="189" y="745" type="line"/>
      <point x="618" y="745" type="line"/>
      <point x="618" y="316" type="line"/>
    </contour>
  </outline>
</glyph>
<glyph name="comma" format="2">
  <advance width="735"/>
  <unicode hex="002C"/>
  <outline>
    <contour>
      <point x="307" y="-274" type="line"/>
      <point x="425" y="-178"/>
      <point x="508" y="-36"/>
      <point x="508" y="79" type="curve" smooth="yes"/>
      <point x="508" y="177"/>
      <point x="447" y="232"/>
      <point x="372" y="232" type="curve" smooth="yes"/>
      <point x="296" y="232"/>
      <point x="238" y="175"/>
      <point x="238" y="102" type="curve" smooth="yes"/>
      <point x="238" y="40"/>
      <point x="280" y="-10"/>
      <point x="343" y="-23" type="curve"/>
      <point x="336" y="-97"/>
      <point x="294" y="-187"/>
      <point x="254" y="-230" type="curve"/>
    </contour>
  </outline>
</glyph>
<glyph name="hyphen" format="2">
  <advance width="1054"/>
  <unicode hex="002D"/>
  <outline>
    <contour>
      <point x="849" y="496" type="line"/>
      <point x="849" y="663" type="line"/>
      <point x="205" y="663" type="line"/>
      <point x="205" y="496" type="line"/>
    </contour>
  </outline>
</glyph>
<glyph name="period" format="2">
  <advance width="750"/>
  <unicode hex="002E"/>
  <outline>
    <contour>
      <point x="375" y="-32" type="curve" smooth="yes"/>
      <point x="448" y="-32"/>
      <point x="507" y="27"/>
      <point x="507" y="100" type="curve" smooth="yes"/>
      <point x="507" y="173"/>
      <point x="448" y="232"/>
      <point x="375" y="232" type="curve" smooth="yes"/>
      <point x="302" y="232"/>
      <point x="243" y="173"/>
      <point x="243" y="100" type="curve" smooth="yes"/>
      <point x="243" y="27"/>
      <point x="302" y="-32"/>
    </contour>
  </outline>
</glyph>
<glyph name="slash" format="2">
  <advance width="1033"/>
  <unicode hex="002F"/>
  <outline>
    <contour>
      <point x="186" y="-240" type="line"/>
      <point x="1010" y="1720" type="line"/>
      <point x="847" y="1720" type="line"/>
      <point x="23" y="-240" type="line"/>
    </contour>
  </outline>
</glyph>
<glyph name="zero" format="2">
  <advance width="1500"/>
  <unicode hex="0030"/>
  <outline>
    <contour>
      <point x="749" y="-32" type="curve" smooth="yes"/>
      <point x="1153" y="-32"/>
      <point x="1424" y="313"/>
      <point x="1424" y="824" type="curve" smooth="yes"/>
      <point x="1424" y="1335"/>
      <point x="1153" y="1680"/>
      <point x="749" y="1680" type="curve" smooth="yes"/>
      <point x="346" y="1680"/>
      <point x="75" y="1335"/>
      <point x="75" y="824" type="curve" smooth="yes"/>
      <point x="75" y="313"/>
      <point x="346" y="-32"/>
    </contour>
    <contour>
      <point x="749" y="150" type="curve" smooth="yes"/>
      <point x="471" y="150"/>
      <point x="290" y="414"/>
      <point x="290" y="824" type="curve" smooth="yes"/>
      <point x="290" y="1234"/>
      <point x="471" y="1498"/>
      <point x="749" y="1498" type="curve" smooth="yes"/>
      <point x="1027" y="1498"/>
      <point x="1208" y="1234"/>
      <point x="1208" y="824" type="curve" smooth="yes"/>
      <point x="1208" y="414"/>
      <point x="1027" y="150"/>
    </contour>
  </outline>
</glyph>
<glyph name="one" format="2">
  <advance width="1500"/>
  <unicode hex="0031"/>
  <outline>
    <contour>
      <point x="896" y="0" type="line"/>
      <point x="896" y="1650" type="line"/>
      <point x="467" y="1650" type="line"/>
      <point x="467" y="1450" type="line"/>
      <point x="692" y="1450" type="line"/>
      <point x="692" y="0" type="line"/>
    </contour>
  </outline>
</glyph>
<glyph name="two" format="2">
  <advance width="1500"/>
  <unicode hex="0032"/>
  <outline>
    <contour>
      <point x="1328" y="0" type="line"/>
      <point x="1328" y="187" type="line"/>
      <point x="526" y="187" type="line"/>
      <point x="1121" y="645"/>
      <point x="1298" y="868"/>
      <point x="1298" y="1134" type="curve" smooth="yes"/>
      <point x="1298" y="1447"/>
      <point x="1051" y="1681"/>
      <point x="729" y="1681" type="curve" smooth="yes"/>
      <point x="434" y="1681"/>
      <point x="210" y="1476"/>
      <point x="164" y="1182" type="curve"/>
      <point x="339" y="1119" type="line"/>
      <point x="360" y="1336"/>
      <point x="521" y="1493"/>
      <point x="718" y="1493" type="curve" smooth="yes"/>
      <point x="918" y="1493"/>
      <point x="1078" y="1331"/>
      <point x="1078" y="1130" type="curve" smooth="yes"/>
      <point x="1078" y="903"/>
      <point x="863" y="670"/>
      <point x="131" y="100" type="curve"/>
      <point x="131" y="0" type="line"/>
    </contour>
  </outline>
</glyph>
<glyph name="three" format="2">
  <advance width="1500"/>
  <unicode hex="0033"/>
  <outline>
    <contour>
      <point x="725" y="-32" type="curve" smooth="yes"/>
      <point x="1051" y="-32"/>
      <point x="1259" y="174"/>
      <point x="1259" y="451" type="curve" smooth="yes"/>
      <point x="1259" y="652"/>
      <point x="1147" y="801"/>
      <point x="993" y="860" type="curve"/>
      <point x="1132" y="925"/>
      <point x="1223" y="1066"/>
      <point x="1223" y="1228" type="curve" smooth="yes"/>
      <point x="1223" y="1483"/>
      <point x="1016" y="1680"/>
      <point x="742" y="1680" type="curve" smooth="yes"/>
      <point x="502" y="1680"/>
      <point x="311" y="1523"/>
      <point x="274" y="1289" type="curve"/>
      <point x="430" y="1228" type="line"/>
      <point x="445" y="1388"/>
      <point x="578" y="1510"/>
      <point x="739" y="1510" type="curve" smooth="yes"/>
      <point x="901" y="1510"/>
      <point x="1033" y="1386"/>
      <point x="1033" y="1224" type="curve" smooth="yes"/>
      <point x="1033" y="1061"/>
      <point x="898" y="920"/>
      <point x="725" y="920" type="curve" smooth="yes"/>
      <point x="664" y="920" type="line"/>
      <point x="664" y="775" type="line"/>
      <point x="682" y="781"/>
      <point x="705" y="784"/>
      <point x="730" y="784" type="curve" smooth="yes"/>
      <point x="907" y="784"/>
      <point x="1051" y="637"/>
      <point x="1051" y="449" type="curve" smooth="yes"/>
      <point x="1051" y="271"/>
      <point x="924" y="151"/>
      <point x="725" y="151" type="curve" smooth="yes"/>
      <point x="528" y="151"/>
      <point x="387" y="267"/>
      <point x="373" y="441" type="curve"/>
      <point x="193" y="390" type="line"/>
      <point x="222" y="136"/>
      <point x="433" y="-32"/>
    </contour>
  </outline>
</glyph>
<glyph name="four" format="2">
  <advance width="1500"/>
  <unicode hex="0034"/>
  <outline>
    <contour>
      <point x="1129" y="0" type="line"/>
      <point x="1129" y="313" type="line"/>
      <point x="1321" y="313" type="line"/>
      <point x="1321" y="492" type="line"/>
      <point x="1129" y="492" type="line"/>
      <point x="1129" y="1650" type="line"/>
      <point x="926" y="1650" type="line"/>
      <point x="109" y="391" type="line"/>
      <point x="109" y="313" type="line"/>
      <point x="936" y="313" type="line"/>
      <point x="936" y="0" type="line"/>
    </contour>
    <contour>
      <point x="936" y="1371" type="line"/>
      <point x="936" y="492" type="line"/>
      <point x="381" y="492" type="line"/>
    </contour>
  </outline>
</glyph>
<glyph name="five" format="2">
  <advance width="1500"/>
  <unicode hex="0035"/>
  <outline>
    <contour>
      <point x="371" y="1650" type="line"/>
      <point x="235" y="773" type="line"/>
      <point x="349" y="880"/>
      <point x="486" y="938"/>
      <point x="639" y="938" type="curve" smooth="yes"/>
      <point x="918" y="938"/>
      <point x="1118" y="777"/>
      <point x="1118" y="517" type="curve" smooth="yes"/>
      <point x="1118" y="288"/>
      <point x="962" y="139"/>
      <point x="724" y="139" type="curve" smooth="yes"/>
      <point x="525" y="139"/>
      <point x="365" y="243"/>
      <point x="307" y="406" type="curve"/>
      <point x="145" y="327" type="line"/>
      <point x="229" y="101"/>
      <point x="459" y="-32"/>
      <point x="725" y="-32" type="curve" smooth="yes"/>
      <point x="1050" y="-32"/>
      <point x="1319" y="164"/>
      <point x="1319" y="527" type="curve" smooth="yes"/>
      <point x="1319" y="866"/>
      <point x="1084" y="1089"/>
      <point x="753" y="1089" type="curve" smooth="yes"/>
      <point x="630" y="1089"/>
      <point x="523" y="1053"/>
      <point x="434" y="978" type="curve"/>
      <point x="466" y="970" type="line"/>
      <point x="544" y="1471" type="line"/>
      <point x="1213" y="1471" type="line"/>
      <point x="1213" y="1650" type="line"/>
    </contour>
  </outline>
</glyph>
<glyph name="six" format="2">
  <advance width="1500"/>
  <unicode hex="0036"/>
  <outline>
    <contour>
      <point x="758" y="-32" type="curve" smooth="yes"/>
      <point x="1103" y="-32"/>
      <point x="1346" y="201"/>
      <point x="1346" y="534" type="curve" smooth="yes"/>
      <point x="1346" y="866"/>
      <point x="1108" y="1101"/>
      <point x="812" y="1101" type="curve" smooth="yes"/>
      <point x="738" y="1101"/>
      <point x="672" y="1084"/>
      <point x="611" y="1052" type="curve"/>
      <point x="1113" y="1650" type="line"/>
      <point x="865" y="1650" type="line"/>
      <point x="356" y="1040" type="line" smooth="yes"/>
      <point x="230" y="889"/>
      <point x="155" y="705"/>
      <point x="155" y="534" type="curve" smooth="yes"/>
      <point x="155" y="233"/>
      <point x="389" y="-32"/>
    </contour>
    <contour>
      <point x="750" y="140" type="curve" smooth="yes"/>
      <point x="516" y="140"/>
      <point x="364" y="314"/>
      <point x="364" y="524" type="curve" smooth="yes"/>
      <point x="364" y="749"/>
      <point x="540" y="925"/>
      <point x="759" y="925" type="curve" smooth="yes"/>
      <point x="973" y="925"/>
      <point x="1144" y="757"/>
      <point x="1144" y="529" type="curve" smooth="yes"/>
      <point x="1144" y="304"/>
      <point x="977" y="140"/>
    </contour>
  </outline>
</glyph>
<glyph name="seven" format="2">
  <advance width="1500"/>
  <unicode hex="0037"/>
  <outline>
    <contour>
      <point x="447" y="0" type="line"/>
      <point x="1319" y="1585" type="line"/>
      <point x="1319" y="1650" type="line"/>
      <point x="229" y="1650" type="line"/>
      <point x="229" y="1471" type="line"/>
      <point x="1019" y="1471" type="line"/>
      <point x="206" y="0" type="line"/>
    </contour>
  </outline>
</glyph>
<glyph name="eight" format="2">
  <advance width="1500"/>
  <unicode hex="0038"/>
  <outline>
    <contour>
      <point x="749" y="-32" type="curve" smooth="yes"/>
      <point x="1060" y="-32"/>
      <point x="1295" y="172"/>
      <point x="1295" y="444" type="curve" smooth="yes"/>
      <point x="1295" y="641"/>
      <point x="1175" y="808"/>
      <point x="990" y="880" type="curve"/>
      <point x="1136" y="950"/>
      <point x="1230" y="1093" name=".hr01"/>
      <point x="1230" y="1257" type="curve" smooth="yes"/>
      <point x="1230" y="1512"/>
      <point x="999" y="1680"/>
      <point x="749" y="1680" type="curve" smooth="yes"/>
      <point x="479" y="1680"/>
      <point x="268" y="1497"/>
      <point x="268" y="1256" type="curve" smooth="yes"/>
      <point x="268" y="1096"/>
      <point x="360" y="951"/>
      <point x="509" y="880" type="curve"/>
      <point x="325" y="809"/>
      <point x="204" y="642" name=".hr02"/>
      <point x="204" y="445" type="curve" smooth="yes"/>
      <point x="204" y="171"/>
      <point x="439" y="-32"/>
    </contour>
    <contour>
      <point x="749" y="146" type="curve" smooth="yes"/>
      <point x="558" y="146"/>
      <point x="425" y="283"/>
      <point x="425" y="464" type="curve" smooth="yes"/>
      <point x="425" y="650"/>
      <point x="565" y="783"/>
      <point x="749" y="783" type="curve" smooth="yes"/>
      <point x="936" y="783"/>
      <point x="1074" y="648"/>
      <point x="1074" y="464" type="curve" smooth="yes"/>
      <point x="1074" y="283"/>
      <point x="941" y="146"/>
    </contour>
    <contour>
      <point x="749" y="958" type="curve" smooth="yes"/>
      <point x="586" y="958"/>
      <point x="466" y="1078"/>
      <point x="466" y="1239" type="curve" smooth="yes"/>
      <point x="466" y="1400" name=".hr03"/>
      <point x="587" y="1522"/>
      <point x="749" y="1522" type="curve" smooth="yes"/>
      <point x="911" y="1522"/>
      <point x="1033" y="1400"/>
      <point x="1033" y="1239" type="curve" smooth="yes"/>
      <point x="1033" y="1078"/>
      <point x="912" y="958"/>
    </contour>
  </outline>
</glyph>
<glyph name="nine" format="2">
  <advance width="1500"/>
  <unicode hex="0039"/>
  <outline>
    <contour>
      <point x="632" y="0" type="line"/>
      <point x="1141" y="610" type="line" smooth="yes"/>
      <point x="1272" y="768"/>
      <point x="1342" y="941"/>
      <point x="1342" y="1105" type="curve" smooth="yes"/>
      <point x="1342" y="1431"/>
      <point x="1096" y="1680"/>
      <point x="738" y="1680" type="curve" smooth="yes"/>
      <point x="383" y="1680"/>
      <point x="151" y="1436"/>
      <point x="151" y="1118" type="curve" smooth="yes"/>
      <point x="151" y="787"/>
      <point x="403" y="548"/>
      <point x="697" y="548" type="curve" smooth="yes"/>
      <point x="770" y="548"/>
      <point x="841" y="569"/>
      <point x="896" y="607" type="curve"/>
      <point x="384" y="0" type="line"/>
    </contour>
    <contour>
      <point x="747" y="728" type="curve" smooth="yes"/>
      <point x="525" y="728"/>
      <point x="357" y="897"/>
      <point x="357" y="1121" type="curve" smooth="yes"/>
      <point x="357" y="1342"/>
      <point x="522" y="1505"/>
      <point x="747" y="1505" type="curve" smooth="yes"/>
      <point x="969" y="1505"/>
      <point x="1130" y="1344"/>
      <point x="1130" y="1121" type="curve" smooth="yes"/>
      <point x="1130" y="904"/>
      <point x="958" y="728"/>
    </contour>
  </outline>
</glyph>
<glyph name="less" format="2">
  <advance width="1481"/>
  <unicode hex="003C"/>
  <outline>
    <contour>
      <point x="1265" y="430" type="line"/>
      <point x="379" y="832" type="line"/>
      <point x="1265" y="1234" type="line"/>
      <point x="1265" y="1394" type="line"/>
      <point x="172" y="896" type="line"/>
      <point x="172" y="768" type="line"/>
      <point x="1265" y="270" type="line"/>
    </contour>
  </outline>
</glyph>
<glyph name="equal" format="2">
  <advance width="1639"/>
  <unicode hex="003D"/>
  <outline>
    <contour>
      <point x="1332" y="956" type="line"/>
      <point x="1332" y="1124" type="line"/>
      <point x="307" y="1124" type="line"/>
      <point x="307" y="956" type="line"/>
    </contour>
    <contour>
      <point x="1332" y="536" type="line"/>
      <point x="1332" y="704" type="line"/>
      <point x="307" y="704" type="line"/>
      <point x="307" y="536" type="line"/>
    </contour>
  </outline>
</glyph>
<glyph name="greater" format="2">
  <advance width="1481"/>
  <unicode hex="003E"/>
  <outline>
    <contour>
      <point x="1309" y="768" type="line"/>
      <point x="1309" y="896" type="line"/>
      <point x="216" y="1394" type="line"/>
      <point x="216" y="1234" type="line"/>
      <point x="1102" y="832" type="line"/>
      <point x="216" y="430" type="line"/>
      <point x="216" y="270" type="line"/>
    </contour>
  </outline>
</glyph>
<glyph name="question" format="2">
  <advance width="1298"/>
  <unicode hex="003F"/>
  <outline>
    <component base="period" xOffset="213"/>
    <contour>
      <point x="693" y="449" type="line"/>
      <point x="693" y="695" type="line"/>
      <point x="961" y="716"/>
      <point x="1150" y="927"/>
      <point x="1150" y="1185" type="curve" smooth="yes"/>
      <point x="1150" y="1460"/>
      <point x="932" y="1680"/>
      <point x="627" y="1680" type="curve" smooth="yes"/>
      <point x="377" y="1680"/>
      <point x="169" y="1531"/>
      <point x="126" y="1267" type="curve"/>
      <point x="290" y="1230" type="line"/>
      <point x="316" y="1402"/>
      <point x="442" y="1505"/>
      <point x="627" y="1505" type="curve" smooth="yes"/>
      <point x="830" y="1505"/>
      <point x="966" y="1385"/>
      <point x="966" y="1186" type="curve" smooth="yes"/>
      <point x="966" y="977"/>
      <point x="818" y="859"/>
      <point x="604" y="859" type="curve" smooth="yes"/>
      <point x="568" y="859"/>
      <point x="540" y="862"/>
      <point x="513" y="868" type="curve"/>
      <point x="513" y="449" type="line"/>
    </contour>
  </outline>
</glyph>
<glyph name="at" format="2">
  <advance width="2084"/>
  <unicode hex="0040"/>
  <outline>
    <contour>
      <point x="1057" y="-413" type="curve" smooth="yes"/>
      <point x="1350" y="-413"/>
      <point x="1567" y="-282"/>
      <point x="1685" y="-119" type="curve"/>
      <point x="1550" y="-33" type="line"/>
      <point x="1457" y="-151"/>
      <point x="1288" y="-253"/>
      <point x="1059" y="-253" type="curve" smooth="yes"/>
      <point x="654" y="-253"/>
      <point x="362" y="58"/>
      <point x="362" y="443" type="curve" smooth="yes"/>
      <point x="362" y="833"/>
      <point x="657" y="1152"/>
      <point x="1070" y="1152" type="curve" smooth="yes"/>
      <point x="1410" y="1152"/>
      <point x="1767" y="934"/>
      <point x="1767" y="473" type="curve" smooth="yes"/>
      <point x="1767" y="285"/>
      <point x="1707" y="183"/>
      <point x="1619" y="183" type="curve" smooth="yes"/>
      <point x="1536" y="183"/>
      <point x="1496" y="248"/>
      <point x="1496" y="339" type="curve" smooth="yes"/>
      <point x="1496" y="871" type="line"/>
      <point x="1364" y="871" type="line"/>
      <point x="1364" y="697" type="line"/>
      <point x="1295" y="820"/>
      <point x="1164" y="898"/>
      <point x="1010" y="898" type="curve" smooth="yes"/>
      <point x="755" y="898"/>
      <point x="566" y="699"/>
      <point x="566" y="429" type="curve" smooth="yes"/>
      <point x="566" y="156"/>
      <point x="757" y="-40"/>
      <point x="1007" y="-40" type="curve" smooth="yes"/>
      <point x="1172" y="-40"/>
      <point x="1302" y="47"/>
      <point x="1371" y="177" type="curve"/>
      <point x="1416" y="110"/>
      <point x="1497" y="59"/>
      <point x="1598" y="59" type="curve" smooth="yes"/>
      <point x="1781" y="59"/>
      <point x="1900" y="238"/>
      <point x="1900" y="488" type="curve" smooth="yes"/>
      <point x="1900" y="1003"/>
      <point x="1499" y="1299"/>
      <point x="1062" y="1299" type="curve" smooth="yes"/>
      <point x="579" y="1299"/>
      <point x="195" y="934"/>
      <point x="195" y="440" type="curve" smooth="yes"/>
      <point x="195" y="-46"/>
      <point x="568" y="-413"/>
    </contour>
    <contour>
      <point x="1039" y="87" type="curve" smooth="yes"/>
      <point x="851" y="87"/>
      <point x="713" y="228"/>
      <point x="713" y="429" type="curve" smooth="yes"/>
      <point x="713" y="633"/>
      <point x="854" y="775"/>
      <point x="1040" y="775" type="curve" smooth="yes"/>
      <point x="1227" y="775"/>
      <point x="1367" y="633"/>
      <point x="1367" y="429" type="curve" smooth="yes"/>
      <point x="1367" y="229"/>
      <point x="1230" y="87"/>
    </contour>
  </outline>
</glyph>
<glyph name="A" format="2">
  <advance width="1659"/>
  <unicode hex="0041"/>
  <anchor x="829" y="0" name="bottom"/>
  <anchor x="1578" y="0" name="ogonek"/>
  <anchor x="829" y="1650" name="top"/>
  <outline>
    <contour>
      <point x="301" y="0" type="line"/>
      <point x="484" y="480" type="line"/>
      <point x="1175" y="480" type="line"/>
      <point x="1358" y="0" type="line"/>
      <point x="1578" y="0" type="line"/>
      <point x="924" y="1650" type="line"/>
      <point x="735" y="1650" type="line"/>
      <point x="81" y="0" type="line"/>
    </contour>
    <contour>
      <point x="829" y="1378" type="line"/>
      <point x="1105" y="660" type="line"/>
      <point x="554" y="660" type="line"/>
    </contour>
  </outline>
</glyph>
<glyph name="B" format="2">
  <advance width="1305"/>
  <unicode hex="0042"/>
  <anchor x="653" y="0" name="bottom"/>
  <anchor x="653" y="1650" name="top"/>
  <outline>
    <contour>
      <point x="699" y="0" type="line" smooth="yes"/>
      <point x="1024" y="0"/>
      <point x="1222" y="167"/>
      <point x="1222" y="448" type="curve" smooth="yes"/>
      <point x="1222" y="681"/>
      <point x="1086" y="829"/>
      <point x="845" y="864" type="curve"/>
      <point x="996" y="931"/>
      <point x="1075" y="1058"/>
      <point x="1075" y="1234" type="curve" smooth="yes"/>
      <point x="1075" y="1505"/>
      <point x="887" y="1650"/>
      <point x="567" y="1650" type="curve" smooth="yes"/>
      <point x="180" y="1650" type="line"/>
      <point x="180" y="0" type="line"/>
    </contour>
    <contour>
      <point x="384" y="1490" type="line"/>
      <point x="526" y="1490" type="line" smooth="yes"/>
      <point x="755" y="1490"/>
      <point x="879" y="1392"/>
      <point x="879" y="1211" type="curve" smooth="yes"/>
      <point x="879" y="1031"/>
      <point x="753" y="931"/>
      <point x="526" y="931" type="curve" smooth="yes"/>
      <point x="384" y="931" type="line"/>
    </contour>
    <contour>
      <point x="384" y="752" type="line"/>
      <point x="638" y="752" type="line" smooth="yes"/>
      <point x="874" y="752"/>
      <point x="1011" y="643"/>
      <point x="1011" y="454" type="curve" smooth="yes"/>
      <point x="1011" y="266"/>
      <point x="878" y="162"/>
      <point x="638" y="162" type="curve" smooth="yes"/>
      <point x="384" y="162" type="line"/>
    </contour>
  </outline>
</glyph>
<glyph name="C" format="2">
  <advance width="1584"/>
  <unicode hex="0043"/>
  <anchor x="902" y="0" name="bottom"/>
  <anchor x="902" y="1650" name="top"/>
  <outline>
    <contour>
      <point x="113" y="824" type="curve" smooth="yes"/>
      <point x="113" y="342"/>
      <point x="480" y="-32"/>
      <point x="983" y="-32" type="curve" smooth="yes"/>
      <point x="1188" y="-32"/>
      <point x="1376" y="31"/>
      <point x="1512" y="134" type="curve"/>
      <point x="1410" y="300" type="line"/>
      <point x="1302" y="215"/>
      <point x="1154" y="169"/>
      <point x="996" y="169" type="curve" smooth="yes"/>
      <point x="598" y="169"/>
      <point x="335" y="455"/>
      <point x="335" y="824" type="curve" smooth="yes"/>
      <point x="335" y="1193"/>
      <point x="598" y="1479"/>
      <point x="996" y="1479" type="curve" smooth="yes"/>
      <point x="1154" y="1479"/>
      <point x="1302" y="1433"/>
      <point x="1410" y="1348" type="curve"/>
      <point x="1512" y="1514" type="line"/>
      <point x="1376" y="1617"/>
      <point x="1188" y="1680"/>
      <point x="983" y="1680" type="curve" smooth="yes"/>
      <point x="480" y="1680"/>
      <point x="113" y="1306"/>
    </contour>
  </outline>
</glyph>
<glyph name="D" format="2">
  <advance width="1630"/>
  <unicode hex="0044"/>
  <anchor x="815" y="0" name="bottom"/>
  <anchor x="815" y="825" name="center"/>
  <anchor x="815" y="1650" name="top"/>
  <outline>
    <contour>
      <point x="652" y="0" type="line" smooth="yes"/>
      <point x="1122" y="0"/>
      <point x="1484" y="360"/>
      <point x="1484" y="825" type="curve" smooth="yes"/>
      <point x="1484" y="1290"/>
      <point x="1121" y="1650"/>
      <point x="652" y="1650" type="curve" smooth="yes"/>
      <point x="256" y="1650" type="line"/>
      <point x="256" y="0" type="line"/>
    </contour>
    <contour>
      <point x="460" y="1467" type="line"/>
      <point x="632" y="1467" type="line" smooth="yes"/>
      <point x="992" y="1467"/>
      <point x="1267" y="1190"/>
      <point x="1267" y="825" type="curve" smooth="yes"/>
      <point x="1267" y="460"/>
      <point x="992" y="183"/>
      <point x="632" y="183" type="curve" smooth="yes"/>
      <point x="460" y="183" type="line"/>
    </contour>
  </outline>
</glyph>
<glyph name="E" format="2">
  <advance width="1287"/>
  <unicode hex="0045"/>
  <anchor x="692" y="0" name="bottom"/>
  <anchor x="1114" y="0" name="ogonek"/>
  <anchor x="692" y="1650" name="top"/>
  <outline>
    <contour>
      <point x="1114" y="0" type="line"/>
      <point x="1114" y="180" type="line"/>
      <point x="460" y="180" type="line"/>
      <point x="460" y="737" type="line"/>
      <point x="1090" y="737" type="line"/>
      <point x="1090" y="917" type="line"/>
      <point x="460" y="917" type="line"/>
      <point x="460" y="1470" type="line"/>
      <point x="1114" y="1470" type="line"/>
      <point x="1114" y="1650" type="line"/>
      <point x="256" y="1650" type="line"/>
      <point x="256" y="0" type="line"/>
    </contour>
  </outline>
</glyph>
<glyph name="F" format="2">
  <advance width="1247"/>
  <unicode hex="0046"/>
  <anchor x="624" y="0" name="bottom"/>
  <anchor x="624" y="1650" name="top"/>
  <outline>
    <contour>
      <point x="256" y="1650" type="line"/>
      <point x="256" y="0" type="line"/>
      <point x="460" y="0" type="line"/>
      <point x="460" y="736" type="line"/>
      <point x="1073" y="736" type="line"/>
      <point x="1073" y="916" type="line"/>
      <point x="460" y="916" type="line"/>
      <point x="460" y="1470" type="line"/>
      <point x="1119" y="1470" type="line"/>
      <point x="1119" y="1650" type="line"/>
    </contour>
  </outline>
</glyph>
<glyph name="G" format="2">
  <advance width="1857"/>
  <unicode hex="0047"/>
  <anchor x="950" y="0" name="bottom"/>
  <anchor x="950" y="1650" name="top"/>
  <outline>
    <contour>
      <point x="969" y="-32" type="curve" smooth="yes"/>
      <point x="1332" y="-32"/>
      <point x="1718" y="198"/>
      <point x="1718" y="689" type="curve" smooth="yes"/>
      <point x="1718" y="842" type="line"/>
      <point x="955" y="842" type="line"/>
      <point x="955" y="680" type="line"/>
      <point x="1510" y="680" type="line"/>
      <point x="1510" y="633" type="line" smooth="yes"/>
      <point x="1510" y="343"/>
      <point x="1243" y="155"/>
      <point x="972" y="155" type="curve" smooth="yes"/>
      <point x="627" y="155"/>
      <point x="370" y="456"/>
      <point x="370" y="824" type="curve" smooth="yes"/>
      <point x="370" y="1171"/>
      <point x="594" y="1496"/>
      <point x="986" y="1496" type="curve" smooth="yes"/>
      <point x="1183" y="1496"/>
      <point x="1355" y="1413"/>
      <point x="1461" y="1288" type="curve"/>
      <point x="1590" y="1407" type="line"/>
      <point x="1442" y="1570"/>
      <point x="1241" y="1680"/>
      <point x="976" y="1680" type="curve" smooth="yes"/>
      <point x="464" y="1680"/>
      <point x="151" y="1269"/>
      <point x="151" y="823" type="curve" smooth="yes"/>
      <point x="151" y="350"/>
      <point x="501" y="-32"/>
    </contour>
  </outline>
</glyph>
<glyph name="H" format="2">
  <advance width="1734"/>
  <unicode hex="0048"/>
  <anchor x="867" y="0" name="bottom"/>
  <anchor x="867" y="825" name="center"/>
  <anchor x="867" y="1650" name="top"/>
  <outline>
    <contour>
      <point x="460" y="0" type="line"/>
      <point x="460" y="737" type="line"/>
      <point x="1274" y="737" type="line"/>
      <point x="1274" y="0" type="line"/>
      <point x="1478" y="0" type="line"/>
      <point x="1478" y="1650" type="line"/>
      <point x="1274" y="1650" type="line"/>
      <point x="1274" y="917" type="line"/>
      <point x="460" y="917" type="line"/>
      <point x="460" y="1650" type="line"/>
      <point x="256" y="1650" type="line"/>
      <point x="256" y="0" type="line"/>
    </contour>
  </outline>
</glyph>
<glyph name="J" format="2">
  <advance width="1239"/>
  <unicode hex="004A"/>
  <anchor x="515" y="-12" name="bottom"/>
  <anchor x="668" y="1650" name="top"/>
  <outline>
    <contour>
      <point x="508" y="-32" type="curve" smooth="yes"/>
      <point x="817" y="-32"/>
      <point x="1001" y="151"/>
      <point x="1001" y="464" type="curve" smooth="yes"/>
      <point x="1001" y="1650" type="line"/>
      <point x="797" y="1650" type="line"/>
      <point x="797" y="521" type="line" smooth="yes"/>
      <point x="797" y="295"/>
      <point x="681" y="163"/>
      <point x="482" y="163" type="curve" smooth="yes"/>
      <point x="380" y="163"/>
      <point x="288" y="201"/>
      <point x="207" y="285" type="curve"/>
      <point x="94" y="154" type="line"/>
      <point x="214" y="25"/>
      <point x="342" y="-32"/>
    </contour>
  </outline>
</glyph>
<glyph name="K" format="2">
  <advance width="1549"/>
  <unicode hex="004B"/>
  <anchor x="781" y="0" name="bottom"/>
  <anchor x="782" y="1650" name="top"/>
  <outline>
    <contour>
      <point x="460" y="0" type="line"/>
      <point x="460" y="733" type="line"/>
      <point x="1217" y="0" type="line"/>
      <point x="1501" y="0" type="line"/>
      <point x="641" y="840" type="line"/>
      <point x="1413" y="1650" type="line"/>
      <point x="1159" y="1650" type="line"/>
      <point x="460" y="915" type="line"/>
      <point x="460" y="1650" type="line"/>
      <point x="256" y="1650" type="line"/>
      <point x="256" y="0" type="line"/>
    </contour>
  </outline>
</glyph>
<glyph name="L" format="2">
  <advance width="1211"/>
  <unicode hex="004C"/>
  <anchor x="661" y="0" name="bottom"/>
  <anchor x="606" y="825" name="center"/>
  <anchor x="602" y="1650" name="top"/>
  <anchor x="1191" y="1650" name="topright"/>
  <outline>
    <contour>
      <point x="1122" y="0" type="line"/>
      <point x="1122" y="180" type="line"/>
      <point x="460" y="180" type="line"/>
      <point x="460" y="1650" type="line"/>
      <point x="256" y="1650" type="line"/>
      <point x="256" y="0" type="line"/>
    </contour>
  </outline>
</glyph>
<glyph name="M" format="2">
  <advance width="1990"/>
  <unicode hex="004D"/>
  <anchor x="995" y="82" name="bottom"/>
  <anchor x="995" y="1650" name="top"/>
  <outline>
    <contour>
      <point x="460" y="0" type="line"/>
      <point x="460" y="1203" type="line"/>
      <point x="927" y="82" type="line"/>
      <point x="1063" y="82" type="line"/>
      <point x="1530" y="1203" type="line"/>
      <point x="1530" y="0" type="line"/>
      <point x="1734" y="0" type="line"/>
      <point x="1734" y="1650" type="line"/>
      <point x="1503" y="1650" type="line"/>
      <point x="995" y="438" type="line"/>
      <point x="487" y="1650" type="line"/>
      <point x="256" y="1650" type="line"/>
      <point x="256" y="0" type="line"/>
    </contour>
  </outline>
</glyph>
<glyph name="N" format="2">
  <advance width="1752"/>
  <unicode hex="004E"/>
  <anchor x="876" y="0" name="bottom"/>
  <anchor x="876" y="1650" name="top"/>
  <outline>
    <contour>
      <point x="459" y="0" type="line"/>
      <point x="459" y="1305" type="line"/>
      <point x="1293" y="0" type="line"/>
      <point x="1497" y="0" type="line"/>
      <point x="1497" y="1650" type="line"/>
      <point x="1293" y="1650" type="line"/>
      <point x="1293" y="344" type="line"/>
      <point x="459" y="1650" type="line"/>
      <point x="255" y="1650" type="line"/>
      <point x="255" y="0" type="line"/>
    </contour>
  </outline>
</glyph>
<glyph name="O" format="2">
  <advance width="1960"/>
  <unicode hex="004F"/>
  <anchor x="980" y="0" name="bottom"/>
  <anchor x="980" y="824" name="center"/>
  <anchor x="1000" y="0" name="ogonek"/>
  <anchor x="980" y="1650" name="top"/>
  <anchor x="19" y="1650" name="topleft"/>
  <anchor x="1940" y="1650" name="topright"/>
  <outline>
    <contour>
      <point x="980" y="-32" type="curve" smooth="yes"/>
      <point x="1442" y="-32"/>
      <point x="1812" y="348"/>
      <point x="1812" y="824" type="curve" smooth="yes"/>
      <point x="1812" y="1300"/>
      <point x="1442" y="1680"/>
      <point x="980" y="1680" type="curve" smooth="yes"/>
      <point x="518" y="1680"/>
      <point x="148" y="1300"/>
      <point x="148" y="824" type="curve" smooth="yes"/>
      <point x="148" y="348"/>
      <point x="518" y="-32"/>
    </contour>
    <contour>
      <point x="980" y="165" type="curve" smooth="yes"/>
      <point x="633" y="165"/>
      <point x="368" y="451"/>
      <point x="368" y="824" type="curve" smooth="yes"/>
      <point x="368" y="1197"/>
      <point x="633" y="1483"/>
      <point x="980" y="1483" type="curve" smooth="yes"/>
      <point x="1327" y="1483"/>
      <point x="1592" y="1197"/>
      <point x="1592" y="824" type="curve" smooth="yes"/>
      <point x="1592" y="451"/>
      <point x="1327" y="165"/>
    </contour>
  </outline>
</glyph>
<glyph name="P" format="2">
  <advance width="1383"/>
  <unicode hex="0050"/>
  <outline>
    <contour>
      <point x="460" y="0" type="line"/>
      <point x="460" y="678" type="line"/>
      <point x="724" y="678" type="line" smooth="yes"/>
      <point x="1047" y="678"/>
      <point x="1259" y="862"/>
      <point x="1259" y="1164" type="curve" smooth="yes"/>
      <point x="1259" y="1466"/>
      <point x="1047" y="1650"/>
      <point x="724" y="1650" type="curve" smooth="yes"/>
      <point x="256" y="1650" type="line"/>
      <point x="256" y="0" type="line"/>
    </contour>
    <contour>
      <point x="460" y="1486" type="line"/>
      <point x="669" y="1486" type="line" smooth="yes"/>
      <point x="893" y="1486"/>
      <point x="1048" y="1371"/>
      <point x="1048" y="1164" type="curve" smooth="yes"/>
      <point x="1048" y="957"/>
      <point x="893" y="842"/>
      <point x="669" y="842" type="curve" smooth="yes"/>
      <point x="460" y="842" type="line"/>
    </contour>
  </outline>
</glyph>
<glyph name="Q" format="2">
  <advance width="1961"/>
  <unicode hex="0051"/>
  <outline>
    <component base="O" xOffset="-25" yOffset="-1"/>
    <contour>
      <point x="975" y="513" type="line"/>
      <point x="1173" y="280"/>
      <point x="1473" y="59"/>
      <point x="1755" y="-54" type="curve"/>
      <point x="1846" y="129" type="line"/>
      <point x="1560" y="223"/>
      <point x="1297" y="387"/>
      <point x="1084" y="599" type="curve"/>
    </contour>
  </outline>
</glyph>
<glyph name="R" format="2">
  <advance width="1432"/>
  <unicode hex="0052"/>
  <anchor x="716" y="0" name="bottom"/>
  <anchor x="716" y="1650" name="top"/>
  <outline>
    <contour>
      <point x="460" y="1486" type="line"/>
      <point x="669" y="1486" type="line" smooth="yes"/>
      <point x="907" y="1486"/>
      <point x="1048" y="1365"/>
      <point x="1048" y="1166" type="curve" smooth="yes"/>
      <point x="1048" y="967"/>
      <point x="907" y="846"/>
      <point x="669" y="846" type="curve" smooth="yes"/>
      <point x="460" y="846" type="line"/>
    </contour>
    <contour>
      <point x="460" y="0" type="line"/>
      <point x="460" y="673" type="line"/>
      <point x="614" y="673" type="line"/>
      <point x="1125" y="0" type="line"/>
      <point x="1384" y="0" type="line"/>
      <point x="840" y="691" type="line"/>
      <point x="1100" y="730"/>
      <point x="1259" y="904"/>
      <point x="1259" y="1166" type="curve" smooth="yes"/>
      <point x="1259" y="1465"/>
      <point x="1052" y="1650"/>
      <point x="724" y="1650" type="curve" smooth="yes"/>
      <point x="256" y="1650" type="line"/>
      <point x="256" y="0" type="line"/>
    </contour>
  </outline>
</glyph>
<glyph name="S" format="2">
  <advance width="1366"/>
  <unicode hex="0053"/>
  <anchor x="698" y="0" name="bottom"/>
  <anchor x="707" y="1668" name="top"/>
  <anchor x="730" y="0" name="cedilla"/>
  <outline>
    <contour>
      <point x="686" y="-32" type="curve" smooth="yes"/>
      <point x="986" y="-32"/>
      <point x="1223" y="141"/>
      <point x="1223" y="445" type="curve" smooth="yes"/>
      <point x="1223" y="693"/>
      <point x="1056" y="822"/>
      <point x="724" y="943" type="curve" smooth="yes"/>
      <point x="495" y="1026"/>
      <point x="401" y="1116"/>
      <point x="401" y="1239" type="curve" smooth="yes"/>
      <point x="401" y="1373"/>
      <point x="505" y="1494"/>
      <point x="689" y="1494" type="curve" smooth="yes"/>
      <point x="820" y="1494"/>
      <point x="931" y="1434"/>
      <point x="1001" y="1364" type="curve"/>
      <point x="1129" y="1477" type="line"/>
      <point x="1054" y="1579"/>
      <point x="891" y="1680"/>
      <point x="692" y="1680" type="curve" smooth="yes"/>
      <point x="401" y="1680"/>
      <point x="204" y="1480"/>
      <point x="204" y="1236" type="curve" smooth="yes"/>
      <point x="204" y="1037"/>
      <point x="335" y="892"/>
      <point x="620" y="786" type="curve" smooth="yes"/>
      <point x="907" y="680"/>
      <point x="1005" y="593"/>
      <point x="1005" y="439" type="curve" smooth="yes"/>
      <point x="1005" y="258"/>
      <point x="853" y="156"/>
      <point x="677" y="156" type="curve" smooth="yes"/>
      <point x="512" y="156"/>
      <point x="353" y="243"/>
      <point x="249" y="371" type="curve"/>
      <point x="108" y="269" type="line"/>
      <point x="204" y="100"/>
      <point x="430" y="-32"/>
    </contour>
  </outline>
</glyph>
<glyph name="T" format="2">
  <advance width="1338"/>
  <unicode hex="0054"/>
  <anchor x="669" y="0" name="bottom"/>
  <anchor x="669" y="1650" name="top"/>
  <outline>
    <contour>
      <point x="771" y="0" type="line"/>
      <point x="771" y="1467" type="line"/>
      <point x="1249" y="1467" type="line"/>
      <point x="1249" y="1650" type="line"/>
      <point x="89" y="1650" type="line"/>
      <point x="89" y="1467" type="line"/>
      <point x="567" y="1467" type="line"/>
      <point x="567" y="0" type="line"/>
    </contour>
  </outline>
</glyph>
<glyph name="U" format="2">
  <advance width="1637"/>
  <unicode hex="0055"/>
  <anchor x="818" y="0" name="bottom"/>
  <anchor x="890" y="0" name="ogonek"/>
  <anchor x="818" y="1650" name="top"/>
  <outline>
    <contour>
      <point x="818" y="-32" type="curve" smooth="yes"/>
      <point x="1209" y="-32"/>
      <point x="1407" y="177"/>
      <point x="1407" y="589" type="curve" smooth="yes"/>
      <point x="1407" y="1650" type="line"/>
      <point x="1203" y="1650" type="line"/>
      <point x="1203" y="640" type="line" smooth="yes"/>
      <point x="1203" y="319"/>
      <point x="1079" y="169"/>
      <point x="818" y="169" type="curve" smooth="yes"/>
      <point x="558" y="169"/>
      <point x="434" y="319"/>
      <point x="434" y="640" type="curve" smooth="yes"/>
      <point x="434" y="1650" type="line"/>
      <point x="230" y="1650" type="line"/>
      <point x="230" y="589" type="line" smooth="yes"/>
      <point x="230" y="177"/>
      <point x="428" y="-32"/>
    </contour>
  </outline>
</glyph>
<glyph name="V" format="2">
  <advance width="1703"/>
  <unicode hex="0056"/>
  <anchor x="852" y="0" name="bottom"/>
  <anchor x="852" y="1650" name="top"/>
  <outline>
    <contour>
      <point x="932" y="0" type="line"/>
      <point x="1624" y="1650" type="line"/>
      <point x="1393" y="1650" type="line"/>
      <point x="852" y="307" type="line"/>
      <point x="310" y="1650" type="line"/>
      <point x="80" y="1650" type="line"/>
      <point x="772" y="0" type="line"/>
    </contour>
  </outline>
</glyph>
<glyph name="W" format="2">
  <advance width="2455"/>
  <unicode hex="0057"/>
  <anchor x="1227" y="0" name="bottom"/>
  <anchor x="1227" y="1650" name="top"/>
  <outline>
    <contour>
      <point x="810" y="0" type="line"/>
      <point x="1227" y="1253" type="line"/>
      <point x="1644" y="0" type="line"/>
      <point x="1872" y="0" type="line"/>
      <point x="2358" y="1650" type="line"/>
      <point x="2131" y="1650" type="line"/>
      <point x="1749" y="272" type="line"/>
      <point x="1305" y="1650" type="line"/>
      <point x="1149" y="1650" type="line"/>
      <point x="705" y="272" type="line"/>
      <point x="323" y="1650" type="line"/>
      <point x="96" y="1650" type="line"/>
      <point x="582" y="0" type="line"/>
    </contour>
  </outline>
</glyph>
<glyph name="X" format="2">
  <advance width="1657"/>
  <unicode hex="0058"/>
  <outline>
    <contour>
      <point x="327" y="0" type="line"/>
      <point x="828" y="713" type="line"/>
      <point x="1329" y="0" type="line"/>
      <point x="1583" y="0" type="line"/>
      <point x="955" y="890" type="line"/>
      <point x="1485" y="1650" type="line"/>
      <point x="1240" y="1650" type="line"/>
      <point x="828" y="1061" type="line"/>
      <point x="416" y="1650" type="line"/>
      <point x="171" y="1650" type="line"/>
      <point x="701" y="890" type="line"/>
      <point x="73" y="0" type="line"/>
    </contour>
  </outline>
</glyph>
<glyph name="Y" format="2">
  <advance width="1490"/>
  <unicode hex="0059"/>
  <anchor x="745" y="0" name="bottom"/>
  <anchor x="745" y="1650" name="top"/>
  <outline>
    <contour>
      <point x="847" y="0" type="line"/>
      <point x="847" y="721" type="line"/>
      <point x="1424" y="1650" type="line"/>
      <point x="1178" y="1650" type="line"/>
      <point x="745" y="934" type="line"/>
      <point x="312" y="1650" type="line"/>
      <point x="66" y="1650" type="line"/>
      <point x="643" y="721" type="line"/>
      <point x="643" y="0" type="line"/>
    </contour>
  </outline>
</glyph>
<glyph name="Z" format="2">
  <advance width="1573"/>
  <unicode hex="005A"/>
  <anchor x="787" y="0" name="bottom"/>
  <anchor x="787" y="825" name="center"/>
  <anchor x="787" y="1650" name="top"/>
  <outline>
    <contour>
      <point x="1417" y="0" type="line"/>
      <point x="1417" y="182" type="line"/>
      <point x="454" y="182" type="line"/>
      <point x="1471" y="1650" type="line"/>
      <point x="204" y="1650" type="line"/>
      <point x="204" y="1468" type="line"/>
      <point x="1107" y="1468" type="line"/>
      <point x="90" y="0" type="line"/>
    </contour>
  </outline>
</glyph>
<glyph name="bracketleft" format="2">
  <advance width="806"/>
  <unicode hex="005B"/>
  <outline>
    <contour>
      <point x="718" y="-520" type="line"/>
      <point x="718" y="-382" type="line"/>
      <point x="417" y="-382" type="line"/>
      <point x="417" y="1582" type="line"/>
      <point x="718" y="1582" type="line"/>
      <point x="718" y="1720" type="line"/>
      <point x="246" y="1720" type="line"/>
      <point x="246" y="-520" type="line"/>
    </contour>
  </outline>
</glyph>
<glyph name="backslash" format="2">
  <advance width="1033"/>
  <unicode hex="005C"/>
  <outline>
    <contour>
      <point x="1010" y="0" type="line"/>
      <point x="186" y="1720" type="line"/>
      <point x="23" y="1720" type="line"/>
      <point x="847" y="0" type="line"/>
    </contour>
  </outline>
</glyph>
<glyph name="asciicircum" format="2">
  <advance width="1240"/>
  <unicode hex="005E"/>
  <outline>
    <contour>
      <point x="330" y="1210" type="line"/>
      <point x="620" y="1545" type="line"/>
      <point x="910" y="1210" type="line"/>
      <point x="1084" y="1210" type="line"/>
      <point x="670" y="1681" type="line"/>
      <point x="570" y="1681" type="line"/>
      <point x="156" y="1210" type="line"/>
    </contour>
  </outline>
</glyph>
<glyph name="underscore" format="2">
  <advance width="1436"/>
  <unicode hex="005F"/>
  <outline>
    <contour>
      <point x="1231" y="-201" type="line"/>
      <point x="1231" y="-101" type="line"/>
      <point x="205" y="-101" type="line"/>
      <point x="205" y="-201" type="line"/>
    </contour>
  </outline>
</glyph>
<glyph name="a" format="2">
  <advance width="1211"/>
  <unicode hex="0061"/>
  <anchor x="599" y="0" name="bottom"/>
  <anchor x="1083" y="10" name="ogonek"/>
  <anchor x="599" y="1025" name="top"/>
  <outline>
    <contour>
      <point x="511" y="-32" type="curve" smooth="yes"/>
      <point x="639" y="-32"/>
      <point x="755" y="11"/>
      <point x="836" y="86" type="curve"/>
      <point x="836" y="0" type="line" name=".hr01"/>
      <point x="1030" y="0" type="line"/>
      <point x="1030" y="616" type="line" smooth="yes"/>
      <point x="1030" y="884"/>
      <point x="844" y="1056"/>
      <point x="556" y="1056" type="curve" smooth="yes"/>
      <point x="401" y="1056"/>
      <point x="275" y="1006"/>
      <point x="179" y="921" type="curve"/>
      <point x="275" y="811" type="line"/>
      <point x="351" y="869"/>
      <point x="447" y="899"/>
      <point x="540" y="899" type="curve" smooth="yes"/>
      <point x="721" y="899"/>
      <point x="836" y="786"/>
      <point x="836" y="611" type="curve" smooth="yes"/>
      <point x="836" y="500" type="line"/>
      <point x="760" y="574"/>
      <point x="636" y="619"/>
      <point x="507" y="619" type="curve" smooth="yes"/>
      <point x="275" y="619"/>
      <point x="114" y="481"/>
      <point x="114" y="291" type="curve" smooth="yes"/>
      <point x="114" y="101"/>
      <point x="277" y="-32" name=".hr02"/>
    </contour>
    <contour>
      <point x="575" y="95" type="curve" smooth="yes"/>
      <point x="420" y="95"/>
      <point x="305" y="183"/>
      <point x="305" y="302" type="curve" smooth="yes"/>
      <point x="305" y="419"/>
      <point x="417" y="504"/>
      <point x="573" y="504" type="curve" smooth="yes"/>
      <point x="730" y="504"/>
      <point x="845" y="417"/>
      <point x="845" y="300" type="curve" smooth="yes"/>
      <point x="845" y="182"/>
      <point x="729" y="95"/>
    </contour>
  </outline>
</glyph>
<glyph name="b" format="2">
  <advance width="1442"/>
  <unicode hex="0062"/>
  <anchor x="721" y="0" name="bottom"/>
  <anchor x="721" y="1720" name="top"/>
  <outline>
    <contour>
      <point x="393" y="512" type="curve" smooth="yes"/>
      <point x="393" y="732"/>
      <point x="542" y="888"/>
      <point x="751" y="888" type="curve" smooth="yes"/>
      <point x="959" y="888"/>
      <point x="1110" y="731"/>
      <point x="1110" y="512" type="curve" smooth="yes"/>
      <point x="1110" y="293"/>
      <point x="959" y="136"/>
      <point x="751" y="136" type="curve" smooth="yes"/>
      <point x="542" y="136"/>
      <point x="393" y="293"/>
    </contour>
    <contour>
      <point x="206" y="1720" type="line"/>
      <point x="206" y="0" type="line"/>
      <point x="400" y="0" type="line" name=".hr01"/>
      <point x="400" y="192" type="line"/>
      <point x="489" y="50"/>
      <point x="634" y="-32"/>
      <point x="803" y="-32" type="curve" smooth="yes" name=".hr02"/>
      <point x="1097" y="-32"/>
      <point x="1312" y="201"/>
      <point x="1312" y="512" type="curve" smooth="yes"/>
      <point x="1312" y="823"/>
      <point x="1097" y="1056"/>
      <point x="803" y="1056" type="curve" smooth="yes"/>
      <point x="634" y="1056"/>
      <point x="489" y="974"/>
      <point x="400" y="832" type="curve"/>
      <point x="400" y="1720" type="line"/>
    </contour>
  </outline>
</glyph>
<glyph name="c" format="2">
  <advance width="1119"/>
  <unicode hex="0063"/>
  <anchor x="614" y="0" name="bottom"/>
  <anchor x="614" y="1024" name="top"/>
  <anchor x="646" y="0" name="cedilla"/>
  <outline>
    <contour>
      <point x="681" y="-32" type="curve" smooth="yes"/>
      <point x="815" y="-32"/>
      <point x="943" y="11"/>
      <point x="1027" y="77" type="curve"/>
      <point x="940" y="199" type="line"/>
      <point x="876" y="154"/>
      <point x="795" y="130"/>
      <point x="707" y="130" type="curve" smooth="yes"/>
      <point x="475" y="130"/>
      <point x="323" y="302"/>
      <point x="323" y="512" type="curve" smooth="yes"/>
      <point x="323" y="722"/>
      <point x="475" y="894"/>
      <point x="707" y="894" type="curve" smooth="yes"/>
      <point x="795" y="894"/>
      <point x="876" y="870"/>
      <point x="940" y="825" type="curve"/>
      <point x="1027" y="947" type="line"/>
      <point x="943" y="1013"/>
      <point x="815" y="1056"/>
      <point x="681" y="1056" type="curve" smooth="yes"/>
      <point x="363" y="1056"/>
      <point x="121" y="815"/>
      <point x="121" y="512" type="curve" smooth="yes"/>
      <point x="121" y="209"/>
      <point x="363" y="-32"/>
    </contour>
  </outline>
</glyph>
<glyph name="d" format="2">
  <advance width="1442"/>
  <unicode hex="0064"/>
  <anchor x="641" y="0" name="bottom"/>
  <anchor x="647" y="1374" name="top"/>
  <outline>
    <contour>
      <point x="332" y="512" type="curve" smooth="yes"/>
      <point x="332" y="731"/>
      <point x="483" y="888"/>
      <point x="691" y="888" type="curve" smooth="yes"/>
      <point x="900" y="888"/>
      <point x="1049" y="732"/>
      <point x="1049" y="512" type="curve" smooth="yes"/>
      <point x="1049" y="293"/>
      <point x="900" y="136"/>
      <point x="691" y="136" type="curve" smooth="yes"/>
      <point x="483" y="136"/>
      <point x="332" y="293"/>
    </contour>
    <contour>
      <point x="130" y="512" type="curve" smooth="yes"/>
      <point x="130" y="201"/>
      <point x="345" y="-32"/>
      <point x="639" y="-32" type="curve" smooth="yes"/>
      <point x="808" y="-32"/>
      <point x="953" y="50"/>
      <point x="1042" y="192" type="curve"/>
      <point x="1042" y="0" type="line"/>
      <point x="1236" y="0" type="line" name=".hr01"/>
      <point x="1236" y="1720" type="line"/>
      <point x="1042" y="1720" type="line"/>
      <point x="1042" y="832" type="line"/>
      <point x="953" y="974"/>
      <point x="808" y="1056"/>
      <point x="639" y="1056" type="curve" smooth="yes"/>
      <point x="345" y="1056"/>
      <point x="130" y="823"/>
    </contour>
  </outline>
</glyph>
<glyph name="e" format="2">
  <advance width="1322"/>
  <unicode hex="0065"/>
  <anchor x="698" y="0" name="bottom"/>
  <anchor x="718" y="0" name="ogonek"/>
  <anchor x="669" y="1024" name="top"/>
  <outline>
    <contour>
      <point x="689" y="-32" type="curve" smooth="yes"/>
      <point x="896" y="-32"/>
      <point x="1074" y="62"/>
      <point x="1172" y="223" type="curve"/>
      <point x="1030" y="297" type="line"/>
      <point x="949" y="185"/>
      <point x="837" y="126"/>
      <point x="698" y="126" type="curve" smooth="yes"/>
      <point x="475" y="126"/>
      <point x="320" y="276"/>
      <point x="320" y="490" type="curve"/>
      <point x="1202" y="490" type="line"/>
      <point x="1203" y="504"/>
      <point x="1204" y="516"/>
      <point x="1204" y="535" type="curve" smooth="yes"/>
      <point x="1204" y="820"/>
      <point x="968" y="1056"/>
      <point x="673" y="1056" type="curve" smooth="yes"/>
      <point x="368" y="1056"/>
      <point x="122" y="819"/>
      <point x="122" y="508" type="curve" smooth="yes"/>
      <point x="122" y="203"/>
      <point x="360" y="-32"/>
    </contour>
    <contour>
      <point x="326" y="596" type="line"/>
      <point x="341" y="780"/>
      <point x="485" y="914"/>
      <point x="669" y="914" type="curve" smooth="yes"/>
      <point x="850" y="914"/>
      <point x="993" y="782"/>
      <point x="1013" y="596" type="curve"/>
    </contour>
  </outline>
</glyph>
<glyph name="f" format="2">
  <advance width="754"/>
  <unicode hex="0066"/>
  <anchor x="330" y="0" name="bottom"/>
  <anchor x="546" y="1720" name="top"/>
  <outline>
    <contour>
      <point x="427" y="0" type="line"/>
      <point x="427" y="876" type="line"/>
      <point x="683" y="876" type="line"/>
      <point x="683" y="1024" type="line"/>
      <point x="427" y="1024" type="line"/>
      <point x="427" y="1365" type="line" smooth="yes"/>
      <point x="427" y="1505"/>
      <point x="480" y="1576"/>
      <point x="570" y="1576" type="curve" smooth="yes"/>
      <point x="608" y="1576"/>
      <point x="651" y="1563"/>
      <point x="683" y="1523" type="curve"/>
      <point x="781" y="1644" type="line"/>
      <point x="720" y="1716"/>
      <point x="629" y="1750"/>
      <point x="537" y="1750" type="curve" smooth="yes"/>
      <point x="355" y="1750"/>
      <point x="233" y="1618"/>
      <point x="233" y="1357" type="curve" smooth="yes"/>
      <point x="233" y="1024" type="line"/>
      <point x="119" y="1024" type="line"/>
      <point x="119" y="876" type="line"/>
      <point x="233" y="876" type="line"/>
      <point x="233" y="0" type="line"/>
    </contour>
  </outline>
</glyph>
<glyph name="g" format="2">
  <advance width="1442"/>
  <unicode hex="0067"/>
  <anchor x="692" y="-520" name="bottom"/>
  <anchor x="692" y="1024" name="top"/>
  <outline>
    <contour>
      <point x="131" y="512" type="curve" smooth="yes"/>
      <point x="131" y="201"/>
      <point x="346" y="-32"/>
      <point x="640" y="-32" type="curve" smooth="yes"/>
      <point x="809" y="-32"/>
      <point x="954" y="50"/>
      <point x="1043" y="192" type="curve"/>
      <point x="1043" y="-26" type="line" smooth="yes"/>
      <point x="1043" y="-249"/>
      <point x="885" y="-383"/>
      <point x="669" y="-383" type="curve" smooth="yes"/>
      <point x="501" y="-383"/>
      <point x="357" y="-302"/>
      <point x="296" y="-176" type="curve"/>
      <point x="134" y="-252" type="line"/>
      <point x="221" y="-447"/>
      <point x="405" y="-550"/>
      <point x="669" y="-550" type="curve" smooth="yes"/>
      <point x="1031" y="-550"/>
      <point x="1237" y="-356"/>
      <point x="1237" y="-28" type="curve" smooth="yes"/>
      <point x="1237" y="1024" type="line"/>
      <point x="1043" y="1024" type="line"/>
      <point x="1043" y="832" type="line"/>
      <point x="954" y="974"/>
      <point x="809" y="1056" name=".hr01"/>
      <point x="640" y="1056" type="curve" smooth="yes"/>
      <point x="346" y="1056"/>
      <point x="131" y="823"/>
    </contour>
    <contour>
      <point x="333" y="512" type="curve" smooth="yes"/>
      <point x="333" y="731"/>
      <point x="484" y="888"/>
      <point x="692" y="888" type="curve" smooth="yes"/>
      <point x="901" y="888"/>
      <point x="1050" y="732"/>
      <point x="1050" y="512" type="curve" smooth="yes"/>
      <point x="1050" y="293"/>
      <point x="901" y="136"/>
      <point x="692" y="136" type="curve" smooth="yes"/>
      <point x="484" y="136"/>
      <point x="333" y="293"/>
    </contour>
  </outline>
</glyph>
<glyph name="h" format="2">
  <advance width="1318"/>
  <unicode hex="0068"/>
  <anchor x="659" y="0" name="bottom"/>
  <anchor x="659" y="860" name="center"/>
  <anchor x="659" y="1720" name="top"/>
  <outline>
    <contour>
      <point x="400" y="0" type="line"/>
      <point x="400" y="649" type="line" smooth="yes"/>
      <point x="400" y="784"/>
      <point x="502" y="901"/>
      <point x="675" y="901" type="curve" smooth="yes"/>
      <point x="840" y="901"/>
      <point x="937" y="794"/>
      <point x="937" y="603" type="curve" smooth="yes"/>
      <point x="937" y="0" type="line"/>
      <point x="1131" y="0" type="line"/>
      <point x="1131" y="642" type="line" smooth="yes"/>
      <point x="1131" y="900"/>
      <point x="980" y="1056"/>
      <point x="744" y="1056" type="curve" smooth="yes"/>
      <point x="583" y="1056"/>
      <point x="462" y="985"/>
      <point x="400" y="892" type="curve"/>
      <point x="400" y="1720" type="line"/>
      <point x="206" y="1720" type="line"/>
      <point x="206" y="0" type="line"/>
    </contour>
  </outline>
</glyph>
<glyph name="i" format="2">
  <advance width="602"/>
  <unicode hex="0069"/>
  <anchor x="302" y="0" name="bottom"/>
  <anchor x="398" y="0" name="ogonek"/>
  <outline>
    <component base="idotless" xOffset="-1"/>
    <contour>
      <point x="302" y="1232" type="curve" smooth="yes"/>
      <point x="370" y="1232"/>
      <point x="423" y="1286"/>
      <point x="423" y="1354" type="curve" smooth="yes"/>
      <point x="423" y="1422"/>
      <point x="370" y="1475"/>
      <point x="302" y="1475" type="curve" smooth="yes"/>
      <point x="234" y="1475"/>
      <point x="179" y="1422"/>
      <point x="179" y="1354" type="curve" smooth="yes"/>
      <point x="179" y="1286"/>
      <point x="234" y="1232"/>
    </contour>
  </outline>
</glyph>
<glyph name="j" format="2">
  <advance width="605"/>
  <unicode hex="006A"/>
  <outline>
    <contour>
      <point x="101" y="-550" type="curve" smooth="yes"/>
      <point x="286" y="-550"/>
      <point x="400" y="-427"/>
      <point x="400" y="-209" type="curve" smooth="yes"/>
      <point x="400" y="1024" type="line"/>
      <point x="206" y="1024" type="line"/>
      <point x="206" y="-184" type="line" smooth="yes"/>
      <point x="206" y="-305"/>
      <point x="153" y="-376"/>
      <point x="63" y="-376" type="curve" smooth="yes"/>
      <point x="25" y="-376"/>
      <point x="-18" y="-363"/>
      <point x="-50" y="-323" type="curve"/>
      <point x="-148" y="-444" type="line"/>
      <point x="-87" y="-516"/>
      <point x="4" y="-550"/>
    </contour>
    <contour>
      <point x="303" y="1233" type="curve" smooth="yes"/>
      <point x="370" y="1233"/>
      <point x="425" y="1288"/>
      <point x="425" y="1355" type="curve" smooth="yes" name=".hr01"/>
      <point x="425" y="1422"/>
      <point x="370" y="1477"/>
      <point x="303" y="1477" type="curve" smooth="yes"/>
      <point x="236" y="1477"/>
      <point x="181" y="1422"/>
      <point x="181" y="1355" type="curve" smooth="yes"/>
      <point x="181" y="1288"/>
      <point x="236" y="1233"/>
    </contour>
  </outline>
</glyph>
<glyph name="k" format="2">
  <advance width="1161"/>
  <unicode hex="006B"/>
  <anchor x="580" y="0" name="bottom"/>
  <anchor x="580" y="1720" name="top"/>
  <outline>
    <contour>
      <point x="400" y="0" type="line"/>
      <point x="400" y="461" type="line"/>
      <point x="827" y="0" type="line"/>
      <point x="1077" y="0" type="line"/>
      <point x="576" y="536" type="line"/>
      <point x="1053" y="1024" type="line"/>
      <point x="800" y="1024" type="line"/>
      <point x="400" y="619" type="line"/>
      <point x="400" y="1720" type="line"/>
      <point x="205" y="1720" type="line"/>
      <point x="205" y="0" type="line"/>
    </contour>
  </outline>
</glyph>
<glyph name="l" format="2">
  <advance width="604"/>
  <unicode hex="006C"/>
  <anchor x="302" y="0" name="bottom"/>
  <anchor x="302" y="860" name="center"/>
  <anchor x="302" y="1720" name="top"/>
  <anchor x="399" y="1720" name="topright"/>
  <outline>
    <contour>
      <point x="399" y="0" type="line"/>
      <point x="399" y="1720" type="line"/>
      <point x="205" y="1720" type="line"/>
      <point x="205" y="0" type="line"/>
    </contour>
  </outline>
</glyph>
<glyph name="m" format="2">
  <advance width="2009"/>
  <unicode hex="006D"/>
  <anchor x="1111" y="0" name="bottom"/>
  <anchor x="1056" y="1025" name="top"/>
  <outline>
    <contour>
      <point x="206" y="1024" type="line"/>
      <point x="206" y="0" type="line"/>
      <point x="401" y="0" type="line"/>
      <point x="401" y="600" type="line" smooth="yes"/>
      <point x="401" y="786"/>
      <point x="522" y="898" name=".hr01"/>
      <point x="675" y="898" type="curve" smooth="yes"/>
      <point x="822" y="898"/>
      <point x="916" y="795"/>
      <point x="916" y="633" type="curve" smooth="yes"/>
      <point x="916" y="0" type="line"/>
      <point x="1111" y="0" type="line"/>
      <point x="1111" y="600" type="line" smooth="yes"/>
      <point x="1111" y="786"/>
      <point x="1227" y="898"/>
      <point x="1382" y="898" type="curve" smooth="yes"/>
      <point x="1530" y="898"/>
      <point x="1627" y="792"/>
      <point x="1627" y="621" type="curve" smooth="yes"/>
      <point x="1627" y="0" type="line"/>
      <point x="1822" y="0" type="line"/>
      <point x="1822" y="675" type="line" smooth="yes"/>
      <point x="1822" y="916"/>
      <point x="1662" y="1056"/>
      <point x="1444" y="1056" type="curve" smooth="yes"/>
      <point x="1281" y="1056"/>
      <point x="1164" y="977"/>
      <point x="1079" y="847" type="curve"/>
      <point x="1029" y="975"/>
      <point x="894" y="1056"/>
      <point x="730" y="1056" type="curve" smooth="yes"/>
      <point x="596" y="1056"/>
      <point x="487" y="1003"/>
      <point x="401" y="871" type="curve"/>
      <point x="401" y="1024" type="line" name=".hr02"/>
    </contour>
  </outline>
</glyph>
<glyph name="n" format="2">
  <advance width="1318"/>
  <unicode hex="006E"/>
  <anchor x="675" y="0" name="bottom"/>
  <anchor x="675" y="1024" name="top"/>
  <outline>
    <contour>
      <point x="400" y="0" type="line"/>
      <point x="400" y="579" type="line" smooth="yes"/>
      <point x="400" y="784"/>
      <point x="502" y="900"/>
      <point x="675" y="900" type="curve" smooth="yes"/>
      <point x="840" y="900"/>
      <point x="937" y="794"/>
      <point x="937" y="603" type="curve" smooth="yes"/>
      <point x="937" y="0" type="line"/>
      <point x="1131" y="0" type="line"/>
      <point x="1131" y="642" type="line" smooth="yes"/>
      <point x="1131" y="900"/>
      <point x="980" y="1056"/>
      <point x="743" y="1056" type="curve" smooth="yes"/>
      <point x="583" y="1056"/>
      <point x="462" y="985"/>
      <point x="400" y="882" type="curve"/>
      <point x="400" y="1024" type="line" name=".hr01"/>
      <point x="206" y="1024" type="line"/>
      <point x="206" y="0" type="line"/>
    </contour>
  </outline>
</glyph>
<glyph name="o" format="2">
  <advance width="1400"/>
  <unicode hex="006F"/>
  <anchor x="700" y="0" name="bottom"/>
  <anchor x="700" y="512" name="center"/>
  <anchor x="720" y="0" name="ogonek"/>
  <anchor x="700" y="1024" name="top"/>
  <outline>
    <contour>
      <point x="700" y="-32" type="curve" smooth="yes"/>
      <point x="1026" y="-32"/>
      <point x="1277" y="191"/>
      <point x="1277" y="512" type="curve" smooth="yes"/>
      <point x="1277" y="833"/>
      <point x="1026" y="1056"/>
      <point x="700" y="1056" type="curve" smooth="yes"/>
      <point x="374" y="1056"/>
      <point x="123" y="833"/>
      <point x="123" y="512" type="curve" smooth="yes"/>
      <point x="123" y="191"/>
      <point x="374" y="-32"/>
    </contour>
    <contour>
      <point x="700" y="138" type="curve" smooth="yes"/>
      <point x="485" y="138"/>
      <point x="325" y="294"/>
      <point x="325" y="512" type="curve" smooth="yes"/>
      <point x="325" y="730"/>
      <point x="485" y="886"/>
      <point x="700" y="886" type="curve" smooth="yes"/>
      <point x="915" y="886"/>
      <point x="1075" y="730"/>
      <point x="1075" y="512" type="curve" smooth="yes"/>
      <point x="1075" y="294"/>
      <point x="915" y="138"/>
    </contour>
  </outline>
</glyph>
<glyph name="p" format="2">
  <advance width="1442"/>
  <unicode hex="0070"/>
  <anchor x="744" y="0" name="bottom"/>
  <anchor x="744" y="1024" name="top"/>
  <outline>
    <contour>
      <point x="1110" y="512" type="curve" smooth="yes"/>
      <point x="1110" y="293"/>
      <point x="959" y="136"/>
      <point x="751" y="136" type="curve" smooth="yes"/>
      <point x="542" y="136"/>
      <point x="393" y="293"/>
      <point x="393" y="512" type="curve" smooth="yes"/>
      <point x="393" y="732"/>
      <point x="542" y="888"/>
      <point x="751" y="888" type="curve" smooth="yes"/>
      <point x="959" y="888"/>
      <point x="1110" y="731"/>
    </contour>
    <contour>
      <point x="1312" y="512" type="curve" smooth="yes"/>
      <point x="1312" y="823"/>
      <point x="1097" y="1056"/>
      <point x="803" y="1056" type="curve" smooth="yes"/>
      <point x="634" y="1056"/>
      <point x="489" y="974"/>
      <point x="400" y="832" type="curve"/>
      <point x="400" y="1024" type="line"/>
      <point x="206" y="1024" type="line"/>
      <point x="206" y="-520" type="line"/>
      <point x="400" y="-520" type="line"/>
      <point x="400" y="192" type="line"/>
      <point x="489" y="50"/>
      <point x="634" y="-32"/>
      <point x="803" y="-32" type="curve" smooth="yes"/>
      <point x="1097" y="-32"/>
      <point x="1312" y="201"/>
    </contour>
  </outline>
</glyph>
<glyph name="q" format="2">
  <advance width="1401"/>
  <unicode hex="0071"/>
  <anchor x="705" y="0" name="bottom"/>
  <anchor x="683" y="1024" name="top"/>
  <outline>
    <contour>
      <point x="316" y="512" type="curve" smooth="yes"/>
      <point x="316" y="731"/>
      <point x="467" y="888"/>
      <point x="675" y="888" type="curve" smooth="yes"/>
      <point x="884" y="888"/>
      <point x="1033" y="732"/>
      <point x="1033" y="512" type="curve" smooth="yes"/>
      <point x="1033" y="293"/>
      <point x="884" y="136"/>
      <point x="675" y="136" type="curve" smooth="yes"/>
      <point x="467" y="136"/>
      <point x="316" y="293"/>
    </contour>
    <contour>
      <point x="114" y="512" type="curve" smooth="yes"/>
      <point x="114" y="201"/>
      <point x="329" y="-32"/>
      <point x="623" y="-32" type="curve" smooth="yes"/>
      <point x="792" y="-32"/>
      <point x="937" y="50"/>
      <point x="1026" y="192" type="curve"/>
      <point x="1026" y="-520" type="line"/>
      <point x="1220" y="-520" type="line"/>
      <point x="1220" y="1024" type="line"/>
      <point x="1026" y="1024" type="line" name=".hr01"/>
      <point x="1026" y="832" type="line"/>
      <point x="937" y="974"/>
      <point x="792" y="1056"/>
      <point x="623" y="1056" type="curve" smooth="yes" name=".hr02"/>
      <point x="329" y="1056"/>
      <point x="114" y="823"/>
    </contour>
  </outline>
</glyph>
<glyph name="r" format="2">
  <advance width="928"/>
  <unicode hex="0072"/>
  <anchor x="478" y="0" name="bottom"/>
  <anchor x="518" y="1024" name="top"/>
  <outline>
    <contour>
      <point x="401" y="0" type="line"/>
      <point x="401" y="545" type="line" smooth="yes"/>
      <point x="401" y="769"/>
      <point x="526" y="887"/>
      <point x="663" y="887" type="curve" smooth="yes"/>
      <point x="712" y="887"/>
      <point x="770" y="872"/>
      <point x="813" y="849" type="curve"/>
      <point x="893" y="1014" type="line"/>
      <point x="845" y="1039"/>
      <point x="778" y="1056"/>
      <point x="709" y="1056" type="curve" smooth="yes"/>
      <point x="576" y="1056"/>
      <point x="458" y="993"/>
      <point x="401" y="844" type="curve"/>
      <point x="401" y="1024" type="line" name=".hr01"/>
      <point x="206" y="1024" type="line"/>
      <point x="206" y="0" type="line"/>
    </contour>
  </outline>
</glyph>
<glyph name="s" format="2">
  <advance width="1001"/>
  <unicode hex="0073"/>
  <anchor x="495" y="0" name="bottom"/>
  <anchor x="488" y="1024" name="top"/>
  <outline>
    <contour>
      <point x="491" y="-32" type="curve" smooth="yes"/>
      <point x="725" y="-32"/>
      <point x="877" y="77"/>
      <point x="877" y="273" type="curve" smooth="yes"/>
      <point x="877" y="449"/>
      <point x="733" y="534"/>
      <point x="537" y="607" type="curve" smooth="yes"/>
      <point x="401" y="657"/>
      <point x="319" y="693"/>
      <point x="319" y="781" type="curve" smooth="yes"/>
      <point x="319" y="861"/>
      <point x="387" y="918"/>
      <point x="500" y="918" type="curve" smooth="yes"/>
      <point x="576" y="918"/>
      <point x="650" y="892"/>
      <point x="710" y="833" type="curve"/>
      <point x="805" y="917" type="line"/>
      <point x="727" y="1006"/>
      <point x="616" y="1055"/>
      <point x="488" y="1055" type="curve" smooth="yes"/>
      <point x="277" y="1055"/>
      <point x="135" y="933"/>
      <point x="135" y="772" type="curve" smooth="yes"/>
      <point x="135" y="598"/>
      <point x="299" y="531"/>
      <point x="432" y="481" type="curve" smooth="yes"/>
      <point x="573" y="428"/>
      <point x="678" y="383"/>
      <point x="678" y="279" type="curve" smooth="yes"/>
      <point x="678" y="169"/>
      <point x="584" y="116"/>
      <point x="473" y="116" type="curve" smooth="yes"/>
      <point x="379" y="116"/>
      <point x="283" y="152"/>
      <point x="210" y="238" type="curve"/>
      <point x="100" y="157" type="line"/>
      <point x="194" y="22"/>
      <point x="332" y="-32"/>
    </contour>
  </outline>
</glyph>
<glyph name="t" format="2">
  <advance width="781"/>
  <unicode hex="0074"/>
  <anchor x="492" y="0" name="bottom"/>
  <anchor x="391" y="513" name="center"/>
  <anchor x="410" y="1407" name="top"/>
  <anchor x="722" y="1024" name="topright"/>
  <outline>
    <contour>
      <point x="489" y="-32" type="curve" smooth="yes"/>
      <point x="567" y="-32"/>
      <point x="653" y="-7"/>
      <point x="703" y="33" type="curve"/>
      <point x="620" y="165" type="line"/>
      <point x="595" y="150"/>
      <point x="564" y="141"/>
      <point x="534" y="141" type="curve" smooth="yes"/>
      <point x="459" y="141"/>
      <point x="418" y="196"/>
      <point x="418" y="298" type="curve" smooth="yes"/>
      <point x="418" y="876" type="line"/>
      <point x="664" y="876" type="line"/>
      <point x="664" y="1024" type="line"/>
      <point x="418" y="1024" type="line"/>
      <point x="418" y="1407" type="line"/>
      <point x="223" y="1407" type="line"/>
      <point x="223" y="1024" type="line"/>
      <point x="109" y="1024" type="line"/>
      <point x="109" y="876" type="line"/>
      <point x="223" y="876" type="line"/>
      <point x="223" y="286" type="line" smooth="yes"/>
      <point x="223" y="85"/>
      <point x="321" y="-32"/>
    </contour>
  </outline>
</glyph>
<glyph name="u" format="2">
  <advance width="1292"/>
  <unicode hex="0075"/>
  <anchor x="646" y="0" name="bottom"/>
  <anchor x="666" y="0" name="ogonek"/>
  <anchor x="646" y="1024" name="top"/>
  <outline>
    <contour>
      <point x="646" y="-32" type="curve" smooth="yes"/>
      <point x="952" y="-32"/>
      <point x="1107" y="140"/>
      <point x="1107" y="479" type="curve" smooth="yes"/>
      <point x="1107" y="1024" type="line"/>
      <point x="913" y="1024" type="line"/>
      <point x="913" y="520" type="line" smooth="yes"/>
      <point x="913" y="244"/>
      <point x="834" y="129"/>
      <point x="646" y="129" type="curve" smooth="yes"/>
      <point x="458" y="129"/>
      <point x="379" y="244"/>
      <point x="379" y="520" type="curve" smooth="yes"/>
      <point x="379" y="1024" type="line"/>
      <point x="185" y="1024" type="line"/>
      <point x="185" y="479" type="line" smooth="yes"/>
      <point x="185" y="140"/>
      <point x="340" y="-32"/>
    </contour>
  </outline>
</glyph>
<glyph name="v" format="2">
  <advance width="1230"/>
  <unicode hex="0076"/>
  <anchor x="615" y="0" name="bottom"/>
  <anchor x="615" y="1024" name="top"/>
  <outline>
    <contour>
      <point x="680" y="0" type="line"/>
      <point x="1189" y="1024" type="line"/>
      <point x="960" y="1024" type="line"/>
      <point x="615" y="268" type="line"/>
      <point x="270" y="1024" type="line"/>
      <point x="41" y="1024" type="line"/>
      <point x="550" y="0" type="line"/>
    </contour>
  </outline>
</glyph>
<glyph name="w" format="2">
  <advance width="1961"/>
  <unicode hex="0077"/>
  <anchor x="980" y="0" name="bottom"/>
  <anchor x="980" y="1024" name="top"/>
  <outline>
    <contour>
      <point x="680" y="0" type="line"/>
      <point x="980" y="735" type="line"/>
      <point x="1280" y="0" type="line"/>
      <point x="1410" y="0" type="line"/>
      <point x="1919" y="1024" type="line"/>
      <point x="1696" y="1024" type="line"/>
      <point x="1350" y="270" type="line"/>
      <point x="1045" y="1024" type="line"/>
      <point x="915" y="1024" type="line"/>
      <point x="610" y="270" type="line"/>
      <point x="264" y="1024" type="line"/>
      <point x="41" y="1024" type="line"/>
      <point x="550" y="0" type="line"/>
    </contour>
  </outline>
</glyph>
<glyph name="x" format="2">
  <advance width="1193"/>
  <unicode hex="0078"/>
  <anchor x="597" y="0" name="bottom"/>
  <anchor x="597" y="1024" name="top"/>
  <outline>
    <contour>
      <point x="273" y="0" type="line"/>
      <point x="597" y="402" type="line"/>
      <point x="921" y="0" type="line"/>
      <point x="1153" y="0" type="line"/>
      <point x="719" y="533" type="line"/>
      <point x="1093" y="1024" type="line"/>
      <point x="869" y="1024" type="line"/>
      <point x="597" y="665" type="line"/>
      <point x="325" y="1024" type="line"/>
      <point x="101" y="1024" type="line"/>
      <point x="475" y="533" type="line"/>
      <point x="41" y="0" type="line"/>
    </contour>
  </outline>
</glyph>
<glyph name="y" format="2">
  <advance width="1241"/>
  <unicode hex="0079"/>
  <anchor x="621" y="0" name="bottom"/>
  <anchor x="621" y="1024" name="top"/>
  <outline>
    <contour>
      <point x="471" y="-520" type="line"/>
      <point x="1198" y="1024" type="line"/>
      <point x="975" y="1024" type="line"/>
      <point x="638" y="250" type="line"/>
      <point x="262" y="1024" type="line"/>
      <point x="39" y="1024" type="line"/>
      <point x="526" y="57" type="line"/>
      <point x="250" y="-520" type="line"/>
    </contour>
  </outline>
</glyph>
<glyph name="z" format="2">
  <advance width="1195"/>
  <unicode hex="007A"/>
  <anchor x="597" y="0" name="bottom"/>
  <anchor x="597" y="1023" name="top"/>
  <outline>
    <contour>
      <point x="1084" y="0" type="line"/>
      <point x="1084" y="155" type="line"/>
      <point x="410" y="155" type="line"/>
      <point x="1111" y="1024" type="line"/>
      <point x="147" y="1024" type="line"/>
      <point x="147" y="869" type="line"/>
      <point x="768" y="869" type="line"/>
      <point x="69" y="0" type="line"/>
    </contour>
  </outline>
</glyph>
<glyph name="braceleft" format="2">
  <advance width="778"/>
  <unicode hex="007B"/>
  <outline>
    <contour>
      <point x="667" y="-520" type="line"/>
      <point x="667" y="-372" type="line"/>
      <point x="614" y="-372" type="line" smooth="yes"/>
      <point x="483" y="-372"/>
      <point x="415" y="-286"/>
      <point x="415" y="-144" type="curve" smooth="yes"/>
      <point x="415" y="460" type="line" smooth="yes"/>
      <point x="415" y="533"/>
      <point x="385" y="577"/>
      <point x="343" y="600" type="curve"/>
      <point x="385" y="623"/>
      <point x="415" y="665"/>
      <point x="415" y="740" type="curve" smooth="yes"/>
      <point x="415" y="1344" type="line" smooth="yes"/>
      <point x="415" y="1486"/>
      <point x="483" y="1572"/>
      <point x="614" y="1572" type="curve" smooth="yes"/>
      <point x="667" y="1572" type="line"/>
      <point x="667" y="1720" type="line"/>
      <point x="561" y="1720" type="line" smooth="yes"/>
      <point x="305" y="1720"/>
      <point x="243" y="1524"/>
      <point x="243" y="1358" type="curve" smooth="yes"/>
      <point x="243" y="762" type="line" smooth="yes"/>
      <point x="243" y="687"/>
      <point x="207" y="656"/>
      <point x="142" y="656" type="curve"/>
      <point x="142" y="544" type="line"/>
      <point x="207" y="544"/>
      <point x="243" y="513"/>
      <point x="243" y="438" type="curve" smooth="yes"/>
      <point x="243" y="-158" type="line" smooth="yes"/>
      <point x="243" y="-324"/>
      <point x="305" y="-520"/>
      <point x="561" y="-520" type="curve" smooth="yes"/>
    </contour>
  </outline>
</glyph>
<glyph name="asciitilde" format="2">
  <advance width="1505"/>
  <unicode hex="007E"/>
  <outline>
    <contour>
      <point x="244" y="779" type="curve"/>
      <point x="352" y="709" type="line"/>
      <point x="396" y="786"/>
      <point x="462" y="841"/>
      <point x="554" y="841" type="curve" smooth="yes"/>
      <point x="711" y="841"/>
      <point x="776" y="680"/>
      <point x="960" y="680" type="curve" smooth="yes"/>
      <point x="1081" y="680"/>
      <point x="1188" y="750"/>
      <point x="1264" y="892" type="curve"/>
      <point x="1157" y="962" type="line"/>
      <point x="1108" y="876"/>
      <point x="1037" y="830"/>
      <point x="953" y="830" type="curve" smooth="yes"/>
      <point x="797" y="830"/>
      <point x="733" y="991"/>
      <point x="548" y="991" type="curve" smooth="yes"/>
      <point x="417" y="991"/>
      <point x="314" y="910"/>
    </contour>
  </outline>
</glyph>
<glyph name="sterling" format="2">
  <advance width="1680"/>
  <unicode hex="00A3"/>
  <outline>
    <contour>
      <point x="1143" y="-30" type="curve" smooth="yes"/>
      <point x="1341" y="-30"/>
      <point x="1479" y="98"/>
      <point x="1510" y="273" type="curve"/>
      <point x="1354" y="349" type="line"/>
      <point x="1339" y="231"/>
      <point x="1266" y="131"/>
      <point x="1122" y="131" type="curve" smooth="yes"/>
      <point x="972" y="131"/>
      <point x="837" y="251"/>
      <point x="693" y="260" type="curve"/>
      <point x="725" y="328"/>
      <point x="738" y="396"/>
      <point x="738" y="455" type="curve" smooth="yes"/>
      <point x="738" y="518"/>
      <point x="723" y="565"/>
      <point x="698" y="613" type="curve"/>
      <point x="1124" y="613" type="line"/>
      <point x="1124" y="729" type="line"/>
      <point x="661" y="729" type="line"/>
      <point x="592" y="861"/>
      <point x="523" y="987"/>
      <point x="523" y="1148" type="curve" smooth="yes"/>
      <point x="523" y="1371"/>
      <point x="656" y="1513"/>
      <point x="875" y="1513" type="curve" smooth="yes"/>
      <point x="1103" y="1513"/>
      <point x="1217" y="1360"/>
      <point x="1253" y="1199" type="curve"/>
      <point x="1421" y="1275" type="line"/>
      <point x="1362" y="1525"/>
      <point x="1151" y="1681"/>
      <point x="876" y="1681" type="curve" smooth="yes"/>
      <point x="556" y="1681"/>
      <point x="332" y="1470"/>
      <point x="332" y="1142" type="curve" smooth="yes"/>
      <point x="332" y="969"/>
      <point x="397" y="841"/>
      <point x="470" y="729" type="curve"/>
      <point x="210" y="729" type="line"/>
      <point x="210" y="613" type="line"/>
      <point x="527" y="613" type="line"/>
      <point x="552" y="570"/>
      <point x="571" y="522"/>
      <point x="571" y="455" type="curve" smooth="yes"/>
      <point x="571" y="389"/>
      <point x="554" y="320"/>
      <point x="533" y="273" type="curve"/>
      <point x="370" y="266"/>
      <point x="250" y="143"/>
      <point x="245" y="0" type="curve"/>
      <point x="416" y="0" type="line"/>
      <point x="426" y="77"/>
      <point x="509" y="124"/>
      <point x="604" y="124" type="curve" smooth="yes"/>
      <point x="776" y="124"/>
      <point x="928" y="-30"/>
    </contour>
  </outline>
</glyph>
<glyph name="currency" format="2">
  <advance width="1228"/>
  <unicode hex="00A4"/>
  <outline>
    <contour>
      <point x="326" y="279" type="line"/>
      <point x="404" y="215"/>
      <point x="504" y="178"/>
      <point x="614" y="178" type="curve" smooth="yes"/>
      <point x="724" y="178"/>
      <point x="824" y="215"/>
      <point x="902" y="279" type="curve"/>
      <point x="1038" y="142" type="line"/>
      <point x="1111" y="215" type="line"/>
      <point x="974" y="351" type="line"/>
      <point x="1036" y="429"/>
      <point x="1074" y="528"/>
      <point x="1074" y="639" type="curve" smooth="yes"/>
      <point x="1074" y="750"/>
      <point x="1036" y="849"/>
      <point x="974" y="927" type="curve"/>
      <point x="1111" y="1063" type="line"/>
      <point x="1038" y="1136" type="line"/>
      <point x="902" y="999" type="line"/>
      <point x="824" y="1063"/>
      <point x="724" y="1100"/>
      <point x="614" y="1100" type="curve" smooth="yes"/>
      <point x="504" y="1100"/>
      <point x="404" y="1063"/>
      <point x="326" y="999" type="curve"/>
      <point x="190" y="1136" type="line"/>
      <point x="117" y="1063" type="line"/>
      <point x="254" y="927" type="line"/>
      <point x="192" y="849"/>
      <point x="154" y="750"/>
      <point x="154" y="639" type="curve" smooth="yes"/>
      <point x="154" y="528"/>
      <point x="192" y="429"/>
      <point x="254" y="351" type="curve"/>
      <point x="117" y="215" type="line"/>
      <point x="190" y="142" type="line"/>
    </contour>
    <contour>
      <point x="614" y="338" type="curve" smooth="yes"/>
      <point x="444" y="338"/>
      <point x="312" y="468"/>
      <point x="312" y="639" type="curve" smooth="yes"/>
      <point x="312" y="810"/>
      <point x="444" y="940"/>
      <point x="614" y="940" type="curve" smooth="yes"/>
      <point x="784" y="940"/>
      <point x="916" y="810"/>
      <point x="916" y="639" type="curve" smooth="yes"/>
      <point x="916" y="468"/>
      <point x="784" y="338"/>
    </contour>
  </outline>
</glyph>
<glyph name="yen" format="2">
  <advance width="1678"/>
  <unicode hex="00A5"/>
  <outline>
    <component base="Y" xOffset="93"/>
    <contour>
      <point x="334" y="801" type="line"/>
      <point x="334" y="654" type="line"/>
      <point x="1343" y="654" type="line"/>
      <point x="1343" y="801" type="line"/>
    </contour>
    <contour>
      <point x="334" y="442" type="line"/>
      <point x="334" y="295" type="line"/>
      <point x="1343" y="295" type="line"/>
      <point x="1343" y="442" type="line"/>
    </contour>
  </outline>
</glyph>
<glyph name="section" format="2">
  <advance width="1467"/>
  <unicode hex="00A7"/>
  <outline>
    <contour>
      <point x="730" y="-550" type="curve" smooth="yes"/>
      <point x="1011" y="-550"/>
      <point x="1235" y="-386"/>
      <point x="1235" y="-112" type="curve" smooth="yes"/>
      <point x="1235" y="36"/>
      <point x="1169" y="148"/>
      <point x="1044" y="235" type="curve"/>
      <point x="1184" y="294"/>
      <point x="1269" y="410"/>
      <point x="1272" y="542" type="curve" smooth="yes"/>
      <point x="1277" y="770"/>
      <point x="1027" y="889"/>
      <point x="832" y="972" type="curve"/>
      <point x="679" y="1034"/>
      <point x="492" y="1105"/>
      <point x="492" y="1270" type="curve" smooth="yes"/>
      <point x="492" y="1404"/>
      <point x="598" y="1512"/>
      <point x="747" y="1512" type="curve" smooth="yes"/>
      <point x="877" y="1512"/>
      <point x="978" y="1434"/>
      <point x="1007" y="1339" type="curve"/>
      <point x="1184" y="1383" type="line"/>
      <point x="1135" y="1534"/>
      <point x="995" y="1680"/>
      <point x="741" y="1680" type="curve" smooth="yes"/>
      <point x="458" y="1680"/>
      <point x="280" y="1496"/>
      <point x="280" y="1257" type="curve" smooth="yes"/>
      <point x="280" y="1114"/>
      <point x="344" y="1007"/>
      <point x="470" y="926" type="curve"/>
      <point x="331" y="870"/>
      <point x="246" y="753"/>
      <point x="242" y="619" type="curve" smooth="yes"/>
      <point x="235" y="400"/>
      <point x="451" y="288"/>
      <point x="632" y="209" type="curve"/>
      <point x="855" y="118"/>
      <point x="1021" y="50"/>
      <point x="1021" y="-121" type="curve" smooth="yes"/>
      <point x="1021" y="-276"/>
      <point x="902" y="-382"/>
      <point x="729" y="-382" type="curve" smooth="yes"/>
      <point x="555" y="-382"/>
      <point x="413" y="-278"/>
      <point x="362" y="-137" type="curve"/>
      <point x="186" y="-181" type="line"/>
      <point x="230" y="-349"/>
      <point x="416" y="-550"/>
    </contour>
    <contour>
      <point x="909" y="312" type="curve"/>
      <point x="839" y="347"/>
      <point x="804" y="363"/>
      <point x="694" y="410" type="curve"/>
      <point x="525" y="479"/>
      <point x="440" y="534"/>
      <point x="440" y="644" type="curve" smooth="yes"/>
      <point x="440" y="749"/>
      <point x="523" y="823"/>
      <point x="604" y="847" type="curve"/>
      <point x="661" y="820"/>
      <point x="687" y="808"/>
      <point x="731" y="791" type="curve" smooth="yes"/>
      <point x="988" y="692"/>
      <point x="1074" y="619"/>
      <point x="1074" y="513" type="curve" smooth="yes"/>
      <point x="1074" y="417"/>
      <point x="993" y="340"/>
    </contour>
  </outline>
</glyph>
<glyph name="copyright" format="2">
  <advance width="2075"/>
  <unicode hex="00A9"/>
  <outline>
    <component base="c" xScale="0.8814" yScale="0.8814" xOffset="467" yOffset="373"/>
    <contour>
      <point x="1037" y="-31" type="curve" smooth="yes"/>
      <point x="1508" y="-31"/>
      <point x="1882" y="346"/>
      <point x="1882" y="822" type="curve" smooth="yes"/>
      <point x="1882" y="1299"/>
      <point x="1506" y="1680"/>
      <point x="1036" y="1680" type="curve" smooth="yes"/>
      <point x="568" y="1680"/>
      <point x="194" y="1297"/>
      <point x="194" y="823" type="curve" smooth="yes"/>
      <point x="194" y="344"/>
      <point x="566" y="-31"/>
    </contour>
    <contour>
      <point x="1037" y="104" type="curve" smooth="yes"/>
      <point x="641" y="104"/>
      <point x="332" y="418"/>
      <point x="332" y="822" type="curve" smooth="yes"/>
      <point x="332" y="1223"/>
      <point x="646" y="1546"/>
      <point x="1036" y="1546" type="curve" smooth="yes"/>
      <point x="1429" y="1546"/>
      <point x="1744" y="1224"/>
      <point x="1744" y="822" type="curve" smooth="yes"/>
      <point x="1744" y="420"/>
      <point x="1432" y="104"/>
    </contour>
  </outline>
</glyph>
<glyph name="ordfeminine" format="2">
  <advance width="1065"/>
  <unicode hex="00AA"/>
  <outline>
    <contour>
      <point x="476" y="1008" type="curve" smooth="yes"/>
      <point x="585" y="1008"/>
      <point x="676" y="1063"/>
      <point x="725" y="1147" type="curve"/>
      <point x="725" y="1028" type="line"/>
      <point x="846" y="1028" type="line"/>
      <point x="846" y="1660" type="line"/>
      <point x="725" y="1660" type="line"/>
      <point x="725" y="1545" type="line"/>
      <point x="674" y="1629"/>
      <point x="584" y="1680"/>
      <point x="480" y="1680" type="curve" smooth="yes"/>
      <point x="295" y="1680"/>
      <point x="162" y="1535"/>
      <point x="162" y="1344" type="curve" smooth="yes"/>
      <point x="162" y="1149"/>
      <point x="299" y="1008"/>
    </contour>
    <contour>
      <point x="508" y="1110" type="curve" smooth="yes"/>
      <point x="379" y="1110"/>
      <point x="287" y="1210"/>
      <point x="287" y="1344" type="curve" smooth="yes"/>
      <point x="287" y="1480"/>
      <point x="382" y="1578"/>
      <point x="508" y="1578" type="curve" smooth="yes"/>
      <point x="634" y="1578"/>
      <point x="728" y="1480"/>
      <point x="728" y="1344" type="curve" smooth="yes"/>
      <point x="728" y="1210"/>
      <point x="636" y="1110"/>
    </contour>
  </outline>
</glyph>
<glyph name="guillemetleft" format="2">
  <advance width="1134"/>
  <unicode hex="00AB"/>
  <outline>
    <contour>
      <point x="610" y="141" type="line"/>
      <point x="285" y="557" type="line"/>
      <point x="610" y="973" type="line"/>
      <point x="504" y="1057" type="line"/>
      <point x="114" y="557" type="line"/>
      <point x="504" y="57" type="line"/>
    </contour>
    <contour>
      <point x="1001" y="141" type="line"/>
      <point x="675" y="557" type="line"/>
      <point x="1001" y="973" type="line"/>
      <point x="895" y="1057" type="line"/>
      <point x="505" y="557" type="line"/>
      <point x="895" y="57" type="line"/>
    </contour>
  </outline>
</glyph>
<glyph name="logicalnot" format="2">
  <advance width="1404"/>
  <unicode hex="00AC"/>
  <outline>
    <contour>
      <point x="1215" y="316" type="line"/>
      <point x="1215" y="913" type="line"/>
      <point x="189" y="913" type="line"/>
      <point x="189" y="745" type="line"/>
      <point x="1047" y="745" type="line"/>
      <point x="1047" y="316" type="line"/>
    </contour>
  </outline>
</glyph>
<glyph name="registered" format="2">
  <advance width="1353"/>
  <unicode hex="00AE"/>
  <outline>
    <component base="R" xScale="0.3182" yScale="0.3182" xOffset="434" yOffset="970"/>
    <contour>
      <point x="676" y="773" type="curve" smooth="yes"/>
      <point x="927" y="773"/>
      <point x="1132" y="980"/>
      <point x="1132" y="1231" type="curve" smooth="yes"/>
      <point x="1132" y="1482"/>
      <point x="927" y="1689"/>
      <point x="676" y="1689" type="curve" smooth="yes"/>
      <point x="425" y="1689"/>
      <point x="220" y="1482"/>
      <point x="220" y="1231" type="curve" smooth="yes"/>
      <point x="220" y="980"/>
      <point x="425" y="773"/>
    </contour>
    <contour>
      <point x="676" y="854" type="curve" smooth="yes"/>
      <point x="469" y="854"/>
      <point x="301" y="1024"/>
      <point x="301" y="1231" type="curve" smooth="yes"/>
      <point x="301" y="1438"/>
      <point x="469" y="1608"/>
      <point x="676" y="1608" type="curve" smooth="yes"/>
      <point x="883" y="1608"/>
      <point x="1051" y="1438"/>
      <point x="1051" y="1231" type="curve" smooth="yes"/>
      <point x="1051" y="1024"/>
      <point x="883" y="854"/>
    </contour>
  </outline>
</glyph>
<glyph name="degree" format="2">
  <advance width="969"/>
  <unicode hex="00B0"/>
  <outline>
    <contour>
      <point x="484" y="1338" type="curve" smooth="yes"/>
      <point x="609" y="1338"/>
      <point x="701" y="1423"/>
      <point x="701" y="1544" type="curve" smooth="yes"/>
      <point x="701" y="1666"/>
      <point x="606" y="1750"/>
      <point x="484" y="1750" type="curve" smooth="yes"/>
      <point x="363" y="1750"/>
      <point x="268" y="1666"/>
      <point x="268" y="1543" type="curve" smooth="yes"/>
      <point x="268" y="1425"/>
      <point x="357" y="1338"/>
    </contour>
    <contour>
      <point x="484" y="1418" type="curve" smooth="yes"/>
      <point x="412" y="1418"/>
      <point x="361" y="1469"/>
      <point x="361" y="1543" type="curve" smooth="yes"/>
      <point x="361" y="1618"/>
      <point x="414" y="1670"/>
      <point x="484" y="1670" type="curve" smooth="yes"/>
      <point x="552" y="1670"/>
      <point x="607" y="1620"/>
      <point x="607" y="1543" type="curve" smooth="yes"/>
      <point x="607" y="1470"/>
      <point x="557" y="1418"/>
    </contour>
  </outline>
</glyph>
<glyph name="plusminus" format="2">
  <advance width="1465"/>
  <unicode hex="00B1"/>
  <outline>
    <contour>
      <point x="817" y="362" type="line"/>
      <point x="817" y="768" type="line"/>
      <point x="1245" y="768" type="line"/>
      <point x="1245" y="935" type="line"/>
      <point x="817" y="935" type="line"/>
      <point x="817" y="1341" type="line"/>
      <point x="648" y="1341" type="line"/>
      <point x="648" y="935" type="line"/>
      <point x="220" y="935" type="line"/>
      <point x="220" y="768" type="line"/>
      <point x="648" y="768" type="line"/>
      <point x="648" y="362" type="line"/>
    </contour>
    <contour>
      <point x="1245" y="0" type="line"/>
      <point x="1245" y="168" type="line"/>
      <point x="220" y="168" type="line"/>
      <point x="220" y="0" type="line"/>
    </contour>
  </outline>
</glyph>
<glyph name="twosuperior" format="2">
  <advance width="891"/>
  <unicode hex="00B2"/>
  <outline>
    <contour>
      <point x="682" y="1026" type="line"/>
      <point x="682" y="1113" type="line"/>
      <point x="384" y="1113" type="line"/>
      <point x="600" y="1271"/>
      <point x="670" y="1361"/>
      <point x="670" y="1467" type="curve" smooth="yes"/>
      <point x="670" y="1594"/>
      <point x="572" y="1681"/>
      <point x="443" y="1681" type="curve" smooth="yes"/>
      <point x="325" y="1681"/>
      <point x="236" y="1604"/>
      <point x="211" y="1486" type="curve"/>
      <point x="296" y="1449" type="line"/>
      <point x="314" y="1537"/>
      <point x="370" y="1595"/>
      <point x="443" y="1595" type="curve" smooth="yes"/>
      <point x="511" y="1595"/>
      <point x="563" y="1546"/>
      <point x="563" y="1474" type="curve" smooth="yes"/>
      <point x="563" y="1376"/>
      <point x="461" y="1262"/>
      <point x="207" y="1081" type="curve"/>
      <point x="207" y="1026" type="line"/>
    </contour>
  </outline>
</glyph>
<glyph name="threesuperior" format="2">
  <advance width="855"/>
  <unicode hex="00B3"/>
  <outline>
    <contour>
      <point x="431" y="1026" type="curve" smooth="yes"/>
      <point x="559" y="1026"/>
      <point x="646" y="1096"/>
      <point x="646" y="1209" type="curve" smooth="yes"/>
      <point x="646" y="1282"/>
      <point x="608" y="1344"/>
      <point x="543" y="1370" type="curve"/>
      <point x="595" y="1402"/>
      <point x="629" y="1458"/>
      <point x="629" y="1518" type="curve" smooth="yes"/>
      <point x="629" y="1614"/>
      <point x="549" y="1680"/>
      <point x="436" y="1680" type="curve" smooth="yes"/>
      <point x="328" y="1680"/>
      <point x="257" y="1620"/>
      <point x="239" y="1532" type="curve"/>
      <point x="318" y="1498" type="line"/>
      <point x="323" y="1557"/>
      <point x="372" y="1600"/>
      <point x="430" y="1600" type="curve" smooth="yes"/>
      <point x="486" y="1600"/>
      <point x="531" y="1558"/>
      <point x="531" y="1503" type="curve" smooth="yes"/>
      <point x="531" y="1445"/>
      <point x="479" y="1397"/>
      <point x="419" y="1397" type="curve" smooth="yes"/>
      <point x="393" y="1397" type="line"/>
      <point x="393" y="1330" type="line"/>
      <point x="400" y="1333"/>
      <point x="409" y="1334"/>
      <point x="418" y="1334" type="curve" smooth="yes"/>
      <point x="485" y="1334"/>
      <point x="541" y="1283"/>
      <point x="541" y="1214" type="curve" smooth="yes"/>
      <point x="541" y="1155"/>
      <point x="499" y="1112"/>
      <point x="426" y="1112" type="curve" smooth="yes"/>
      <point x="350" y="1112"/>
      <point x="301" y="1159"/>
      <point x="298" y="1225" type="curve"/>
      <point x="207" y="1185" type="line"/>
      <point x="228" y="1092"/>
      <point x="306" y="1026"/>
    </contour>
  </outline>
</glyph>
<glyph name="micro" format="2">
  <advance width="1521"/>
  <unicode hex="00B5"/>
  <outline>
    <contour>
      <point x="513" y="-320" type="line"/>
      <point x="513" y="70" type="line"/>
      <point x="557" y="2"/>
      <point x="633" y="-32"/>
      <point x="737" y="-32" type="curve" smooth="yes"/>
      <point x="865" y="-32"/>
      <point x="993" y="35"/>
      <point x="1051" y="132" type="curve"/>
      <point x="1051" y="0" type="line" name=".hr01"/>
      <point x="1246" y="0" type="line"/>
      <point x="1246" y="1024" type="line"/>
      <point x="1051" y="1024" type="line"/>
      <point x="1051" y="378" type="line" smooth="yes"/>
      <point x="1051" y="238"/>
      <point x="929" y="123" name=".hr02"/>
      <point x="778" y="123" type="curve" smooth="yes"/>
      <point x="607" y="123"/>
      <point x="513" y="228"/>
      <point x="513" y="421" type="curve" smooth="yes"/>
      <point x="513" y="1024" type="line"/>
      <point x="319" y="1024" type="line"/>
      <point x="319" y="433" type="line" smooth="yes"/>
      <point x="319" y="126"/>
      <point x="275" y="-24"/>
      <point x="275" y="-320" type="curve"/>
    </contour>
  </outline>
</glyph>
<glyph name="paragraph" format="2">
  <advance width="1523"/>
  <unicode hex="00B6"/>
  <outline>
    <contour>
      <point x="1007" y="0" type="line"/>
      <point x="1007" y="1528" type="line"/>
      <point x="1091" y="1528" type="line"/>
      <point x="1091" y="0" type="line"/>
      <point x="1216" y="0" type="line"/>
      <point x="1216" y="1650" type="line"/>
      <point x="689" y="1650" type="line" smooth="yes"/>
      <point x="367" y="1650"/>
      <point x="174" y="1450"/>
      <point x="174" y="1174" type="curve" smooth="yes"/>
      <point x="174" y="901"/>
      <point x="367" y="679"/>
      <point x="689" y="679" type="curve" smooth="yes"/>
      <point x="882" y="679" type="line"/>
      <point x="882" y="0" type="line"/>
    </contour>
  </outline>
</glyph>
<glyph name="ordmasculine" format="2">
  <advance width="992"/>
  <unicode hex="00BA"/>
  <outline>
    <contour>
      <point x="496" y="1006" type="curve" smooth="yes"/>
      <point x="695" y="1006"/>
      <point x="849" y="1145"/>
      <point x="849" y="1343" type="curve" smooth="yes"/>
      <point x="849" y="1542"/>
      <point x="695" y="1680"/>
      <point x="496" y="1680" type="curve" smooth="yes"/>
      <point x="295" y="1680"/>
      <point x="142" y="1542"/>
      <point x="142" y="1343" type="curve" smooth="yes"/>
      <point x="142" y="1145"/>
      <point x="295" y="1006"/>
    </contour>
    <contour>
      <point x="495" y="1109" type="curve" smooth="yes"/>
      <point x="364" y="1109"/>
      <point x="267" y="1206"/>
      <point x="267" y="1343" type="curve" smooth="yes"/>
      <point x="267" y="1479"/>
      <point x="363" y="1577"/>
      <point x="496" y="1577" type="curve" smooth="yes"/>
      <point x="627" y="1577"/>
      <point x="724" y="1479"/>
      <point x="724" y="1343" type="curve" smooth="yes"/>
      <point x="724" y="1207"/>
      <point x="627" y="1109"/>
    </contour>
  </outline>
</glyph>
<glyph name="AE" format="2">
  <advance width="1860"/>
  <unicode hex="00C6"/>
  <outline>
    <contour>
      <point x="829" y="1378" type="line"/>
      <point x="829" y="661" type="line"/>
      <point x="554" y="661" type="line"/>
    </contour>
    <contour>
      <point x="735" y="1651" type="line"/>
      <point x="81" y="0" type="line"/>
      <point x="301" y="0" type="line"/>
      <point x="484" y="481" type="line"/>
      <point x="829" y="481" type="line"/>
      <point x="829" y="0" type="line"/>
      <point x="1687" y="0" type="line"/>
      <point x="1687" y="180" type="line" name=".hr01"/>
      <point x="1033" y="180" type="line"/>
      <point x="1033" y="737" type="line"/>
      <point x="1663" y="737" type="line"/>
      <point x="1663" y="917" type="line"/>
      <point x="1033" y="917" type="line"/>
      <point x="1033" y="1471" type="line"/>
      <point x="1687" y="1471" type="line"/>
      <point x="1687" y="1651" type="line"/>
    </contour>
  </outline>
</glyph>
<glyph name="Eth" format="2">
  <advance width="1668"/>
  <unicode hex="00D0"/>
  <outline>
    <component base="D" xOffset="37"/>
    <contour>
      <point x="129" y="908" type="line"/>
      <point x="129" y="742" type="line"/>
      <point x="887" y="742" type="line"/>
      <point x="887" y="908" type="line"/>
    </contour>
  </outline>
</glyph>
<glyph name="multiply" format="2">
  <advance width="1312"/>
  <unicode hex="00D7"/>
  <outline>
    <contour>
      <point x="656" y="711" type="line"/>
      <point x="1009" y="357" type="line"/>
      <point x="1127" y="474" type="line"/>
      <point x="773" y="829" type="line"/>
      <point x="1127" y="1184" type="line"/>
      <point x="1011" y="1300" type="line"/>
      <point x="656" y="946" type="line"/>
      <point x="302" y="1300" type="line"/>
      <point x="184" y="1184" type="line"/>
      <point x="539" y="829" type="line"/>
      <point x="184" y="474" type="line"/>
      <point x="301" y="357" type="line"/>
    </contour>
  </outline>
</glyph>
<glyph name="Oslash" format="2">
  <advance width="1960"/>
  <unicode hex="00D8"/>
  <outline>
    <component base="O"/>
    <contour>
      <point x="1674" y="1575" type="line"/>
      <point x="1546" y="1673" type="line"/>
      <point x="297" y="86" type="line"/>
      <point x="424" y="-9" type="line"/>
    </contour>
  </outline>
</glyph>
<glyph name="Thorn" format="2">
  <advance width="1383"/>
  <unicode hex="00DE"/>
  <anchor x="692" y="0" name="bottom"/>
  <anchor x="692" y="1650" name="top"/>
  <outline>
    <contour>
      <point x="460" y="0" type="line"/>
      <point x="460" y="333" type="line"/>
      <point x="724" y="333" type="line" smooth="yes"/>
      <point x="1047" y="333"/>
      <point x="1259" y="517"/>
      <point x="1259" y="819" type="curve" smooth="yes"/>
      <point x="1259" y="1121"/>
      <point x="1047" y="1305"/>
      <point x="724" y="1305" type="curve" smooth="yes"/>
      <point x="460" y="1305" type="line"/>
      <point x="460" y="1650" type="line"/>
      <point x="256" y="1650" type="line"/>
      <point x="256" y="0" type="line"/>
    </contour>
    <contour>
      <point x="460" y="1141" type="line"/>
      <point x="669" y="1141" type="line" smooth="yes"/>
      <point x="893" y="1141"/>
      <point x="1048" y="1026"/>
      <point x="1048" y="819" type="curve" smooth="yes"/>
      <point x="1048" y="612"/>
      <point x="893" y="497"/>
      <point x="669" y="497" type="curve" smooth="yes"/>
      <point x="460" y="497" type="line"/>
    </contour>
  </outline>
</glyph>
<glyph name="germandbls" format="2">
  <advance width="1358"/>
  <unicode hex="00DF"/>
  <anchor x="681" y="0" name="bottom"/>
  <anchor x="681" y="1025" name="top"/>
  <outline>
    <contour>
      <point x="708" y="-32" type="line"/>
      <point x="1009" y="-29"/>
      <point x="1237" y="192"/>
      <point x="1237" y="481" type="curve" smooth="yes"/>
      <point x="1237" y="681"/>
      <point x="1124" y="846"/>
      <point x="937" y="920" type="curve"/>
      <point x="1087" y="989"/>
      <point x="1176" y="1128"/>
      <point x="1176" y="1294" type="curve" smooth="yes"/>
      <point x="1176" y="1550"/>
      <point x="972" y="1750"/>
      <point x="710" y="1750" type="curve" smooth="yes"/>
      <point x="446" y="1750"/>
      <point x="241" y="1546"/>
      <point x="241" y="1285" type="curve" smooth="yes"/>
      <point x="241" y="863" type="line"/>
      <point x="109" y="863" type="line"/>
      <point x="109" y="707" type="line"/>
      <point x="241" y="707" type="line"/>
      <point x="241" y="0" type="line" name=".hr01"/>
      <point x="435" y="0" type="line"/>
      <point x="435" y="1291" type="line" smooth="yes"/>
      <point x="435" y="1457"/>
      <point x="554" y="1582"/>
      <point x="708" y="1582" type="curve" smooth="yes"/>
      <point x="866" y="1582"/>
      <point x="991" y="1454"/>
      <point x="991" y="1290" type="curve" smooth="yes"/>
      <point x="991" y="1124"/>
      <point x="866" y="993"/>
      <point x="708" y="993" type="curve" smooth="yes"/>
      <point x="573" y="993" type="line"/>
      <point x="573" y="838" type="line"/>
      <point x="708" y="838" type="line" smooth="yes"/>
      <point x="890" y="838"/>
      <point x="1033" y="688"/>
      <point x="1033" y="493" type="curve" smooth="yes"/>
      <point x="1033" y="299"/>
      <point x="890" y="148" name=".hr02"/>
      <point x="708" y="148" type="curve" smooth="yes"/>
      <point x="573" y="148" type="line"/>
      <point x="573" y="-32" type="line"/>
    </contour>
  </outline>
</glyph>
<glyph name="ae" format="2">
  <advance width="2046"/>
  <unicode hex="00E6"/>
  <outline>
    <contour>
      <point x="524" y="-32" type="curve" smooth="yes"/>
      <point x="697" y="-32"/>
      <point x="839" y="49"/>
      <point x="958" y="195" type="curve"/>
      <point x="1059" y="50"/>
      <point x="1219" y="-32"/>
      <point x="1409" y="-32" type="curve" smooth="yes"/>
      <point x="1621" y="-32"/>
      <point x="1797" y="60"/>
      <point x="1896" y="223" type="curve"/>
      <point x="1755" y="297" type="line"/>
      <point x="1674" y="184"/>
      <point x="1562" y="126" name=".hr01"/>
      <point x="1423" y="126" type="curve" smooth="yes"/>
      <point x="1199" y="126"/>
      <point x="1045" y="276"/>
      <point x="1045" y="490" type="curve"/>
      <point x="1927" y="490" type="line"/>
      <point x="1928" y="507"/>
      <point x="1928" y="512"/>
      <point x="1928" y="522" type="curve"/>
      <point x="1927" y="828"/>
      <point x="1698" y="1056"/>
      <point x="1394" y="1056" type="curve" smooth="yes"/>
      <point x="1215" y="1056"/>
      <point x="1060" y="965"/>
      <point x="967" y="828" type="curve"/>
      <point x="903" y="977"/>
      <point x="767" y="1056"/>
      <point x="572" y="1056" type="curve" smooth="yes"/>
      <point x="417" y="1056"/>
      <point x="291" y="1006"/>
      <point x="195" y="921" type="curve"/>
      <point x="291" y="811" type="line"/>
      <point x="367" y="869"/>
      <point x="463" y="899"/>
      <point x="557" y="899" type="curve" smooth="yes"/>
      <point x="735" y="899"/>
      <point x="852" y="790"/>
      <point x="852" y="611" type="curve" smooth="yes"/>
      <point x="852" y="500" type="line"/>
      <point x="778" y="573"/>
      <point x="656" y="619" name=".hr02"/>
      <point x="527" y="619" type="curve" smooth="yes"/>
      <point x="299" y="619"/>
      <point x="130" y="486"/>
      <point x="130" y="291" type="curve" smooth="yes"/>
      <point x="130" y="92"/>
      <point x="295" y="-32"/>
    </contour>
    <contour>
      <point x="591" y="95" type="curve" smooth="yes"/>
      <point x="442" y="95"/>
      <point x="321" y="179"/>
      <point x="321" y="302" type="curve" smooth="yes"/>
      <point x="321" y="424"/>
      <point x="440" y="504"/>
      <point x="589" y="504" type="curve" smooth="yes"/>
      <point x="739" y="504"/>
      <point x="861" y="422"/>
      <point x="861" y="300" type="curve" smooth="yes"/>
      <point x="861" y="177"/>
      <point x="740" y="95"/>
    </contour>
    <contour>
      <point x="1051" y="604" type="line"/>
      <point x="1066" y="784"/>
      <point x="1211" y="918" name=".hr03"/>
      <point x="1395" y="918" type="curve" smooth="yes"/>
      <point x="1578" y="918"/>
      <point x="1718" y="786"/>
      <point x="1737" y="604" type="curve"/>
    </contour>
  </outline>
</glyph>
<glyph name="eth" format="2">
  <advance width="1432"/>
  <unicode hex="00F0"/>
  <outline>
    <contour>
      <point x="705" y="-32" type="curve" smooth="yes"/>
      <point x="1036" y="-32"/>
      <point x="1283" y="194"/>
      <point x="1283" y="512" type="curve" smooth="yes"/>
      <point x="1283" y="981"/>
      <point x="1085" y="1317"/>
      <point x="810" y="1529" type="curve"/>
      <point x="938" y="1656" type="line"/>
      <point x="847" y="1750" type="line"/>
      <point x="697" y="1601" type="line"/>
      <point x="591" y="1667"/>
      <point x="475" y="1716"/>
      <point x="367" y="1750" type="curve"/>
      <point x="317" y="1584" type="line"/>
      <point x="396" y="1558"/>
      <point x="484" y="1520"/>
      <point x="565" y="1469" type="curve"/>
      <point x="428" y="1332" type="line"/>
      <point x="521" y="1239" type="line"/>
      <point x="680" y="1398" type="line"/>
      <point x="826" y="1284"/>
      <point x="938" y="1120"/>
      <point x="996" y="903" type="curve"/>
      <point x="935" y="1002"/>
      <point x="823" y="1062"/>
      <point x="693" y="1062" type="curve" smooth="yes"/>
      <point x="406" y="1062"/>
      <point x="124" y="859"/>
      <point x="124" y="512" type="curve" smooth="yes"/>
      <point x="124" y="194"/>
      <point x="367" y="-32"/>
    </contour>
    <contour>
      <point x="704" y="136" type="curve" smooth="yes"/>
      <point x="483" y="136"/>
      <point x="327" y="294"/>
      <point x="327" y="512" type="curve" smooth="yes"/>
      <point x="327" y="732"/>
      <point x="488" y="888"/>
      <point x="704" y="888" type="curve" smooth="yes"/>
      <point x="918" y="888"/>
      <point x="1081" y="732"/>
      <point x="1081" y="512" type="curve" smooth="yes"/>
      <point x="1081" y="294"/>
      <point x="921" y="136"/>
    </contour>
  </outline>
</glyph>
<glyph name="divide" format="2">
  <advance width="1388"/>
  <unicode hex="00F7"/>
  <outline>
    <contour>
      <point x="164" y="746" type="line"/>
      <point x="1190" y="746" type="line"/>
      <point x="1190" y="914" type="line"/>
      <point x="164" y="914" type="line"/>
    </contour>
    <contour>
      <point x="677" y="249" type="curve" smooth="yes"/>
      <point x="732" y="249"/>
      <point x="777" y="294"/>
      <point x="777" y="351" type="curve" smooth="yes"/>
      <point x="777" y="408"/>
      <point x="732" y="453"/>
      <point x="677" y="453" type="curve" smooth="yes"/>
      <point x="622" y="453"/>
      <point x="577" y="408"/>
      <point x="577" y="351" type="curve" smooth="yes"/>
      <point x="577" y="294"/>
      <point x="622" y="249"/>
    </contour>
    <contour>
      <point x="677" y="1207" type="curve" smooth="yes"/>
      <point x="732" y="1207"/>
      <point x="777" y="1252"/>
      <point x="777" y="1309" type="curve" smooth="yes"/>
      <point x="777" y="1366"/>
      <point x="732" y="1411"/>
      <point x="677" y="1411" type="curve" smooth="yes"/>
      <point x="622" y="1411"/>
      <point x="577" y="1366"/>
      <point x="577" y="1309" type="curve" smooth="yes"/>
      <point x="577" y="1252"/>
      <point x="622" y="1207"/>
    </contour>
  </outline>
</glyph>
<glyph name="oslash" format="2">
  <advance width="1400"/>
  <unicode hex="00F8"/>
  <outline>
    <component base="o"/>
    <contour>
      <point x="309" y="-32" type="line"/>
      <point x="1201" y="1056" type="line"/>
      <point x="1091" y="1056" type="line"/>
      <point x="199" y="-32" type="line"/>
    </contour>
  </outline>
</glyph>
<glyph name="dcroat" format="2">
  <advance width="1530"/>
  <unicode hex="0111"/>
  <outline>
    <component base="d"/>
    <contour>
      <point x="675" y="1436" type="line"/>
      <point x="675" y="1306" type="line"/>
      <point x="1399" y="1306" type="line"/>
      <point x="1399" y="1436" type="line"/>
    </contour>
  </outline>
</glyph>
<glyph name="eogonek" format="2">
  <advance width="1322"/>
  <unicode hex="0119"/>
  <anchor x="698" y="0" name="bottom"/>
  <anchor x="718" y="0" name="ogonek"/>
  <anchor x="669" y="1024" name="top"/>
  <anchor x="718" y="0" name="_ogonek"/>
  <outline>
    <contour>
      <point x="689" y="-32" type="curve" smooth="yes"/>
      <point x="760" y="-32"/>
      <point x="827" y="-21"/>
      <point x="889" y="0" type="curve"/>
      <point x="863" y="0" type="line"/>
      <point x="748" y="-125"/>
      <point x="684" y="-242"/>
      <point x="684" y="-334" type="curve" smooth="yes"/>
      <point x="684" y="-458"/>
      <point x="789" y="-559"/>
      <point x="935" y="-559" type="curve" smooth="yes"/>
      <point x="1043" y="-559"/>
      <point x="1149" y="-504"/>
      <point x="1210" y="-415" type="curve"/>
      <point x="1125" y="-352" type="line"/>
      <point x="1073" y="-413"/>
      <point x="1017" y="-442"/>
      <point x="952" y="-442" type="curve" smooth="yes"/>
      <point x="856" y="-442"/>
      <point x="807" y="-382"/>
      <point x="807" y="-309" type="curve" smooth="yes"/>
      <point x="807" y="-205"/>
      <point x="907" y="-36"/>
      <point x="1064" y="97" type="curve" smooth="yes"/>
      <point x="1106" y="132"/>
      <point x="1143" y="175"/>
      <point x="1172" y="223" type="curve"/>
      <point x="1030" y="297" type="line"/>
      <point x="949" y="185"/>
      <point x="837" y="126"/>
      <point x="698" y="126" type="curve" smooth="yes"/>
      <point x="475" y="126"/>
      <point x="320" y="276"/>
      <point x="320" y="490" type="curve"/>
      <point x="1202" y="490" type="line"/>
      <point x="1203" y="504"/>
      <point x="1204" y="516"/>
      <point x="1204" y="535" type="curve" smooth="yes"/>
      <point x="1204" y="820"/>
      <point x="968" y="1056"/>
      <point x="673" y="1056" type="curve" smooth="yes"/>
      <point x="368" y="1056"/>
      <point x="122" y="819"/>
      <point x="122" y="508" type="curve" smooth="yes"/>
      <point x="122" y="203"/>
      <point x="360" y="-32"/>
    </contour>
    <contour>
      <point x="326" y="596" type="line"/>
      <point x="341" y="780"/>
      <point x="485" y="914"/>
      <point x="669" y="914" type="curve" smooth="yes"/>
      <point x="850" y="914"/>
      <point x="993" y="782"/>
      <point x="1013" y="596" type="curve"/>
    </contour>
  </outline>
</glyph>
<glyph name="Hbar" format="2">
  <advance width="1733"/>
  <unicode hex="0126"/>
  <outline>
    <contour>
      <point x="460" y="0" type="line"/>
      <point x="460" y="698" type="line"/>
      <point x="1274" y="698" type="line"/>
      <point x="1274" y="0" type="line"/>
      <point x="1478" y="0" type="line"/>
      <point x="1478" y="1650" type="line"/>
      <point x="1274" y="1650" type="line"/>
      <point x="1274" y="842" type="line"/>
      <point x="460" y="842" type="line"/>
      <point x="460" y="1650" type="line"/>
      <point x="256" y="1650" type="line"/>
      <point x="256" y="0" type="line"/>
    </contour>
    <contour>
      <point x="1611" y="1068" type="line"/>
      <point x="1611" y="1212" type="line"/>
      <point x="123" y="1212" type="line"/>
      <point x="123" y="1068" type="line"/>
    </contour>
  </outline>
</glyph>
<glyph name="hbar" format="2">
  <advance width="1318"/>
  <unicode hex="0127"/>
  <outline>
    <component base="h"/>
    <contour>
      <point x="619" y="1292" type="line"/>
      <point x="619" y="1419" type="line"/>
      <point x="64" y="1419" type="line"/>
      <point x="64" y="1292" type="line"/>
    </contour>
  </outline>
</glyph>
<glyph name="Lslash" format="2">
  <advance width="1247"/>
  <unicode hex="0141"/>
  <outline>
    <component base="L" xOffset="37"/>
    <contour>
      <point x="710" y="1013" type="line"/>
      <point x="710" y="1179" type="line"/>
      <point x="133" y="725" type="line"/>
      <point x="133" y="559" type="line"/>
    </contour>
  </outline>
</glyph>
<glyph name="lslash" format="2">
  <advance width="952"/>
  <unicode hex="0142"/>
  <outline>
    <component base="l" xOffset="174"/>
    <contour>
      <point x="747" y="1050" type="line"/>
      <point x="747" y="1223" type="line"/>
      <point x="205" y="797" type="line"/>
      <point x="205" y="625" type="line"/>
    </contour>
  </outline>
</glyph>
<glyph name="Eng" format="2">
  <advance width="1734"/>
  <unicode hex="014A"/>
  <outline>
    <contour>
      <point x="255" y="1650" type="line"/>
      <point x="255" y="0" type="line"/>
      <point x="459" y="0" type="line"/>
      <point x="459" y="1305" type="line"/>
      <point x="1292" y="0" type="line"/>
      <point x="1292" y="-19" type="line" smooth="yes"/>
      <point x="1292" y="-220"/>
      <point x="1180" y="-356"/>
      <point x="977" y="-356" type="curve" smooth="yes"/>
      <point x="881" y="-356"/>
      <point x="786" y="-322"/>
      <point x="702" y="-234" type="curve"/>
      <point x="589" y="-365" type="line"/>
      <point x="706" y="-495"/>
      <point x="832" y="-551"/>
      <point x="1003" y="-551" type="curve" smooth="yes"/>
      <point x="1311" y="-551"/>
      <point x="1496" y="-368"/>
      <point x="1496" y="-55" type="curve" smooth="yes"/>
      <point x="1496" y="1650" type="line"/>
      <point x="1292" y="1650" type="line"/>
      <point x="1292" y="344" type="line"/>
      <point x="459" y="1650" type="line"/>
    </contour>
  </outline>
</glyph>
<glyph name="eng" format="2">
  <advance width="1311"/>
  <unicode hex="014B"/>
  <outline>
    <contour>
      <point x="206" y="1024" type="line"/>
      <point x="206" y="0" type="line"/>
      <point x="400" y="0" type="line"/>
      <point x="400" y="579" type="line" smooth="yes"/>
      <point x="400" y="784"/>
      <point x="502" y="900" name=".hr01"/>
      <point x="675" y="900" type="curve" smooth="yes"/>
      <point x="840" y="900"/>
      <point x="937" y="794"/>
      <point x="937" y="603" type="curve" smooth="yes"/>
      <point x="937" y="-184" type="line" smooth="yes"/>
      <point x="937" y="-305"/>
      <point x="885" y="-376"/>
      <point x="795" y="-376" type="curve" smooth="yes"/>
      <point x="756" y="-376"/>
      <point x="714" y="-363"/>
      <point x="682" y="-323" type="curve"/>
      <point x="584" y="-444" type="line"/>
      <point x="644" y="-516"/>
      <point x="736" y="-550"/>
      <point x="833" y="-550" type="curve" smooth="yes"/>
      <point x="1018" y="-550"/>
      <point x="1131" y="-427"/>
      <point x="1131" y="-209" type="curve" smooth="yes"/>
      <point x="1131" y="642" type="line" smooth="yes"/>
      <point x="1131" y="900"/>
      <point x="980" y="1056"/>
      <point x="743" y="1056" type="curve" smooth="yes"/>
      <point x="583" y="1056"/>
      <point x="462" y="985"/>
      <point x="400" y="882" type="curve"/>
      <point x="400" y="1024" type="line" name=".hr02"/>
    </contour>
  </outline>
</glyph>
<glyph name="OE" format="2">
  <advance width="2055"/>
  <unicode hex="0152"/>
  <outline>
    <contour>
      <point x="1882" y="0" type="line"/>
      <point x="1882" y="180" type="line"/>
      <point x="1228" y="180" type="line"/>
      <point x="1228" y="737" type="line"/>
      <point x="1858" y="737" type="line"/>
      <point x="1858" y="917" type="line"/>
      <point x="1228" y="917" type="line"/>
      <point x="1228" y="1471" type="line"/>
      <point x="1882" y="1471" type="line"/>
      <point x="1882" y="1650" type="line"/>
      <point x="1058" y="1650" type="line" smooth="yes"/>
      <point x="503" y="1650"/>
      <point x="148" y="1299"/>
      <point x="148" y="825" type="curve" smooth="yes"/>
      <point x="148" y="351"/>
      <point x="503" y="0"/>
      <point x="1058" y="0" type="curve" smooth="yes"/>
    </contour>
    <contour>
      <point x="1024" y="183" type="line"/>
      <point x="635" y="183"/>
      <point x="368" y="451"/>
      <point x="368" y="825" type="curve" smooth="yes"/>
      <point x="368" y="1199"/>
      <point x="645" y="1467"/>
      <point x="1024" y="1467" type="curve"/>
    </contour>
  </outline>
</glyph>
<glyph name="oe" format="2">
  <advance width="2266"/>
  <unicode hex="0153"/>
  <anchor x="1133" y="0" name="bottom"/>
  <anchor x="1133" y="1025" name="top"/>
  <outline>
    <contour>
      <point x="693" y="-32" type="curve" smooth="yes"/>
      <point x="906" y="-32"/>
      <point x="1080" y="71"/>
      <point x="1159" y="240" type="curve"/>
      <point x="1249" y="69"/>
      <point x="1419" y="-32"/>
      <point x="1628" y="-32" type="curve" smooth="yes"/>
      <point x="1840" y="-32"/>
      <point x="2017" y="61"/>
      <point x="2116" y="223" type="curve"/>
      <point x="1974" y="297" type="line"/>
      <point x="1893" y="184"/>
      <point x="1782" y="126" name=".hr01"/>
      <point x="1643" y="126" type="curve" smooth="yes"/>
      <point x="1419" y="126"/>
      <point x="1265" y="276"/>
      <point x="1265" y="490" type="curve"/>
      <point x="2147" y="490" type="line"/>
      <point x="2148" y="512"/>
      <point x="2148" y="515"/>
      <point x="2148" y="524" type="curve" smooth="yes"/>
      <point x="2148" y="827"/>
      <point x="1917" y="1056"/>
      <point x="1615" y="1056" type="curve" smooth="yes"/>
      <point x="1417" y="1056"/>
      <point x="1248" y="948"/>
      <point x="1160" y="782" type="curve"/>
      <point x="1080" y="953"/>
      <point x="905" y="1056"/>
      <point x="693" y="1056" type="curve" smooth="yes"/>
      <point x="366" y="1056"/>
      <point x="123" y="832"/>
      <point x="123" y="512" type="curve" smooth="yes"/>
      <point x="123" y="192"/>
      <point x="366" y="-32"/>
    </contour>
    <contour>
      <point x="701" y="136" type="curve" smooth="yes"/>
      <point x="483" y="136"/>
      <point x="323" y="294"/>
      <point x="323" y="512" type="curve" smooth="yes"/>
      <point x="323" y="730"/>
      <point x="483" y="888"/>
      <point x="701" y="888" type="curve" smooth="yes"/>
      <point x="918" y="888"/>
      <point x="1078" y="730"/>
      <point x="1078" y="512" type="curve" smooth="yes"/>
      <point x="1078" y="294"/>
      <point x="918" y="136"/>
    </contour>
    <contour>
      <point x="1271" y="604" type="line"/>
      <point x="1286" y="784"/>
      <point x="1431" y="918"/>
      <point x="1615" y="918" type="curve" smooth="yes"/>
      <point x="1797" y="918" name=".hr02"/>
      <point x="1938" y="786"/>
      <point x="1957" y="604" type="curve"/>
    </contour>
  </outline>
</glyph>
<glyph name="Tbar" format="2">
  <advance width="1338"/>
  <unicode hex="0166"/>
  <outline>
    <component base="T"/>
    <contour>
      <point x="1044" y="913" type="line"/>
      <point x="1044" y="1057" type="line"/>
      <point x="295" y="1057" type="line"/>
      <point x="295" y="913" type="line"/>
    </contour>
  </outline>
</glyph>
<glyph name="tbar" format="2">
  <advance width="781"/>
  <unicode hex="0167"/>
  <outline>
    <contour>
      <point x="489" y="-32" type="curve" smooth="yes"/>
      <point x="567" y="-32"/>
      <point x="653" y="-7"/>
      <point x="703" y="33" type="curve"/>
      <point x="620" y="165" type="line"/>
      <point x="595" y="150"/>
      <point x="564" y="141"/>
      <point x="534" y="141" type="curve" smooth="yes"/>
      <point x="459" y="141"/>
      <point x="418" y="196"/>
      <point x="418" y="298" type="curve" smooth="yes"/>
      <point x="418" y="715" type="line"/>
      <point x="664" y="715" type="line"/>
      <point x="664" y="824" type="line"/>
      <point x="418" y="824" type="line"/>
      <point x="418" y="954" type="line"/>
      <point x="664" y="954" type="line"/>
      <point x="664" y="1063" type="line"/>
      <point x="418" y="1063" type="line"/>
      <point x="418" y="1407" type="line"/>
      <point x="223" y="1407" type="line"/>
      <point x="223" y="1063" type="line"/>
      <point x="109" y="1063" type="line"/>
      <point x="109" y="954" type="line"/>
      <point x="223" y="954" type="line"/>
      <point x="223" y="824" type="line"/>
      <point x="109" y="824" type="line"/>
      <point x="109" y="715" type="line"/>
      <point x="223" y="715" type="line"/>
      <point x="223" y="286" type="line" smooth="yes"/>
      <point x="223" y="85"/>
      <point x="321" y="-32"/>
    </contour>
  </outline>
</glyph>
<glyph name="Uogonek" format="2">
  <advance width="1637"/>
  <unicode hex="0172"/>
  <outline>
    <contour>
      <point x="818" y="-32" type="curve" smooth="yes"/>
      <point x="906" y="-32"/>
      <point x="985" y="-21"/>
      <point x="1054" y="0" type="curve"/>
      <point x="1030" y="0" type="line"/>
      <point x="915" y="-125"/>
      <point x="851" y="-242"/>
      <point x="851" y="-334" type="curve" smooth="yes"/>
      <point x="851" y="-458"/>
      <point x="956" y="-559"/>
      <point x="1102" y="-559" type="curve" smooth="yes"/>
      <point x="1210" y="-559"/>
      <point x="1316" y="-504"/>
      <point x="1377" y="-415" type="curve"/>
      <point x="1292" y="-352" type="line"/>
      <point x="1240" y="-413"/>
      <point x="1184" y="-442"/>
      <point x="1119" y="-442" type="curve" smooth="yes"/>
      <point x="1023" y="-442"/>
      <point x="974" y="-382"/>
      <point x="974" y="-309" type="curve" smooth="yes"/>
      <point x="974" y="-206"/>
      <point x="1073" y="-39"/>
      <point x="1228" y="94" type="curve" smooth="yes"/>
      <point x="1347" y="197"/>
      <point x="1407" y="362"/>
      <point x="1407" y="589" type="curve" smooth="yes"/>
      <point x="1407" y="1650" type="line"/>
      <point x="1203" y="1650" type="line"/>
      <point x="1203" y="640" type="line" smooth="yes"/>
      <point x="1203" y="319"/>
      <point x="1079" y="169"/>
      <point x="818" y="169" type="curve" smooth="yes"/>
      <point x="558" y="169"/>
      <point x="434" y="319"/>
      <point x="434" y="640" type="curve" smooth="yes"/>
      <point x="434" y="1650" type="line"/>
      <point x="230" y="1650" type="line"/>
      <point x="230" y="589" type="line" smooth="yes"/>
      <point x="230" y="177"/>
      <point x="428" y="-32"/>
    </contour>
  </outline>
</glyph>
<glyph name="uogonek" format="2">
  <advance width="1292"/>
  <unicode hex="0173"/>
  <outline>
    <contour>
      <point x="646" y="-32" type="curve" smooth="yes"/>
      <point x="722" y="-32"/>
      <point x="789" y="-21"/>
      <point x="847" y="0" type="curve"/>
      <point x="794" y="0" type="line"/>
      <point x="679" y="-125"/>
      <point x="615" y="-229"/>
      <point x="615" y="-330" type="curve" smooth="yes"/>
      <point x="615" y="-458"/>
      <point x="720" y="-559"/>
      <point x="866" y="-559" type="curve" smooth="yes"/>
      <point x="974" y="-559"/>
      <point x="1080" y="-504"/>
      <point x="1141" y="-415" type="curve"/>
      <point x="1056" y="-352" type="line"/>
      <point x="1004" y="-413"/>
      <point x="948" y="-442"/>
      <point x="883" y="-442" type="curve" smooth="yes"/>
      <point x="787" y="-442"/>
      <point x="738" y="-382"/>
      <point x="738" y="-304" type="curve" smooth="yes"/>
      <point x="738" y="-200"/>
      <point x="826" y="-56"/>
      <point x="966" y="71" type="curve" smooth="yes"/>
      <point x="1060" y="156"/>
      <point x="1107" y="292"/>
      <point x="1107" y="479" type="curve" smooth="yes"/>
      <point x="1107" y="1024" type="line"/>
      <point x="913" y="1024" type="line"/>
      <point x="913" y="520" type="line" smooth="yes"/>
      <point x="913" y="244"/>
      <point x="834" y="129"/>
      <point x="646" y="129" type="curve" smooth="yes"/>
      <point x="458" y="129"/>
      <point x="379" y="244"/>
      <point x="379" y="520" type="curve" smooth="yes"/>
      <point x="379" y="1024" type="line"/>
      <point x="185" y="1024" type="line"/>
      <point x="185" y="479" type="line" smooth="yes"/>
      <point x="185" y="140"/>
      <point x="340" y="-32"/>
    </contour>
  </outline>
</glyph>
<glyph name="florin" format="2">
  <advance width="898"/>
  <unicode hex="0192"/>
  <outline>
    <contour>
      <point x="59" y="-551" type="curve" smooth="yes"/>
      <point x="255" y="-551"/>
      <point x="387" y="-403"/>
      <point x="411" y="-158" type="curve" smooth="yes"/>
      <point x="514" y="878" type="line"/>
      <point x="769" y="878" type="line"/>
      <point x="782" y="1025" type="line"/>
      <point x="527" y="1025" type="line"/>
      <point x="562" y="1358" type="line" smooth="yes"/>
      <point x="578" y="1509"/>
      <point x="635" y="1579"/>
      <point x="734" y="1579" type="curve" smooth="yes"/>
      <point x="774" y="1579"/>
      <point x="814" y="1567"/>
      <point x="840" y="1548" type="curve"/>
      <point x="925" y="1682" type="line"/>
      <point x="874" y="1726"/>
      <point x="799" y="1750"/>
      <point x="719" y="1750" type="curve" smooth="yes"/>
      <point x="523" y="1750"/>
      <point x="392" y="1602"/>
      <point x="367" y="1357" type="curve" smooth="yes"/>
      <point x="333" y="1025" type="line"/>
      <point x="219" y="1025" type="line"/>
      <point x="206" y="878" type="line"/>
      <point x="319" y="878" type="line"/>
      <point x="216" y="-159" type="line" smooth="yes"/>
      <point x="201" y="-310"/>
      <point x="142" y="-380"/>
      <point x="43" y="-380" type="curve" smooth="yes"/>
      <point x="3" y="-380"/>
      <point x="-37" y="-368"/>
      <point x="-63" y="-349" type="curve"/>
      <point x="-148" y="-483" type="line"/>
      <point x="-97" y="-527"/>
      <point x="-21" y="-551"/>
    </contour>
  </outline>
</glyph>
<glyph name="gravecomb" format="2">
  <advance width="377"/>
  <unicode hex="0300"/>
  <anchor x="272" y="1024" name="_top"/>
  <anchor x="189" y="1666" name="top"/>
  <outline>
    <contour>
      <point x="425" y="1306" type="line"/>
      <point x="49" y="1559" type="line"/>
      <point x="-49" y="1414" type="line"/>
      <point x="361" y="1210" type="line"/>
    </contour>
  </outline>
</glyph>
<glyph name="acutecomb" format="2">
  <advance width="358"/>
  <unicode hex="0301"/>
  <anchor x="105" y="1024" name="_top"/>
  <anchor x="145" y="1687" name="top"/>
  <outline>
    <contour>
      <point x="-67" y="1306" type="line"/>
      <point x="-3" y="1210" type="line"/>
      <point x="394" y="1407" type="line"/>
      <point x="309" y="1559" type="line"/>
    </contour>
  </outline>
</glyph>
<glyph name="circumflexcomb" format="2">
  <advance width="770"/>
  <unicode hex="0302"/>
  <anchor x="385" y="1024" name="_top"/>
  <anchor x="385" y="1680" name="top"/>
  <outline>
    <contour>
      <point x="385" y="1515" type="line"/>
      <point x="691" y="1291" type="line"/>
      <point x="770" y="1398" type="line"/>
      <point x="385" y="1680" type="line"/>
      <point x="0" y="1398" type="line"/>
      <point x="79" y="1291" type="line"/>
    </contour>
  </outline>
</glyph>
<glyph name="tildecomb" format="2">
  <advance width="1020"/>
  <unicode hex="0303"/>
  <anchor x="510" y="1025" name="_top"/>
  <anchor x="510" y="1550" name="top"/>
  <outline>
    <contour>
      <point x="0" y="1338" type="curve"/>
      <point x="108" y="1268" type="line"/>
      <point x="152" y="1345"/>
      <point x="218" y="1400"/>
      <point x="310" y="1400" type="curve" smooth="yes"/>
      <point x="467" y="1400"/>
      <point x="532" y="1239"/>
      <point x="716" y="1239" type="curve" smooth="yes"/>
      <point x="847" y="1239"/>
      <point x="950" y="1320"/>
      <point x="1020" y="1451" type="curve"/>
      <point x="912" y="1521" type="line"/>
      <point x="868" y="1444"/>
      <point x="802" y="1389"/>
      <point x="710" y="1389" type="curve" smooth="yes"/>
      <point x="553" y="1389"/>
      <point x="488" y="1550"/>
      <point x="304" y="1550" type="curve" smooth="yes"/>
      <point x="173" y="1550"/>
      <point x="70" y="1469"/>
    </contour>
  </outline>
</glyph>
<glyph name="brevecomb" format="2">
  <advance width="846"/>
  <unicode hex="0306"/>
  <anchor x="423" y="1025" name="_top"/>
  <anchor x="423" y="1680" name="top"/>
  <outline>
    <contour>
      <point x="423" y="1314" type="curve" smooth="yes"/>
      <point x="646" y="1314"/>
      <point x="813" y="1448"/>
      <point x="846" y="1645" type="curve"/>
      <point x="703" y="1680" type="line"/>
      <point x="680" y="1549"/>
      <point x="581" y="1443"/>
      <point x="423" y="1443" type="curve" smooth="yes"/>
      <point x="265" y="1443"/>
      <point x="166" y="1549"/>
      <point x="143" y="1680" type="curve"/>
      <point x="0" y="1645" type="line"/>
      <point x="33" y="1448"/>
      <point x="200" y="1314"/>
    </contour>
  </outline>
</glyph>
<glyph name="dotaccentcomb" format="2">
  <advance width="244"/>
  <unicode hex="0307"/>
  <anchor x="122" y="1024" name="_top"/>
  <anchor x="121" y="1598" name="top"/>
  <outline>
    <contour>
      <point x="122" y="1354" type="curve" smooth="yes"/>
      <point x="189" y="1354"/>
      <point x="244" y="1409"/>
      <point x="244" y="1476" type="curve" smooth="yes"/>
      <point x="244" y="1543"/>
      <point x="189" y="1598"/>
      <point x="122" y="1598" type="curve" smooth="yes"/>
      <point x="55" y="1598"/>
      <point x="0" y="1543"/>
      <point x="0" y="1476" type="curve" smooth="yes"/>
      <point x="0" y="1409"/>
      <point x="55" y="1354"/>
    </contour>
  </outline>
</glyph>
<glyph name="dieresiscomb" format="2">
  <advance width="694"/>
  <unicode hex="0308"/>
  <anchor x="347" y="1024" name="_top"/>
  <anchor x="347" y="1509" name="top"/>
  <outline>
    <contour>
      <point x="583" y="1287" type="curve" smooth="yes"/>
      <point x="644" y="1287"/>
      <point x="694" y="1337"/>
      <point x="694" y="1398" type="curve" smooth="yes"/>
      <point x="694" y="1459"/>
      <point x="644" y="1509"/>
      <point x="583" y="1509" type="curve" smooth="yes"/>
      <point x="522" y="1509"/>
      <point x="472" y="1459"/>
      <point x="472" y="1398" type="curve" smooth="yes"/>
      <point x="472" y="1337"/>
      <point x="522" y="1287"/>
    </contour>
    <contour>
      <point x="111" y="1287" type="curve" smooth="yes"/>
      <point x="172" y="1287"/>
      <point x="222" y="1337"/>
      <point x="222" y="1398" type="curve" smooth="yes"/>
      <point x="222" y="1459"/>
      <point x="172" y="1509"/>
      <point x="111" y="1509" type="curve" smooth="yes"/>
      <point x="50" y="1509"/>
      <point x="0" y="1459"/>
      <point x="0" y="1398" type="curve" smooth="yes"/>
      <point x="0" y="1337"/>
      <point x="50" y="1287"/>
    </contour>
  </outline>
</glyph>
<glyph name="ringcomb" format="2">
  <advance width="506"/>
  <unicode hex="030A"/>
  <anchor x="253" y="1024" name="_top"/>
  <anchor x="253" y="1688" name="top"/>
  <outline>
    <contour>
      <point x="253" y="1240" type="curve" smooth="yes"/>
      <point x="395" y="1240"/>
      <point x="506" y="1333"/>
      <point x="506" y="1464" type="curve" smooth="yes"/>
      <point x="506" y="1595"/>
      <point x="395" y="1688"/>
      <point x="253" y="1688" type="curve" smooth="yes"/>
      <point x="111" y="1688"/>
      <point x="0" y="1595"/>
      <point x="0" y="1464" type="curve" smooth="yes"/>
      <point x="0" y="1333"/>
      <point x="111" y="1240"/>
    </contour>
    <contour>
      <point x="253" y="1342" type="curve" smooth="yes"/>
      <point x="178" y="1342"/>
      <point x="121" y="1395"/>
      <point x="121" y="1464" type="curve" smooth="yes"/>
      <point x="121" y="1533"/>
      <point x="178" y="1586"/>
      <point x="253" y="1586" type="curve" smooth="yes"/>
      <point x="328" y="1586"/>
      <point x="385" y="1533"/>
      <point x="385" y="1464" type="curve" smooth="yes"/>
      <point x="385" y="1395"/>
      <point x="328" y="1342"/>
    </contour>
  </outline>
</glyph>
<glyph name="hungarumlautcomb" format="2">
  <advance width="788"/>
  <unicode hex="030B"/>
  <anchor x="325" y="1025" name="_top"/>
  <anchor x="325" y="1680" name="top"/>
  <outline>
    <contour>
      <point x="788" y="1540" type="line"/>
      <point x="656" y="1680" type="line"/>
      <point x="400" y="1426" type="line"/>
      <point x="483" y="1332" type="line"/>
    </contour>
    <contour>
      <point x="388" y="1540" type="line"/>
      <point x="257" y="1680" type="line"/>
      <point x="0" y="1426" type="line"/>
      <point x="83" y="1332" type="line"/>
    </contour>
  </outline>
</glyph>
<glyph name="caroncomb" format="2">
  <advance width="770"/>
  <unicode hex="030C"/>
  <anchor x="385" y="1024" name="_top"/>
  <anchor x="385" y="1680" name="top"/>
  <outline>
    <contour>
      <point x="770" y="1487" type="line"/>
      <point x="691" y="1594" type="line"/>
      <point x="385" y="1370" type="line"/>
      <point x="79" y="1594" type="line"/>
      <point x="0" y="1487" type="line"/>
      <point x="385" y="1205" type="line"/>
    </contour>
  </outline>
</glyph>
<glyph name="commaaccentcomb" format="2">
  <advance width="735"/>
  <unicode hex="0326"/>
  <anchor x="366" y="0" name="_bottom"/>
  <anchor x="366" y="-584" name="bottom"/>
  <outline>
    <contour>
      <point x="323" y="-484" type="line"/>
      <point x="398" y="-424"/>
      <point x="453" y="-315"/>
      <point x="453" y="-228" type="curve" smooth="yes"/>
      <point x="453" y="-160"/>
      <point x="419" y="-122"/>
      <point x="366" y="-122" type="curve" smooth="yes"/>
      <point x="315" y="-122"/>
      <point x="280" y="-158"/>
      <point x="280" y="-206" type="curve" smooth="yes"/>
      <point x="280" y="-251"/>
      <point x="311" y="-284"/>
      <point x="353" y="-290" type="curve"/>
      <point x="350" y="-355"/>
      <point x="324" y="-420"/>
      <point x="293" y="-458" type="curve"/>
    </contour>
  </outline>
</glyph>
<glyph name="cedillacomb" format="2">
  <advance width="520"/>
  <unicode hex="0327"/>
  <anchor x="312" y="21" name="_cedilla"/>
  <anchor x="253" y="-565" name="bottom"/>
  <outline>
    <contour>
      <point x="216" y="21" type="line"/>
      <point x="134" y="-233" type="line"/>
      <point x="145" y="-241" type="line"/>
      <point x="174" y="-224"/>
      <point x="227" y="-211"/>
      <point x="270" y="-211" type="curve" smooth="yes"/>
      <point x="350" y="-211"/>
      <point x="405" y="-255"/>
      <point x="405" y="-320" type="curve" smooth="yes"/>
      <point x="405" y="-388"/>
      <point x="349" y="-434"/>
      <point x="265" y="-434" type="curve" smooth="yes"/>
      <point x="191" y="-434"/>
      <point x="126" y="-398"/>
      <point x="85" y="-334" type="curve"/>
      <point x="0" y="-393" type="line"/>
      <point x="64" y="-487"/>
      <point x="157" y="-539"/>
      <point x="268" y="-539" type="curve" smooth="yes"/>
      <point x="415" y="-539"/>
      <point x="520" y="-449"/>
      <point x="520" y="-323" type="curve" smooth="yes"/>
      <point x="520" y="-194"/>
      <point x="400" y="-138"/>
      <point x="288" y="-138" type="curve" smooth="yes"/>
      <point x="273" y="-138"/>
      <point x="258" y="-139"/>
      <point x="243" y="-142" type="curve"/>
      <point x="254" y="-154" type="line"/>
      <point x="312" y="21" type="line"/>
    </contour>
  </outline>
</glyph>
<glyph name="ogonekcomb" format="2">
  <advance width="526"/>
  <unicode hex="0328"/>
  <anchor x="281" y="21" name="_ogonek"/>
  <outline>
    <contour>
      <point x="251" y="-538" type="curve" smooth="yes"/>
      <point x="359" y="-538"/>
      <point x="465" y="-483"/>
      <point x="526" y="-394" type="curve"/>
      <point x="441" y="-331" type="line"/>
      <point x="389" y="-392"/>
      <point x="333" y="-421"/>
      <point x="268" y="-421" type="curve" smooth="yes"/>
      <point x="172" y="-421"/>
      <point x="123" y="-361"/>
      <point x="123" y="-288" type="curve" smooth="yes"/>
      <point x="123" y="-208"/>
      <point x="182" y="-90"/>
      <point x="281" y="21" type="curve"/>
      <point x="179" y="21" type="line"/>
      <point x="64" y="-104"/>
      <point x="0" y="-221"/>
      <point x="0" y="-313" type="curve" smooth="yes"/>
      <point x="0" y="-437"/>
      <point x="105" y="-538"/>
    </contour>
  </outline>
</glyph>
<glyph name="Delta" format="2">
  <advance width="1515"/>
  <unicode hex="0394"/>
  <outline>
    <contour>
      <point x="727" y="1650" type="line"/>
      <point x="81" y="0" type="line"/>
      <point x="1434" y="0" type="line"/>
      <point x="788" y="1650" type="line"/>
    </contour>
    <contour>
      <point x="717" y="1526" type="line"/>
      <point x="1227" y="133" type="line"/>
      <point x="288" y="133" type="line"/>
      <point x="798" y="1526" type="line"/>
    </contour>
  </outline>
</glyph>
<glyph name="Omega" format="2">
  <advance width="1863"/>
  <unicode hex="03A9"/>
  <outline>
    <contour>
      <point x="931" y="1680" type="curve" smooth="yes"/>
      <point x="487" y="1680"/>
      <point x="148" y="1334"/>
      <point x="148" y="888" type="curve" smooth="yes"/>
      <point x="148" y="517"/>
      <point x="391" y="227"/>
      <point x="694" y="125" type="curve"/>
      <point x="233" y="139" type="line"/>
      <point x="233" y="0" type="line"/>
      <point x="887" y="0" type="line"/>
      <point x="887" y="102" type="line"/>
      <point x="862" y="113" type="line" smooth="yes"/>
      <point x="576" y="234"/>
      <point x="338" y="544"/>
      <point x="338" y="861" type="curve" smooth="yes"/>
      <point x="338" y="1191"/>
      <point x="568" y="1508"/>
      <point x="931" y="1508" type="curve" smooth="yes"/>
      <point x="1295" y="1508"/>
      <point x="1525" y="1191"/>
      <point x="1525" y="861" type="curve" smooth="yes"/>
      <point x="1525" y="544"/>
      <point x="1286" y="234"/>
      <point x="1001" y="113" type="curve" smooth="yes"/>
      <point x="976" y="102" type="line"/>
      <point x="976" y="0" type="line"/>
      <point x="1629" y="0" type="line"/>
      <point x="1629" y="139" type="line"/>
      <point x="1168" y="125" type="line"/>
      <point x="1472" y="227"/>
      <point x="1715" y="517"/>
      <point x="1715" y="888" type="curve" smooth="yes"/>
      <point x="1715" y="1334"/>
      <point x="1376" y="1680"/>
    </contour>
  </outline>
</glyph>
<glyph name="mu" format="2">
  <advance width="1521"/>
  <unicode hex="03BC"/>
  <outline>
    <contour>
      <point x="513" y="-320" type="line"/>
      <point x="513" y="70" type="line"/>
      <point x="553" y="6"/>
      <point x="625" y="-32"/>
      <point x="737" y="-32" type="curve" smooth="yes"/>
      <point x="850" y="-32"/>
      <point x="991" y="24"/>
      <point x="1051" y="132" type="curve"/>
      <point x="1051" y="0" type="line"/>
      <point x="1245" y="0" type="line"/>
      <point x="1245" y="1024" type="line"/>
      <point x="1051" y="1024" type="line"/>
      <point x="1051" y="378" type="line" smooth="yes"/>
      <point x="1051" y="253"/>
      <point x="946" y="123"/>
      <point x="778" y="123" type="curve" smooth="yes"/>
      <point x="600" y="123"/>
      <point x="513" y="237"/>
      <point x="513" y="421" type="curve" smooth="yes"/>
      <point x="513" y="1024" type="line"/>
      <point x="319" y="1024" type="line"/>
      <point x="319" y="433" type="line" smooth="yes"/>
      <point x="319" y="126"/>
      <point x="275" y="-24"/>
      <point x="275" y="-320" type="curve"/>
    </contour>
  </outline>
</glyph>
<glyph name="pi" format="2">
  <advance width="1313"/>
  <unicode hex="03C0"/>
  <outline>
    <contour>
      <point x="530" y="0" type="line"/>
      <point x="530" y="879" type="line"/>
      <point x="802" y="879" type="line"/>
      <point x="802" y="223" type="line" smooth="yes"/>
      <point x="802" y="61"/>
      <point x="871" y="0"/>
      <point x="1055" y="0" type="curve"/>
      <point x="1055" y="155" type="line"/>
      <point x="980" y="155"/>
      <point x="957" y="178"/>
      <point x="957" y="251" type="curve" smooth="yes"/>
      <point x="957" y="879" type="line"/>
      <point x="1126" y="879" type="line"/>
      <point x="1126" y="1024" type="line"/>
      <point x="206" y="1024" type="line"/>
      <point x="206" y="879" type="line"/>
      <point x="374" y="879" type="line"/>
      <point x="374" y="0" type="line"/>
    </contour>
  </outline>
</glyph>
<glyph name="Germandbls" format="2">
  <advance width="1592"/>
  <unicode hex="1E9E"/>
  <outline>
    <contour>
      <point x="985" y="-29" type="curve" smooth="yes"/>
      <point x="1245" y="-29"/>
      <point x="1449" y="140"/>
      <point x="1449" y="403" type="curve" smooth="yes"/>
      <point x="1449" y="766"/>
      <point x="1062" y="777"/>
      <point x="1062" y="881" type="curve" smooth="yes"/>
      <point x="1062" y="955"/>
      <point x="1254" y="1001" name=".hr01"/>
      <point x="1254" y="1264" type="curve" smooth="yes"/>
      <point x="1254" y="1533"/>
      <point x="1055" y="1681"/>
      <point x="792" y="1681" type="curve" smooth="yes"/>
      <point x="451" y="1681"/>
      <point x="256" y="1433"/>
      <point x="256" y="1031" type="curve" smooth="yes"/>
      <point x="256" y="0" type="line"/>
      <point x="460" y="0" type="line"/>
      <point x="460" y="1046" type="line" smooth="yes"/>
      <point x="460" y="1321"/>
      <point x="571" y="1481"/>
      <point x="778" y="1481" type="curve" smooth="yes"/>
      <point x="930" y="1481"/>
      <point x="1046" y="1394"/>
      <point x="1046" y="1228" type="curve" smooth="yes"/>
      <point x="1046" y="1010"/>
      <point x="844" y="1013"/>
      <point x="844" y="859" type="curve" smooth="yes"/>
      <point x="844" y="643"/>
      <point x="1247" y="691" name=".hr02"/>
      <point x="1247" y="417" type="curve" smooth="yes"/>
      <point x="1247" y="263"/>
      <point x="1131" y="167"/>
      <point x="975" y="167" type="curve" smooth="yes"/>
      <point x="881" y="167"/>
      <point x="798" y="200"/>
      <point x="702" y="258" type="curve"/>
      <point x="600" y="94" type="line"/>
      <point x="736" y="12"/>
      <point x="861" y="-29"/>
    </contour>
  </outline>
</glyph>
<glyph name="endash" format="2">
  <advance width="1326"/>
  <unicode hex="2013"/>
  <outline>
    <contour>
      <point x="1121" y="496" type="line"/>
      <point x="1121" y="662" type="line"/>
      <point x="205" y="662" type="line"/>
      <point x="205" y="496" type="line"/>
    </contour>
  </outline>
</glyph>
<glyph name="emdash" format="2">
  <advance width="2216"/>
  <unicode hex="2014"/>
  <outline>
    <contour>
      <point x="2011" y="496" type="line"/>
      <point x="2011" y="662" type="line"/>
      <point x="205" y="662" type="line"/>
      <point x="205" y="496" type="line"/>
    </contour>
  </outline>
</glyph>
<glyph name="quotesinglbase" format="2">
  <advance width="735"/>
  <unicode hex="201A"/>
  <outline>
    <contour>
      <point x="260" y="-248" type="line"/>
      <point x="371" y="-158"/>
      <point x="448" y="-26"/>
      <point x="448" y="81" type="curve" smooth="yes"/>
      <point x="448" y="173"/>
      <point x="391" y="224"/>
      <point x="321" y="224" type="curve" smooth="yes"/>
      <point x="250" y="224"/>
      <point x="196" y="171"/>
      <point x="196" y="103" type="curve" smooth="yes"/>
      <point x="196" y="45"/>
      <point x="235" y="-2"/>
      <point x="294" y="-14" type="curve"/>
      <point x="287" y="-83"/>
      <point x="248" y="-167"/>
      <point x="211" y="-207" type="curve"/>
    </contour>
  </outline>
</glyph>
<glyph name="dagger" format="2">
  <advance width="1132"/>
  <unicode hex="2020"/>
  <outline>
    <contour>
      <point x="652" y="0" type="line"/>
      <point x="652" y="1086" type="line"/>
      <point x="968" y="1086" type="line"/>
      <point x="968" y="1242" type="line"/>
      <point x="652" y="1242" type="line"/>
      <point x="652" y="1720" type="line"/>
      <point x="480" y="1720" type="line"/>
      <point x="480" y="1242" type="line"/>
      <point x="164" y="1242" type="line"/>
      <point x="164" y="1086" type="line"/>
      <point x="480" y="1086" type="line"/>
      <point x="480" y="0" type="line"/>
    </contour>
  </outline>
</glyph>
<glyph name="daggerdbl" format="2">
  <advance width="1202"/>
  <unicode hex="2021"/>
  <outline>
    <contour>
      <point x="687" y="0" type="line"/>
      <point x="687" y="518" type="line"/>
      <point x="1003" y="518" type="line"/>
      <point x="1003" y="674" type="line"/>
      <point x="687" y="674" type="line"/>
      <point x="687" y="1067" type="line"/>
      <point x="1003" y="1067" type="line"/>
      <point x="1003" y="1224" type="line"/>
      <point x="687" y="1224" type="line"/>
      <point x="687" y="1720" type="line"/>
      <point x="515" y="1720" type="line"/>
      <point x="515" y="1224" type="line"/>
      <point x="199" y="1224" type="line"/>
      <point x="199" y="1067" type="line"/>
      <point x="515" y="1067" type="line"/>
      <point x="515" y="674" type="line"/>
      <point x="199" y="674" type="line"/>
      <point x="199" y="518" type="line"/>
      <point x="515" y="518" type="line"/>
      <point x="515" y="0" type="line"/>
    </contour>
  </outline>
</glyph>
<glyph name="bullet" format="2">
  <advance width="904"/>
  <unicode hex="2022"/>
  <outline>
    <contour>
      <point x="452" y="502" type="curve" smooth="yes"/>
      <point x="570" y="502"/>
      <point x="664" y="596"/>
      <point x="664" y="714" type="curve" smooth="yes"/>
      <point x="664" y="832"/>
      <point x="570" y="926"/>
      <point x="452" y="926" type="curve" smooth="yes"/>
      <point x="334" y="926"/>
      <point x="240" y="832"/>
      <point x="240" y="714" type="curve" smooth="yes"/>
      <point x="240" y="596"/>
      <point x="334" y="502"/>
    </contour>
  </outline>
</glyph>
<glyph name="perthousand" format="2">
  <advance width="3115"/>
  <unicode hex="2030"/>
  <outline>
    <component base="percent"/>
    <contour>
      <point x="2536" y="-32" type="curve" smooth="yes"/>
      <point x="2773" y="-32"/>
      <point x="2955" y="130"/>
      <point x="2955" y="362" type="curve" smooth="yes"/>
      <point x="2955" y="594"/>
      <point x="2773" y="756"/>
      <point x="2536" y="756" type="curve" smooth="yes"/>
      <point x="2299" y="756"/>
      <point x="2117" y="594"/>
      <point x="2117" y="362" type="curve" smooth="yes"/>
      <point x="2117" y="130"/>
      <point x="2299" y="-32"/>
    </contour>
    <contour>
      <point x="2536" y="94" type="curve" smooth="yes"/>
      <point x="2384" y="94"/>
      <point x="2269" y="205"/>
      <point x="2269" y="362" type="curve" smooth="yes"/>
      <point x="2269" y="519"/>
      <point x="2384" y="630"/>
      <point x="2536" y="630" type="curve" smooth="yes"/>
      <point x="2688" y="630"/>
      <point x="2803" y="519"/>
      <point x="2803" y="362" type="curve" smooth="yes"/>
      <point x="2803" y="205"/>
      <point x="2688" y="94"/>
    </contour>
  </outline>
</glyph>
<glyph name="guilsinglleft" format="2">
  <advance width="748"/>
  <unicode hex="2039"/>
  <outline>
    <contour>
      <point x="615" y="144" type="line"/>
      <point x="293" y="557" type="line"/>
      <point x="615" y="970" type="line"/>
      <point x="504" y="1057" type="line"/>
      <point x="114" y="557" type="line"/>
      <point x="504" y="57" type="line"/>
    </contour>
  </outline>
</glyph>
<glyph name="guilsinglright" format="2">
  <advance width="746"/>
  <unicode hex="203A"/>
  <outline>
    <contour>
      <point x="632" y="557" type="line"/>
      <point x="242" y="1057" type="line"/>
      <point x="131" y="970" type="line"/>
      <point x="454" y="557" type="line"/>
      <point x="131" y="144" type="line"/>
      <point x="242" y="57" type="line"/>
    </contour>
  </outline>
</glyph>
<glyph name="fraction" format="2">
  <advance width="295"/>
  <unicode hex="2044"/>
  <outline>
    <contour>
      <point x="-328" y="0" type="line"/>
      <point x="755" y="1650" type="line"/>
      <point x="623" y="1650" type="line"/>
      <point x="-460" y="0" type="line"/>
    </contour>
  </outline>
</glyph>
<glyph name="foursuperior" format="2">
  <advance width="924"/>
  <unicode hex="2074"/>
  <outline>
    <contour>
      <point x="636" y="1040" type="line"/>
      <point x="636" y="1151" type="line"/>
      <point x="715" y="1151" type="line"/>
      <point x="715" y="1236" type="line"/>
      <point x="636" y="1236" type="line"/>
      <point x="636" y="1650" type="line"/>
      <point x="543" y="1650" type="line"/>
      <point x="207" y="1187" type="line"/>
      <point x="207" y="1151" type="line"/>
      <point x="545" y="1151" type="line"/>
      <point x="545" y="1040" type="line"/>
    </contour>
    <contour>
      <point x="545" y="1528" type="line"/>
      <point x="545" y="1236" type="line"/>
      <point x="338" y="1236" type="line"/>
    </contour>
  </outline>
</glyph>
<glyph name="euro" format="2">
  <advance width="1937"/>
  <unicode hex="20AC"/>
  <outline>
    <component base="C" xOffset="236"/>
    <contour>
      <point x="199" y="1055" type="line"/>
      <point x="199" y="930" type="line"/>
      <point x="1443" y="930" type="line"/>
      <point x="1443" y="1055" type="line"/>
    </contour>
    <contour>
      <point x="199" y="717" type="line"/>
      <point x="199" y="592" type="line"/>
      <point x="1443" y="592" type="line"/>
      <point x="1443" y="717" type="line"/>
    </contour>
  </outline>
</glyph>
<glyph name="arrowleft" format="2">
  <advance width="2090"/>
  <unicode hex="2190"/>
  <outline>
    <contour>
      <point x="337" y="927" type="line"/>
      <point x="337" y="723" type="line"/>
      <point x="1885" y="723" type="line"/>
      <point x="1885" y="927" type="line"/>
    </contour>
    <contour>
      <point x="205" y="825" type="line"/>
      <point x="1030" y="0" type="line"/>
      <point x="1317" y="0" type="line"/>
      <point x="449" y="844" type="line"/>
      <point x="449" y="806" type="line"/>
      <point x="1317" y="1650" type="line"/>
      <point x="1030" y="1650" type="line"/>
    </contour>
  </outline>
</glyph>
<glyph name="arrowup" format="2">
  <advance width="2060"/>
  <unicode hex="2191"/>
  <outline>
    <contour>
      <point x="1132" y="1548" type="line"/>
      <point x="928" y="1548" type="line"/>
      <point x="928" y="0" type="line"/>
      <point x="1132" y="0" type="line"/>
    </contour>
    <contour>
      <point x="1030" y="1680" type="line"/>
      <point x="205" y="855" type="line"/>
      <point x="205" y="568" type="line"/>
      <point x="1049" y="1436" type="line"/>
      <point x="1011" y="1436" type="line"/>
      <point x="1855" y="568" type="line"/>
      <point x="1855" y="855" type="line"/>
    </contour>
  </outline>
</glyph>
<glyph name="arrowboth" format="2">
  <advance width="2574"/>
  <unicode hex="2194"/>
  <outline>
    <contour>
      <point x="332" y="927" type="line"/>
      <point x="332" y="723" type="line"/>
      <point x="2250" y="723" type="line"/>
      <point x="2250" y="927" type="line"/>
    </contour>
    <contour>
      <point x="830" y="1650" type="line"/>
      <point x="205" y="825" type="line"/>
      <point x="830" y="0" type="line"/>
      <point x="1091" y="0" type="line"/>
      <point x="441" y="844" type="line"/>
      <point x="441" y="806" type="line"/>
      <point x="1091" y="1650" type="line"/>
    </contour>
    <contour>
      <point x="1482" y="1650" type="line"/>
      <point x="2133" y="806" type="line"/>
      <point x="2133" y="844" type="line"/>
      <point x="1482" y="0" type="line"/>
      <point x="1744" y="0" type="line"/>
      <point x="2369" y="825" type="line"/>
      <point x="1744" y="1650" type="line"/>
    </contour>
  </outline>
</glyph>
<glyph name="arrowupdn" format="2">
  <advance width="1540"/>
  <unicode hex="2195"/>
  <outline>
    <contour>
      <point x="872" y="1548" type="line"/>
      <point x="668" y="1548" type="line"/>
      <point x="668" y="98" type="line"/>
      <point x="872" y="98" type="line"/>
    </contour>
    <contour>
      <point x="770" y="1680" type="line"/>
      <point x="205" y="1193" type="line"/>
      <point x="205" y="975" type="line"/>
      <point x="789" y="1483" type="line"/>
      <point x="751" y="1483" type="line"/>
      <point x="1335" y="975" type="line"/>
      <point x="1335" y="1193" type="line"/>
    </contour>
    <contour>
      <point x="205" y="675" type="line"/>
      <point x="205" y="457" type="line"/>
      <point x="770" y="-30" type="line"/>
      <point x="1335" y="457" type="line"/>
      <point x="1335" y="675" type="line"/>
      <point x="751" y="167" type="line"/>
      <point x="789" y="167" type="line"/>
    </contour>
  </outline>
</glyph>
<glyph name="arrowNW" format="2">
  <advance width="1965"/>
  <unicode hex="2196"/>
  <outline>
    <contour>
      <point x="371" y="1629" type="line"/>
      <point x="227" y="1484" type="line"/>
      <point x="1563" y="147" type="line"/>
      <point x="1708" y="292" type="line"/>
    </contour>
    <contour>
      <point x="205" y="1650" type="line"/>
      <point x="205" y="298" type="line"/>
      <point x="408" y="96" type="line"/>
      <point x="391" y="1491" type="line"/>
      <point x="364" y="1464" type="line"/>
      <point x="1760" y="1447" type="line"/>
      <point x="1557" y="1650" type="line"/>
    </contour>
  </outline>
</glyph>
<glyph name="arrowNE" format="2">
  <advance width="1964"/>
  <unicode hex="2197"/>
  <outline>
    <contour>
      <point x="1738" y="1485" type="line"/>
      <point x="1593" y="1629" type="line"/>
      <point x="256" y="293" type="line"/>
      <point x="401" y="148" type="line"/>
    </contour>
    <contour>
      <point x="1759" y="1651" type="line"/>
      <point x="407" y="1651" type="line"/>
      <point x="205" y="1448" type="line"/>
      <point x="1600" y="1465" type="line"/>
      <point x="1573" y="1492" type="line"/>
      <point x="1556" y="96" type="line"/>
      <point x="1759" y="299" type="line"/>
    </contour>
  </outline>
</glyph>
<glyph name="arrowSE" format="2">
  <advance width="1965"/>
  <unicode hex="2198"/>
  <outline>
    <contour>
      <point x="1594" y="21" type="line"/>
      <point x="1738" y="166" type="line"/>
      <point x="402" y="1503" type="line"/>
      <point x="257" y="1358" type="line"/>
    </contour>
    <contour>
      <point x="1760" y="0" type="line"/>
      <point x="1760" y="1352" type="line"/>
      <point x="1557" y="1554" type="line"/>
      <point x="1574" y="159" type="line"/>
      <point x="1601" y="186" type="line"/>
      <point x="205" y="203" type="line"/>
      <point x="408" y="0" type="line"/>
    </contour>
  </outline>
</glyph>
<glyph name="arrowSW" format="2">
  <advance width="1965"/>
  <unicode hex="2199"/>
  <outline>
    <contour>
      <point x="226" y="166" type="line"/>
      <point x="371" y="22" type="line"/>
      <point x="1708" y="1358" type="line"/>
      <point x="1563" y="1503" type="line"/>
    </contour>
    <contour>
      <point x="205" y="0" type="line"/>
      <point x="1557" y="0" type="line"/>
      <point x="1760" y="203" type="line"/>
      <point x="364" y="186" type="line"/>
      <point x="391" y="159" type="line"/>
      <point x="408" y="1555" type="line"/>
      <point x="205" y="1352" type="line"/>
    </contour>
  </outline>
</glyph>
<glyph name="partialdiff" format="2">
  <advance width="1488"/>
  <unicode hex="2202"/>
  <outline>
    <contour>
      <point x="761" y="-34" type="curve" smooth="yes"/>
      <point x="1136" y="-34"/>
      <point x="1334" y="237"/>
      <point x="1334" y="677" type="curve" smooth="yes"/>
      <point x="1334" y="1168"/>
      <point x="1084" y="1562"/>
      <point x="662" y="1802" type="curve"/>
      <point x="575" y="1656" type="line"/>
      <point x="892" y="1473"/>
      <point x="1071" y="1197"/>
      <point x="1109" y="845" type="curve"/>
      <point x="1046" y="985"/>
      <point x="881" y="1071"/>
      <point x="707" y="1071" type="curve" smooth="yes"/>
      <point x="388" y="1071"/>
      <point x="155" y="820"/>
      <point x="155" y="521" type="curve" smooth="yes"/>
      <point x="155" y="202"/>
      <point x="418" y="-34"/>
    </contour>
    <contour>
      <point x="740" y="139" type="curve" smooth="yes"/>
      <point x="537" y="139"/>
      <point x="357" y="282"/>
      <point x="357" y="509" type="curve" smooth="yes"/>
      <point x="357" y="711"/>
      <point x="501" y="892"/>
      <point x="729" y="892" type="curve" smooth="yes"/>
      <point x="932" y="892"/>
      <point x="1112" y="747"/>
      <point x="1112" y="521" type="curve" smooth="yes"/>
      <point x="1112" y="319"/>
      <point x="967" y="139"/>
    </contour>
  </outline>
</glyph>
<glyph name="emptyset" format="2">
  <advance width="1200"/>
  <unicode hex="2205"/>
  <outline>
    <contour>
      <point x="1110" y="1063" type="line"/>
      <point x="1039" y="1136" type="line"/>
      <point x="117" y="214" type="line"/>
      <point x="190" y="142" type="line"/>
    </contour>
    <contour>
      <point x="614" y="177" type="curve" smooth="yes"/>
      <point x="870" y="177"/>
      <point x="1074" y="379"/>
      <point x="1074" y="639" type="curve" smooth="yes"/>
      <point x="1074" y="897"/>
      <point x="873" y="1100"/>
      <point x="615" y="1100" type="curve" smooth="yes"/>
      <point x="356" y="1100"/>
      <point x="154" y="895"/>
      <point x="154" y="638" type="curve" smooth="yes"/>
      <point x="154" y="381"/>
      <point x="356" y="177"/>
    </contour>
    <contour>
      <point x="614" y="307" type="curve" smooth="yes"/>
      <point x="426" y="307"/>
      <point x="281" y="449"/>
      <point x="281" y="639" type="curve" smooth="yes"/>
      <point x="281" y="828"/>
      <point x="426" y="970"/>
      <point x="614" y="970" type="curve" smooth="yes"/>
      <point x="802" y="970"/>
      <point x="948" y="828"/>
      <point x="948" y="639" type="curve" smooth="yes"/>
      <point x="948" y="449"/>
      <point x="802" y="307"/>
    </contour>
  </outline>
</glyph>
<glyph name="product" format="2">
  <advance width="1828"/>
  <unicode hex="220F"/>
  <outline>
    <contour>
      <point x="579" y="0" type="line"/>
      <point x="579" y="1575" type="line"/>
      <point x="1248" y="1575" type="line"/>
      <point x="1248" y="0" type="line"/>
      <point x="1403" y="0" type="line"/>
      <point x="1403" y="1575" type="line"/>
      <point x="1572" y="1575" type="line"/>
      <point x="1572" y="1720" type="line"/>
      <point x="256" y="1720" type="line"/>
      <point x="256" y="1575" type="line"/>
      <point x="424" y="1575" type="line"/>
      <point x="424" y="0" type="line"/>
    </contour>
  </outline>
</glyph>
<glyph name="summation" format="2">
  <advance width="1597"/>
  <unicode hex="2211"/>
  <outline>
    <contour>
      <point x="1341" y="0" type="line"/>
      <point x="1341" y="145" type="line"/>
      <point x="528" y="145" type="line"/>
      <point x="1006" y="860" type="line"/>
      <point x="528" y="1575" type="line"/>
      <point x="1341" y="1575" type="line"/>
      <point x="1341" y="1720" type="line"/>
      <point x="256" y="1720" type="line"/>
      <point x="834" y="860" type="line"/>
      <point x="256" y="0" type="line"/>
    </contour>
  </outline>
</glyph>
<glyph name="minus" format="2">
  <advance width="1639"/>
  <unicode hex="2212"/>
  <outline>
    <contour>
      <point x="1332" y="745" type="line"/>
      <point x="1332" y="913" type="line"/>
      <point x="307" y="913" type="line"/>
      <point x="307" y="745" type="line"/>
    </contour>
  </outline>
</glyph>
<glyph name="DivisionSlash" format="2">
  <advance width="1033"/>
  <unicode hex="2215"/>
  <outline>
    <contour>
      <point x="186" y="-240" type="line"/>
      <point x="1010" y="1720" type="line"/>
      <point x="847" y="1720" type="line"/>
      <point x="23" y="-240" type="line"/>
    </contour>
  </outline>
</glyph>
<glyph name="radical" format="2">
  <advance width="1713"/>
  <unicode hex="221A"/>
  <outline>
    <contour>
      <point x="688" y="-32" type="line"/>
      <point x="1082" y="1575" type="line"/>
      <point x="1457" y="1575" type="line"/>
      <point x="1457" y="1720" type="line"/>
      <point x="958" y="1720" type="line"/>
      <point x="588" y="151" type="line"/>
      <point x="412" y="609" type="line"/>
      <point x="256" y="609" type="line"/>
      <point x="506" y="-32" type="line"/>
    </contour>
  </outline>
</glyph>
<glyph name="infinity" format="2">
  <advance width="2134"/>
  <unicode hex="221E"/>
  <outline>
    <contour>
      <point x="566" y="94" type="curve" smooth="yes"/>
      <point x="757" y="94"/>
      <point x="909" y="235"/>
      <point x="1067" y="424" type="curve"/>
      <point x="1225" y="235"/>
      <point x="1376" y="94"/>
      <point x="1568" y="94" type="curve" smooth="yes"/>
      <point x="1792" y="94"/>
      <point x="2011" y="281"/>
      <point x="2011" y="545" type="curve" smooth="yes"/>
      <point x="2011" y="809"/>
      <point x="1791" y="995"/>
      <point x="1568" y="995" type="curve" smooth="yes"/>
      <point x="1376" y="995"/>
      <point x="1225" y="854"/>
      <point x="1067" y="666" type="curve"/>
      <point x="909" y="854"/>
      <point x="757" y="995"/>
      <point x="566" y="995" type="curve" smooth="yes"/>
      <point x="343" y="995"/>
      <point x="123" y="809"/>
      <point x="123" y="545" type="curve" smooth="yes"/>
      <point x="123" y="281"/>
      <point x="342" y="94"/>
    </contour>
    <contour>
      <point x="587" y="264" type="curve" smooth="yes"/>
      <point x="451" y="264"/>
      <point x="313" y="378"/>
      <point x="313" y="545" type="curve" smooth="yes"/>
      <point x="313" y="712"/>
      <point x="452" y="825"/>
      <point x="587" y="825" type="curve" smooth="yes"/>
      <point x="730" y="825"/>
      <point x="834" y="700"/>
      <point x="967" y="545" type="curve"/>
      <point x="834" y="389"/>
      <point x="729" y="264"/>
    </contour>
    <contour>
      <point x="1546" y="264" type="curve" smooth="yes"/>
      <point x="1404" y="264"/>
      <point x="1300" y="389"/>
      <point x="1167" y="545" type="curve"/>
      <point x="1300" y="700"/>
      <point x="1404" y="825"/>
      <point x="1546" y="825" type="curve" smooth="yes"/>
      <point x="1682" y="825"/>
      <point x="1821" y="712"/>
      <point x="1821" y="545" type="curve" smooth="yes"/>
      <point x="1821" y="378"/>
      <point x="1683" y="264"/>
    </contour>
  </outline>
</glyph>
<glyph name="integral" format="2">
  <advance width="898"/>
  <unicode hex="222B"/>
  <outline>
    <contour>
      <point x="61" y="-551" type="curve" smooth="yes"/>
      <point x="260" y="-551"/>
      <point x="387" y="-408"/>
      <point x="411" y="-158" type="curve"/>
      <point x="562" y="1358" type="line"/>
      <point x="576" y="1509"/>
      <point x="632" y="1579"/>
      <point x="734" y="1579" type="curve" smooth="yes"/>
      <point x="777" y="1579"/>
      <point x="818" y="1566"/>
      <point x="844" y="1545" type="curve"/>
      <point x="925" y="1682" type="line"/>
      <point x="874" y="1726"/>
      <point x="798" y="1750"/>
      <point x="716" y="1750" type="curve" smooth="yes"/>
      <point x="517" y="1750"/>
      <point x="391" y="1607"/>
      <point x="367" y="1357" type="curve"/>
      <point x="216" y="-159" type="line" smooth="yes"/>
      <point x="201" y="-310"/>
      <point x="145" y="-380"/>
      <point x="44" y="-380" type="curve" smooth="yes"/>
      <point x="0" y="-380"/>
      <point x="-40" y="-367"/>
      <point x="-67" y="-346" type="curve"/>
      <point x="-148" y="-483" type="line"/>
      <point x="-97" y="-527"/>
      <point x="-21" y="-551"/>
    </contour>
  </outline>
</glyph>
<glyph name="notequal" format="2">
  <advance width="1495"/>
  <unicode hex="2260"/>
  <outline>
    <component base="equal" xOffset="-69"/>
    <contour>
      <point x="419" y="230" type="line"/>
      <point x="1110" y="1420" type="line"/>
      <point x="974" y="1420" type="line"/>
      <point x="283" y="230" type="line"/>
    </contour>
  </outline>
</glyph>
<glyph name="lessequal" format="2">
  <advance width="1521"/>
  <unicode hex="2264"/>
  <outline>
    <contour>
      <point x="1289" y="619" type="line"/>
      <point x="397" y="1024" type="line"/>
      <point x="1289" y="1432" type="line"/>
      <point x="1289" y="1588" type="line"/>
      <point x="194" y="1090" type="line"/>
      <point x="194" y="962" type="line"/>
      <point x="1289" y="464" type="line"/>
    </contour>
    <contour>
      <point x="1289" y="119" type="line"/>
      <point x="1289" y="287" type="line"/>
      <point x="194" y="287" type="line"/>
      <point x="194" y="119" type="line"/>
    </contour>
  </outline>
</glyph>
<glyph name="greaterequal" format="2">
  <advance width="1521"/>
  <unicode hex="2265"/>
  <outline>
    <contour>
      <point x="1327" y="962" type="line"/>
      <point x="1327" y="1090" type="line"/>
      <point x="233" y="1588" type="line"/>
      <point x="233" y="1432" type="line"/>
      <point x="1124" y="1024" type="line"/>
      <point x="233" y="619" type="line"/>
      <point x="233" y="464" type="line"/>
    </contour>
    <contour>
      <point x="1327" y="119" type="line"/>
      <point x="1327" y="287" type="line"/>
      <point x="233" y="287" type="line"/>
      <point x="233" y="119" type="line"/>
    </contour>
  </outline>
</glyph>
<glyph name="lozenge" format="2">
  <advance width="1200"/>
  <unicode hex="25CA"/>
  <outline>
    <contour>
      <point x="678" y="-80" type="line"/>
      <point x="1098" y="795" type="line"/>
      <point x="678" y="1670" type="line"/>
      <point x="522" y="1670" type="line"/>
      <point x="102" y="795" type="line"/>
      <point x="522" y="-80" type="line"/>
    </contour>
    <contour>
      <point x="281" y="795" type="line"/>
      <point x="600" y="1457" type="line"/>
      <point x="919" y="795" type="line"/>
      <point x="600" y="133" type="line"/>
    </contour>
  </outline>
</glyph>
<glyph name="f_f" format="2">
  <advance width="1399"/>
  <unicode hex="FB00"/>
  <anchor x="672" y="0" name="caret_1"/>
  <outline>
    <contour>
      <point x="444" y="0" type="line"/>
      <point x="444" y="876" type="line"/>
      <point x="786" y="876" type="line"/>
      <point x="786" y="0" type="line"/>
      <point x="981" y="0" type="line"/>
      <point x="981" y="876" type="line"/>
      <point x="1236" y="876" type="line"/>
      <point x="1236" y="1024" type="line"/>
      <point x="981" y="1024" type="line"/>
      <point x="981" y="1358" type="line" smooth="yes"/>
      <point x="981" y="1516"/>
      <point x="1026" y="1579"/>
      <point x="1129" y="1579" type="curve" smooth="yes"/>
      <point x="1181" y="1579"/>
      <point x="1220" y="1564"/>
      <point x="1246" y="1545" type="curve"/>
      <point x="1313" y="1682" type="line"/>
      <point x="1273" y="1714"/>
      <point x="1202" y="1750"/>
      <point x="1098" y="1750" type="curve" smooth="yes"/>
      <point x="906" y="1750"/>
      <point x="786" y="1614"/>
      <point x="786" y="1357" type="curve" smooth="yes"/>
      <point x="786" y="1024" type="line"/>
      <point x="444" y="1024" type="line"/>
      <point x="444" y="1358" type="line" smooth="yes"/>
      <point x="444" y="1516"/>
      <point x="489" y="1579"/>
      <point x="592" y="1579" type="curve" smooth="yes"/>
      <point x="634" y="1579"/>
      <point x="669" y="1567"/>
      <point x="693" y="1554" type="curve"/>
      <point x="763" y="1691" type="line"/>
      <point x="722" y="1720"/>
      <point x="653" y="1750"/>
      <point x="561" y="1750" type="curve" smooth="yes"/>
      <point x="370" y="1750"/>
      <point x="250" y="1614"/>
      <point x="250" y="1357" type="curve" smooth="yes"/>
      <point x="250" y="1024" type="line"/>
      <point x="136" y="1024" type="line"/>
      <point x="136" y="876" type="line"/>
      <point x="250" y="876" type="line"/>
      <point x="250" y="0" type="line"/>
    </contour>
  </outline>
</glyph>
<glyph name="fi" format="2">
  <advance width="1102"/>
  <unicode hex="FB01"/>
  <anchor x="558" y="0" name="caret_1"/>
  <outline>
    <contour>
      <point x="424" y="0" type="line"/>
      <point x="424" y="876" type="line"/>
      <point x="749" y="876" type="line"/>
      <point x="749" y="0" type="line"/>
      <point x="944" y="0" type="line"/>
      <point x="944" y="1024" type="line"/>
      <point x="424" y="1024" type="line"/>
      <point x="424" y="1358" type="line" smooth="yes"/>
      <point x="424" y="1516"/>
      <point x="477" y="1580"/>
      <point x="593" y="1580" type="curve" smooth="yes"/>
      <point x="665" y="1580"/>
      <point x="748" y="1536"/>
      <point x="787" y="1482" type="curve"/>
      <point x="868" y="1607" type="line"/>
      <point x="806" y="1686"/>
      <point x="682" y="1750"/>
      <point x="541" y="1750" type="curve" smooth="yes"/>
      <point x="350" y="1750"/>
      <point x="229" y="1614"/>
      <point x="229" y="1357" type="curve" smooth="yes"/>
      <point x="229" y="1024" type="line"/>
      <point x="116" y="1024" type="line"/>
      <point x="116" y="876" type="line"/>
      <point x="229" y="876" type="line"/>
      <point x="229" y="0" type="line"/>
    </contour>
  </outline>
</glyph>
<glyph name="fl" format="2">
  <advance width="1220"/>
  <unicode hex="FB02"/>
  <anchor x="601" y="0" name="caret_1"/>
  <outline>
    <contour>
      <point x="436" y="0" type="line"/>
      <point x="436" y="876" type="line"/>
      <point x="691" y="876" type="line"/>
      <point x="691" y="1024" type="line"/>
      <point x="436" y="1024" type="line"/>
      <point x="436" y="1358" type="line" smooth="yes"/>
      <point x="436" y="1516"/>
      <point x="481" y="1579"/>
      <point x="584" y="1579" type="curve" smooth="yes"/>
      <point x="618" y="1579"/>
      <point x="648" y="1572"/>
      <point x="674" y="1559" type="curve"/>
      <point x="724" y="1711" type="line"/>
      <point x="690" y="1730"/>
      <point x="632" y="1750"/>
      <point x="553" y="1750" type="curve" smooth="yes"/>
      <point x="362" y="1750"/>
      <point x="243" y="1614"/>
      <point x="243" y="1357" type="curve" smooth="yes"/>
      <point x="243" y="1024" type="line"/>
      <point x="128" y="1024" type="line"/>
      <point x="128" y="876" type="line"/>
      <point x="243" y="876" type="line"/>
      <point x="243" y="0" type="line"/>
    </contour>
    <contour>
      <point x="987" y="0" type="line"/>
      <point x="987" y="1720" type="line" name=".hr01"/>
      <point x="794" y="1720" type="line"/>
      <point x="794" y="0" type="line"/>
    </contour>
  </outline>
</glyph>
<glyph name="f_f_i" format="2">
  <advance width="1696"/>
  <unicode hex="FB03"/>
  <anchor x="564" y="0" name="caret_1"/>
  <anchor x="1128" y="0" name="caret_2"/>
  <outline>
    <contour>
      <point x="453" y="0" type="line"/>
      <point x="453" y="876" type="line"/>
      <point x="795" y="876" type="line"/>
      <point x="795" y="0" type="line"/>
      <point x="990" y="0" type="line"/>
      <point x="990" y="876" type="line"/>
      <point x="1314" y="876" type="line"/>
      <point x="1314" y="0" type="line"/>
      <point x="1509" y="0" type="line"/>
      <point x="1509" y="1024" type="line"/>
      <point x="990" y="1024" type="line"/>
      <point x="990" y="1358" type="line" smooth="yes"/>
      <point x="990" y="1516"/>
      <point x="1043" y="1580"/>
      <point x="1159" y="1580" type="curve" smooth="yes"/>
      <point x="1232" y="1580"/>
      <point x="1315" y="1536"/>
      <point x="1353" y="1482" type="curve"/>
      <point x="1435" y="1607" type="line"/>
      <point x="1373" y="1686"/>
      <point x="1248" y="1750"/>
      <point x="1108" y="1750" type="curve" smooth="yes"/>
      <point x="916" y="1750"/>
      <point x="795" y="1614"/>
      <point x="795" y="1357" type="curve" smooth="yes"/>
      <point x="795" y="1024" type="line"/>
      <point x="453" y="1024" type="line"/>
      <point x="453" y="1358" type="line" smooth="yes"/>
      <point x="453" y="1516"/>
      <point x="497" y="1579"/>
      <point x="600" y="1579" type="curve" smooth="yes"/>
      <point x="642" y="1579"/>
      <point x="678" y="1567"/>
      <point x="701" y="1554" type="curve"/>
      <point x="772" y="1691" type="line"/>
      <point x="731" y="1720"/>
      <point x="661" y="1750"/>
      <point x="569" y="1750" type="curve" smooth="yes"/>
      <point x="378" y="1750"/>
      <point x="258" y="1614"/>
      <point x="258" y="1357" type="curve" smooth="yes"/>
      <point x="258" y="1024" type="line"/>
      <point x="145" y="1024" type="line"/>
      <point x="145" y="876" type="line"/>
      <point x="258" y="876" type="line"/>
      <point x="258" y="0" type="line"/>
    </contour>
  </outline>
</glyph>
<glyph name="f_f_l" format="2">
  <advance width="1759"/>
  <unicode hex="FB04"/>
  <anchor x="569" y="0" name="caret_1"/>
  <anchor x="1153" y="0" name="caret_2"/>
  <outline>
    <contour>
      <point x="438" y="0" type="line"/>
      <point x="438" y="876" type="line"/>
      <point x="780" y="876" type="line"/>
      <point x="780" y="0" type="line"/>
      <point x="974" y="0" type="line"/>
      <point x="974" y="876" type="line"/>
      <point x="1229" y="876" type="line"/>
      <point x="1229" y="1024" type="line"/>
      <point x="974" y="1024" type="line"/>
      <point x="974" y="1358" type="line" smooth="yes"/>
      <point x="974" y="1516"/>
      <point x="1019" y="1579"/>
      <point x="1122" y="1579" type="curve" smooth="yes"/>
      <point x="1156" y="1579"/>
      <point x="1186" y="1572"/>
      <point x="1212" y="1559" type="curve"/>
      <point x="1262" y="1711" type="line"/>
      <point x="1228" y="1730"/>
      <point x="1170" y="1750"/>
      <point x="1091" y="1750" type="curve" smooth="yes"/>
      <point x="900" y="1750"/>
      <point x="780" y="1614"/>
      <point x="780" y="1357" type="curve" smooth="yes"/>
      <point x="780" y="1024" type="line"/>
      <point x="438" y="1024" type="line"/>
      <point x="438" y="1358" type="line" smooth="yes"/>
      <point x="438" y="1516"/>
      <point x="482" y="1579"/>
      <point x="585" y="1579" type="curve" smooth="yes"/>
      <point x="627" y="1579"/>
      <point x="663" y="1567"/>
      <point x="686" y="1554" type="curve"/>
      <point x="757" y="1691" type="line"/>
      <point x="716" y="1720" name=".hr01"/>
      <point x="646" y="1750" name=".hr02"/>
      <point x="554" y="1750" type="curve" smooth="yes"/>
      <point x="363" y="1750"/>
      <point x="243" y="1614"/>
      <point x="243" y="1357" type="curve" smooth="yes"/>
      <point x="243" y="1024" type="line"/>
      <point x="130" y="1024" type="line"/>
      <point x="130" y="876" type="line"/>
      <point x="243" y="876" type="line"/>
      <point x="243" y="0" type="line"/>
    </contour>
    <contour>
      <point x="1526" y="0" type="line"/>
      <point x="1526" y="1720" type="line" name=".hr03"/>
      <point x="1331" y="1720" type="line"/>
      <point x="1331" y="0" type="line"/>
    </contour>
  </outline>
</glyph>
<glyph name="A.tnum" format="2">
  <advance width="1500"/>
  <anchor x="749" y="0" name="bottom"/>
  <anchor x="1498" y="0" name="ogonek"/>
  <anchor x="749" y="1650" name="top"/>
  <outline>
    <contour>
      <point x="221" y="0" type="line"/>
      <point x="404" y="480" type="line"/>
      <point x="1095" y="480" type="line"/>
      <point x="1278" y="0" type="line"/>
      <point x="1498" y="0" type="line"/>
      <point x="844" y="1650" type="line"/>
      <point x="655" y="1650" type="line"/>
      <point x="1" y="0" type="line"/>
    </contour>
    <contour>
      <point x="749" y="1378" type="line"/>
      <point x="1025" y="660" type="line"/>
      <point x="474" y="660" type="line"/>
    </contour>
  </outline>
</glyph>
<glyph name="M.ss01" format="2">
  <advance width="2079"/>
  <anchor x="1039" y="82" name="bottom"/>
  <anchor x="1039" y="1650" name="top"/>
  <outline>
    <contour>
      <point x="370" y="0" type="line"/>
      <point x="528" y="1277" type="line"/>
      <point x="971" y="82" type="line"/>
      <point x="1108" y="82" type="line"/>
      <point x="1550" y="1277" type="line"/>
      <point x="1709" y="0" type="line"/>
      <point x="1913" y="0" type="line"/>
      <point x="1714" y="1650" type="line"/>
      <point x="1496" y="1650" type="line"/>
      <point x="1039" y="438" type="line"/>
      <point x="582" y="1650" type="line"/>
      <point x="364" y="1650" type="line"/>
      <point x="166" y="0" type="line"/>
    </contour>
  </outline>
</glyph>
<glyph name="P.tnum" format="2">
  <advance width="1500"/>
  <outline>
    <contour>
      <point x="518" y="0" type="line"/>
      <point x="518" y="678" type="line"/>
      <point x="782" y="678" type="line" smooth="yes"/>
      <point x="1105" y="678"/>
      <point x="1317" y="862"/>
      <point x="1317" y="1164" type="curve" smooth="yes"/>
      <point x="1317" y="1466"/>
      <point x="1105" y="1650"/>
      <point x="782" y="1650" type="curve" smooth="yes"/>
      <point x="314" y="1650" type="line"/>
      <point x="314" y="0" type="line"/>
    </contour>
    <contour>
      <point x="518" y="1486" type="line"/>
      <point x="727" y="1486" type="line" smooth="yes"/>
      <point x="951" y="1486"/>
      <point x="1106" y="1371"/>
      <point x="1106" y="1164" type="curve" smooth="yes"/>
      <point x="1106" y="957"/>
      <point x="951" y="842"/>
      <point x="727" y="842" type="curve" smooth="yes"/>
      <point x="518" y="842" type="line"/>
    </contour>
  </outline>
</glyph>
<glyph name="a.ss01" format="2">
  <advance width="1442"/>
  <anchor x="639" y="0" name="bottom"/>
  <anchor x="1236" y="0" name="ogonek"/>
  <anchor x="699" y="1024" name="top"/>
  <outline>
    <contour>
      <point x="332" y="512" type="curve" smooth="yes"/>
      <point x="332" y="731"/>
      <point x="483" y="888"/>
      <point x="691" y="888" type="curve" smooth="yes"/>
      <point x="900" y="888"/>
      <point x="1049" y="732"/>
      <point x="1049" y="512" type="curve" smooth="yes"/>
      <point x="1049" y="293"/>
      <point x="900" y="136"/>
      <point x="691" y="136" type="curve" smooth="yes"/>
      <point x="483" y="136"/>
      <point x="332" y="293"/>
    </contour>
    <contour>
      <point x="130" y="512" type="curve" smooth="yes"/>
      <point x="130" y="201"/>
      <point x="345" y="-32"/>
      <point x="639" y="-32" type="curve" smooth="yes"/>
      <point x="808" y="-32"/>
      <point x="953" y="50"/>
      <point x="1042" y="192" type="curve"/>
      <point x="1042" y="0" type="line"/>
      <point x="1236" y="0" type="line" name=".hr01"/>
      <point x="1236" y="1024" type="line"/>
      <point x="1042" y="1024" type="line"/>
      <point x="1042" y="832" type="line"/>
      <point x="953" y="974"/>
      <point x="808" y="1056"/>
      <point x="639" y="1056" type="curve" smooth="yes" name=".hr02"/>
      <point x="345" y="1056"/>
      <point x="130" y="823"/>
    </contour>
  </outline>
</glyph>
<glyph name="eight.pnum" format="2">
  <advance width="1387"/>
  <outline>
    <contour>
      <point x="693" y="-32" type="curve" smooth="yes"/>
      <point x="1004" y="-32"/>
      <point x="1239" y="172"/>
      <point x="1239" y="444" type="curve" smooth="yes"/>
      <point x="1239" y="641"/>
      <point x="1119" y="808"/>
      <point x="934" y="880" type="curve"/>
      <point x="1080" y="950"/>
      <point x="1174" y="1093" name=".hr01"/>
      <point x="1174" y="1257" type="curve" smooth="yes"/>
      <point x="1174" y="1512"/>
      <point x="943" y="1680"/>
      <point x="693" y="1680" type="curve" smooth="yes"/>
      <point x="423" y="1680"/>
      <point x="212" y="1497"/>
      <point x="212" y="1256" type="curve" smooth="yes"/>
      <point x="212" y="1096"/>
      <point x="304" y="951"/>
      <point x="453" y="880" type="curve"/>
      <point x="269" y="809"/>
      <point x="148" y="642" name=".hr02"/>
      <point x="148" y="445" type="curve" smooth="yes"/>
      <point x="148" y="171"/>
      <point x="383" y="-32"/>
    </contour>
    <contour>
      <point x="693" y="146" type="curve" smooth="yes"/>
      <point x="502" y="146"/>
      <point x="369" y="283"/>
      <point x="369" y="464" type="curve" smooth="yes"/>
      <point x="369" y="650"/>
      <point x="509" y="783"/>
      <point x="693" y="783" type="curve" smooth="yes"/>
      <point x="880" y="783"/>
      <point x="1018" y="648"/>
      <point x="1018" y="464" type="curve" smooth="yes"/>
      <point x="1018" y="283"/>
      <point x="885" y="146"/>
    </contour>
    <contour>
      <point x="693" y="958" type="curve" smooth="yes"/>
      <point x="530" y="958"/>
      <point x="410" y="1078"/>
      <point x="410" y="1239" type="curve" smooth="yes"/>
      <point x="410" y="1400" name=".hr03"/>
      <point x="531" y="1522"/>
      <point x="693" y="1522" type="curve" smooth="yes"/>
      <point x="855" y="1522"/>
      <point x="977" y="1400"/>
      <point x="977" y="1239" type="curve" smooth="yes"/>
      <point x="977" y="1078"/>
      <point x="856" y="958"/>
    </contour>
  </outline>
</glyph>
<glyph name="f_f_j" format="2">
  <advance width="1592"/>
  <outline>
    <contour>
      <point x="1145" y="-550" type="curve" smooth="yes"/>
      <point x="1349" y="-550"/>
      <point x="1441" y="-412"/>
      <point x="1441" y="-209" type="curve" smooth="yes"/>
      <point x="1441" y="1024" type="line"/>
      <point x="923" y="1024" type="line"/>
      <point x="923" y="1358" type="line" smooth="yes"/>
      <point x="923" y="1516"/>
      <point x="976" y="1580"/>
      <point x="1092" y="1580" type="curve" smooth="yes"/>
      <point x="1164" y="1580"/>
      <point x="1248" y="1536"/>
      <point x="1286" y="1482" type="curve"/>
      <point x="1367" y="1607" type="line"/>
      <point x="1306" y="1686"/>
      <point x="1181" y="1750"/>
      <point x="1040" y="1750" type="curve" smooth="yes"/>
      <point x="849" y="1750"/>
      <point x="728" y="1614"/>
      <point x="728" y="1357" type="curve" smooth="yes"/>
      <point x="728" y="1024" type="line"/>
      <point x="385" y="1024" type="line"/>
      <point x="385" y="1358" type="line" smooth="yes"/>
      <point x="385" y="1516"/>
      <point x="430" y="1579"/>
      <point x="533" y="1579" type="curve" smooth="yes"/>
      <point x="575" y="1579"/>
      <point x="610" y="1567"/>
      <point x="634" y="1554" type="curve"/>
      <point x="704" y="1691" type="line"/>
      <point x="663" y="1720"/>
      <point x="594" y="1750"/>
      <point x="502" y="1750" type="curve" smooth="yes"/>
      <point x="311" y="1750"/>
      <point x="191" y="1614"/>
      <point x="191" y="1357" type="curve" smooth="yes"/>
      <point x="191" y="1024" type="line"/>
      <point x="77" y="1024" type="line"/>
      <point x="77" y="876" type="line"/>
      <point x="191" y="876" type="line"/>
      <point x="191" y="0" type="line"/>
      <point x="385" y="0" type="line"/>
      <point x="385" y="876" type="line"/>
      <point x="728" y="876" type="line"/>
      <point x="728" y="0" type="line"/>
      <point x="923" y="0" type="line"/>
      <point x="923" y="876" type="line"/>
      <point x="1247" y="876" type="line"/>
      <point x="1247" y="-184" type="line" smooth="yes"/>
      <point x="1247" y="-316"/>
      <point x="1195" y="-376"/>
      <point x="1105" y="-376" type="curve" smooth="yes"/>
      <point x="1058" y="-376"/>
      <point x="1018" y="-360"/>
      <point x="994" y="-340" type="curve"/>
      <point x="935" y="-496" type="line"/>
      <point x="971" y="-521"/>
      <point x="1039" y="-550"/>
    </contour>
  </outline>
</glyph>
<glyph name="f_f_t" format="2">
  <advance width="1933"/>
  <outline>
    <contour>
      <point x="1619" y="-32" type="curve" smooth="yes"/>
      <point x="1704" y="-32"/>
      <point x="1774" y="-5"/>
      <point x="1812" y="18" type="curve"/>
      <point x="1763" y="174" type="line"/>
      <point x="1743" y="159"/>
      <point x="1707" y="141"/>
      <point x="1664" y="141" type="curve" smooth="yes"/>
      <point x="1580" y="141"/>
      <point x="1548" y="201"/>
      <point x="1548" y="318" type="curve" smooth="yes"/>
      <point x="1548" y="876" type="line"/>
      <point x="1794" y="876" type="line"/>
      <point x="1794" y="1024" type="line"/>
      <point x="1548" y="1024" type="line"/>
      <point x="1548" y="1407" type="line"/>
      <point x="1353" y="1407" type="line"/>
      <point x="1353" y="1024" type="line"/>
      <point x="996" y="1024" type="line"/>
      <point x="996" y="1358" type="line" smooth="yes"/>
      <point x="996" y="1516"/>
      <point x="1041" y="1579"/>
      <point x="1144" y="1579" type="curve" smooth="yes"/>
      <point x="1185" y="1579"/>
      <point x="1219" y="1569"/>
      <point x="1243" y="1556" type="curve"/>
      <point x="1314" y="1692" type="line"/>
      <point x="1273" y="1720"/>
      <point x="1205" y="1750"/>
      <point x="1113" y="1750" type="curve" smooth="yes"/>
      <point x="921" y="1750"/>
      <point x="801" y="1614"/>
      <point x="801" y="1357" type="curve" smooth="yes"/>
      <point x="801" y="1024" type="line"/>
      <point x="459" y="1024" type="line"/>
      <point x="459" y="1358" type="line" smooth="yes"/>
      <point x="459" y="1516"/>
      <point x="504" y="1579"/>
      <point x="607" y="1579" type="curve" smooth="yes"/>
      <point x="649" y="1579"/>
      <point x="684" y="1567"/>
      <point x="708" y="1554" type="curve"/>
      <point x="778" y="1691" type="line"/>
      <point x="737" y="1720"/>
      <point x="668" y="1750"/>
      <point x="576" y="1750" type="curve" smooth="yes"/>
      <point x="385" y="1750"/>
      <point x="265" y="1614"/>
      <point x="265" y="1357" type="curve" smooth="yes"/>
      <point x="265" y="1024" type="line"/>
      <point x="151" y="1024" type="line"/>
      <point x="151" y="876" type="line"/>
      <point x="265" y="876" type="line"/>
      <point x="265" y="0" type="line" name=".hr01"/>
      <point x="459" y="0" type="line"/>
      <point x="459" y="876" type="line"/>
      <point x="801" y="876" type="line"/>
      <point x="801" y="0" type="line"/>
      <point x="996" y="0" type="line"/>
      <point x="996" y="876" type="line"/>
      <point x="1353" y="876" type="line"/>
      <point x="1353" y="286" type="line" smooth="yes"/>
      <point x="1353" y="134"/>
      <point x="1397" y="-32" name=".hr02"/>
    </contour>
  </outline>
</glyph>
